<svg width="509" height="769" viewBox="0 0 509 769" fill="none" xmlns="http://www.w3.org/2000/svg">
<rect width="509" height="769" fill="white"/>
<rect x="14" y="18" width="118" height="309" fill="#EEEEEE"/>
<rect x="348" y="415" width="151" height="309" fill="#EEEEEE"/>
<rect x="14" y="415" width="316" height="309" fill="#EEEEEE"/>
<rect x="148" y="18" width="351" height="309" fill="#EEEEEE"/>
<path d="M26.066 39.966C26.066 39.658 26.1733 39.3967 26.388 39.182C26.6027 38.958 26.8687 38.846 27.186 38.846C27.5127 38.846 27.7833 38.958 27.998 39.182C28.2127 39.3967 28.32 39.658 28.32 39.966C28.32 40.2833 28.2127 40.554 27.998 40.778C27.7833 41.002 27.5127 41.114 27.186 41.114C26.8687 41.114 26.6027 41.002 26.388 40.778C26.1733 40.554 26.066 40.2833 26.066 39.966ZM26.066 45.02C26.066 44.712 26.1733 44.446 26.388 44.222C26.6027 43.998 26.8687 43.886 27.186 43.886C27.5127 43.886 27.7833 43.998 27.998 44.222C28.2127 44.4367 28.32 44.7027 28.32 45.02C28.32 45.3467 28.2127 45.6173 27.998 45.832C27.7833 46.0467 27.5127 46.154 27.186 46.154C26.8687 46.154 26.6027 46.0467 26.388 45.832C26.1733 45.6173 26.066 45.3467 26.066 45.02ZM34.4605 39.966C34.4605 39.658 34.5679 39.3967 34.7825 39.182C34.9972 38.958 35.2632 38.846 35.5805 38.846C35.9072 38.846 36.1779 38.958 36.3925 39.182C36.6072 39.3967 36.7145 39.658 36.7145 39.966C36.7145 40.2833 36.6072 40.554 36.3925 40.778C36.1779 41.002 35.9072 41.114 35.5805 41.114C35.2632 41.114 34.9972 41.002 34.7825 40.778C34.5679 40.554 34.4605 40.2833 34.4605 39.966ZM34.4605 45.02C34.4605 44.712 34.5679 44.446 34.7825 44.222C34.9972 43.998 35.2632 43.886 35.5805 43.886C35.9072 43.886 36.1779 43.998 36.3925 44.222C36.6072 44.4367 36.7145 44.7027 36.7145 45.02C36.7145 45.3467 36.6072 45.6173 36.3925 45.832C36.1779 46.0467 35.9072 46.154 35.5805 46.154C35.2632 46.154 34.9972 46.0467 34.7825 45.832C34.5679 45.6173 34.4605 45.3467 34.4605 45.02ZM55.4496 45.622C55.1976 45.79 54.8896 45.9207 54.5256 46.014C54.1709 46.1073 53.8163 46.154 53.4616 46.154C52.6869 46.154 52.0803 45.9533 51.6416 45.552C51.2029 45.1413 50.9836 44.6047 50.9836 43.942V39.546H49.2896V38.622H50.9836V36.956L52.1596 36.816V38.622H54.7216L54.5676 39.546H52.1596V43.928C52.1596 44.348 52.2716 44.6607 52.4956 44.866C52.7196 45.0713 53.0789 45.174 53.5736 45.174C54.0776 45.174 54.5489 45.0573 54.9876 44.824L55.4496 45.622ZM60.7781 35.178C61.0395 35.178 61.2495 35.2573 61.4081 35.416C61.5668 35.5653 61.6461 35.7613 61.6461 36.004C61.6461 36.2467 61.5668 36.4473 61.4081 36.606C61.2495 36.7553 61.0395 36.83 60.7781 36.83C60.5261 36.83 60.3208 36.7553 60.1621 36.606C60.0128 36.4473 59.9381 36.2467 59.9381 36.004C59.9381 35.7613 60.0128 35.5653 60.1621 35.416C60.3208 35.2573 60.5261 35.178 60.7781 35.178ZM61.7161 45.062H63.7881V46H58.2721V45.062H60.5401V39.56H58.3421V38.622H61.7161V45.062ZM72.2387 45.622C71.9867 45.79 71.6787 45.9207 71.3147 46.014C70.96 46.1073 70.6053 46.154 70.2507 46.154C69.476 46.154 68.8693 45.9533 68.4307 45.552C67.992 45.1413 67.7727 44.6047 67.7727 43.942V39.546H66.0787V38.622H67.7727V36.956L68.9487 36.816V38.622H71.5107L71.3567 39.546H68.9487V43.928C68.9487 44.348 69.0607 44.6607 69.2847 44.866C69.5087 45.0713 69.868 45.174 70.3627 45.174C70.8667 45.174 71.338 45.0573 71.7767 44.824L72.2387 45.622ZM77.6512 44.18C77.6512 44.8427 78.0572 45.174 78.8692 45.174C79.2519 45.174 79.6625 45.09 80.1012 44.922L80.4092 45.776C79.9425 46.028 79.3592 46.154 78.6592 46.154C77.9965 46.154 77.4645 45.972 77.0632 45.608C76.6712 45.244 76.4752 44.7493 76.4752 44.124V36.592H74.2072V35.654H77.6512V44.18ZM84.0997 42.724C84.1277 43.536 84.3377 44.1473 84.7297 44.558C85.1311 44.9687 85.6351 45.174 86.2417 45.174C86.6057 45.174 86.9371 45.1227 87.2357 45.02C87.5437 44.908 87.8704 44.74 88.2157 44.516L88.7617 45.3C88.4164 45.5707 88.0197 45.7807 87.5717 45.93C87.1331 46.0793 86.6897 46.154 86.2417 46.154C85.1777 46.154 84.3471 45.8087 83.7497 45.118C83.1617 44.418 82.8677 43.4847 82.8677 42.318C82.8677 41.5807 82.9984 40.9227 83.2597 40.344C83.5211 39.756 83.8944 39.2987 84.3797 38.972C84.8651 38.636 85.4297 38.468 86.0737 38.468C87.0071 38.468 87.7397 38.7947 88.2717 39.448C88.8131 40.092 89.0837 40.974 89.0837 42.094C89.0837 42.3087 89.0744 42.5187 89.0557 42.724H84.0997ZM86.0877 39.434C85.5184 39.434 85.0564 39.6393 84.7017 40.05C84.3471 40.4513 84.1464 41.044 84.0997 41.828H87.9357C87.9264 41.0533 87.7584 40.4607 87.4317 40.05C87.1051 39.6393 86.6571 39.434 86.0877 39.434ZM101.617 39.966C101.617 39.658 101.724 39.3967 101.939 39.182C102.153 38.958 102.419 38.846 102.737 38.846C103.063 38.846 103.334 38.958 103.549 39.182C103.763 39.3967 103.871 39.658 103.871 39.966C103.871 40.2833 103.763 40.554 103.549 40.778C103.334 41.002 103.063 41.114 102.737 41.114C102.419 41.114 102.153 41.002 101.939 40.778C101.724 40.554 101.617 40.2833 101.617 39.966ZM101.617 45.02C101.617 44.712 101.724 44.446 101.939 44.222C102.153 43.998 102.419 43.886 102.737 43.886C103.063 43.886 103.334 43.998 103.549 44.222C103.763 44.4367 103.871 44.7027 103.871 45.02C103.871 45.3467 103.763 45.6173 103.549 45.832C103.334 46.0467 103.063 46.154 102.737 46.154C102.419 46.154 102.153 46.0467 101.939 45.832C101.724 45.6173 101.617 45.3467 101.617 45.02ZM110.011 39.966C110.011 39.658 110.119 39.3967 110.333 39.182C110.548 38.958 110.814 38.846 111.131 38.846C111.458 38.846 111.729 38.958 111.943 39.182C112.158 39.3967 112.265 39.658 112.265 39.966C112.265 40.2833 112.158 40.554 111.943 40.778C111.729 41.002 111.458 41.114 111.131 41.114C110.814 41.114 110.548 41.002 110.333 40.778C110.119 40.554 110.011 40.2833 110.011 39.966ZM110.011 45.02C110.011 44.712 110.119 44.446 110.333 44.222C110.548 43.998 110.814 43.886 111.131 43.886C111.458 43.886 111.729 43.998 111.943 44.222C112.158 44.4367 112.265 44.7027 112.265 45.02C112.265 45.3467 112.158 45.6173 111.943 45.832C111.729 46.0467 111.458 46.154 111.131 46.154C110.814 46.154 110.548 46.0467 110.333 45.832C110.119 45.6173 110.011 45.3467 110.011 45.02Z" fill="black"/>
<path d="M159.066 39.966C159.066 39.658 159.173 39.3967 159.388 39.182C159.603 38.958 159.869 38.846 160.186 38.846C160.513 38.846 160.783 38.958 160.998 39.182C161.213 39.3967 161.32 39.658 161.32 39.966C161.32 40.2833 161.213 40.554 160.998 40.778C160.783 41.002 160.513 41.114 160.186 41.114C159.869 41.114 159.603 41.002 159.388 40.778C159.173 40.554 159.066 40.2833 159.066 39.966ZM159.066 45.02C159.066 44.712 159.173 44.446 159.388 44.222C159.603 43.998 159.869 43.886 160.186 43.886C160.513 43.886 160.783 43.998 160.998 44.222C161.213 44.4367 161.32 44.7027 161.32 45.02C161.32 45.3467 161.213 45.6173 160.998 45.832C160.783 46.0467 160.513 46.154 160.186 46.154C159.869 46.154 159.603 46.0467 159.388 45.832C159.173 45.6173 159.066 45.3467 159.066 45.02ZM167.461 39.966C167.461 39.658 167.568 39.3967 167.783 39.182C167.997 38.958 168.263 38.846 168.581 38.846C168.907 38.846 169.178 38.958 169.393 39.182C169.607 39.3967 169.715 39.658 169.715 39.966C169.715 40.2833 169.607 40.554 169.393 40.778C169.178 41.002 168.907 41.114 168.581 41.114C168.263 41.114 167.997 41.002 167.783 40.778C167.568 40.554 167.461 40.2833 167.461 39.966ZM167.461 45.02C167.461 44.712 167.568 44.446 167.783 44.222C167.997 43.998 168.263 43.886 168.581 43.886C168.907 43.886 169.178 43.998 169.393 44.222C169.607 44.4367 169.715 44.7027 169.715 45.02C169.715 45.3467 169.607 45.6173 169.393 45.832C169.178 46.0467 168.907 46.154 168.581 46.154C168.263 46.154 167.997 46.0467 167.783 45.832C167.568 45.6173 167.461 45.3467 167.461 45.02ZM185.93 45.146C186.574 45.146 187.213 44.9313 187.848 44.502L188.408 45.272C188.1 45.5427 187.717 45.7573 187.26 45.916C186.802 46.0747 186.359 46.154 185.93 46.154C184.838 46.154 183.984 45.8133 183.368 45.132C182.761 44.4413 182.458 43.5127 182.458 42.346C182.458 41.6087 182.593 40.946 182.864 40.358C183.144 39.77 183.545 39.308 184.068 38.972C184.59 38.636 185.211 38.468 185.93 38.468C186.882 38.468 187.703 38.7573 188.394 39.336L187.82 40.106C187.176 39.6767 186.541 39.462 185.916 39.462C185.253 39.462 184.721 39.7093 184.32 40.204C183.928 40.6893 183.732 41.4033 183.732 42.346C183.732 43.2887 183.928 43.9933 184.32 44.46C184.721 44.9173 185.258 45.146 185.93 45.146ZM193.792 38.468C194.809 38.468 195.589 38.8133 196.13 39.504C196.681 40.1853 196.956 41.1187 196.956 42.304C196.956 43.4613 196.676 44.3947 196.116 45.104C195.565 45.804 194.786 46.154 193.778 46.154C192.761 46.154 191.977 45.8133 191.426 45.132C190.875 44.4413 190.6 43.5033 190.6 42.318C190.6 41.1513 190.875 40.218 191.426 39.518C191.986 38.818 192.775 38.468 193.792 38.468ZM193.792 39.434C193.148 39.434 192.667 39.672 192.35 40.148C192.033 40.624 191.874 41.3473 191.874 42.318C191.874 43.2887 192.028 44.012 192.336 44.488C192.653 44.9547 193.134 45.188 193.778 45.188C194.422 45.188 194.898 44.9547 195.206 44.488C195.523 44.012 195.682 43.284 195.682 42.304C195.682 41.3333 195.523 40.6147 195.206 40.148C194.898 39.672 194.427 39.434 193.792 39.434ZM199.373 38.622H200.381L200.479 39.658C200.768 39.2847 201.132 38.9953 201.571 38.79C202.019 38.5753 202.467 38.468 202.915 38.468C204.296 38.468 204.987 39.196 204.987 40.652V46H203.811V41.52C203.811 40.9693 203.778 40.5493 203.713 40.26C203.657 39.9707 203.54 39.756 203.363 39.616C203.185 39.476 202.915 39.406 202.551 39.406C202.149 39.406 201.771 39.5273 201.417 39.77C201.062 40.0127 200.773 40.302 200.549 40.638V46H199.373V38.622ZM213.633 45.622C213.381 45.79 213.073 45.9207 212.709 46.014C212.355 46.1073 212 46.154 211.645 46.154C210.871 46.154 210.264 45.9533 209.825 45.552C209.387 45.1413 209.167 44.6047 209.167 43.942V39.546H207.473V38.622H209.167V36.956L210.343 36.816V38.622H212.905L212.751 39.546H210.343V43.928C210.343 44.348 210.455 44.6607 210.679 44.866C210.903 45.0713 211.263 45.174 211.757 45.174C212.261 45.174 212.733 45.0573 213.171 44.824L213.633 45.622ZM217.1 42.724C217.128 43.536 217.338 44.1473 217.73 44.558C218.131 44.9687 218.635 45.174 219.242 45.174C219.606 45.174 219.937 45.1227 220.236 45.02C220.544 44.908 220.87 44.74 221.216 44.516L221.762 45.3C221.416 45.5707 221.02 45.7807 220.572 45.93C220.133 46.0793 219.69 46.154 219.242 46.154C218.178 46.154 217.347 45.8087 216.75 45.118C216.162 44.418 215.868 43.4847 215.868 42.318C215.868 41.5807 215.998 40.9227 216.26 40.344C216.521 39.756 216.894 39.2987 217.38 38.972C217.865 38.636 218.43 38.468 219.074 38.468C220.007 38.468 220.74 38.7947 221.272 39.448C221.813 40.092 222.084 40.974 222.084 42.094C222.084 42.3087 222.074 42.5187 222.056 42.724H217.1ZM219.088 39.434C218.518 39.434 218.056 39.6393 217.702 40.05C217.347 40.4513 217.146 41.044 217.1 41.828H220.936C220.926 41.0533 220.758 40.4607 220.432 40.05C220.105 39.6393 219.657 39.434 219.088 39.434ZM224.556 38.622H225.564L225.662 39.658C225.952 39.2847 226.316 38.9953 226.754 38.79C227.202 38.5753 227.65 38.468 228.098 38.468C229.48 38.468 230.17 39.196 230.17 40.652V46H228.994V41.52C228.994 40.9693 228.962 40.5493 228.896 40.26C228.84 39.9707 228.724 39.756 228.546 39.616C228.369 39.476 228.098 39.406 227.734 39.406C227.333 39.406 226.955 39.5273 226.6 39.77C226.246 40.0127 225.956 40.302 225.732 40.638V46H224.556V38.622ZM238.817 45.622C238.565 45.79 238.257 45.9207 237.893 46.014C237.538 46.1073 237.183 46.154 236.829 46.154C236.054 46.154 235.447 45.9533 235.009 45.552C234.57 45.1413 234.351 44.6047 234.351 43.942V39.546H232.657V38.622H234.351V36.956L235.527 36.816V38.622H238.089L237.935 39.546H235.527V43.928C235.527 44.348 235.639 44.6607 235.863 44.866C236.087 45.0713 236.446 45.174 236.941 45.174C237.445 45.174 237.916 45.0573 238.355 44.824L238.817 45.622ZM251.406 39.966C251.406 39.658 251.513 39.3967 251.728 39.182C251.943 38.958 252.209 38.846 252.526 38.846C252.853 38.846 253.123 38.958 253.338 39.182C253.553 39.3967 253.66 39.658 253.66 39.966C253.66 40.2833 253.553 40.554 253.338 40.778C253.123 41.002 252.853 41.114 252.526 41.114C252.209 41.114 251.943 41.002 251.728 40.778C251.513 40.554 251.406 40.2833 251.406 39.966ZM251.406 45.02C251.406 44.712 251.513 44.446 251.728 44.222C251.943 43.998 252.209 43.886 252.526 43.886C252.853 43.886 253.123 43.998 253.338 44.222C253.553 44.4367 253.66 44.7027 253.66 45.02C253.66 45.3467 253.553 45.6173 253.338 45.832C253.123 46.0467 252.853 46.154 252.526 46.154C252.209 46.154 251.943 46.0467 251.728 45.832C251.513 45.6173 251.406 45.3467 251.406 45.02ZM259.8 39.966C259.8 39.658 259.908 39.3967 260.122 39.182C260.337 38.958 260.603 38.846 260.92 38.846C261.247 38.846 261.518 38.958 261.732 39.182C261.947 39.3967 262.054 39.658 262.054 39.966C262.054 40.2833 261.947 40.554 261.732 40.778C261.518 41.002 261.247 41.114 260.92 41.114C260.603 41.114 260.337 41.002 260.122 40.778C259.908 40.554 259.8 40.2833 259.8 39.966ZM259.8 45.02C259.8 44.712 259.908 44.446 260.122 44.222C260.337 43.998 260.603 43.886 260.92 43.886C261.247 43.886 261.518 43.998 261.732 44.222C261.947 44.4367 262.054 44.7027 262.054 45.02C262.054 45.3467 261.947 45.6173 261.732 45.832C261.518 46.0467 261.247 46.154 260.92 46.154C260.603 46.154 260.337 46.0467 260.122 45.832C259.908 45.6173 259.8 45.3467 259.8 45.02Z" fill="black"/>
<path d="M201.66 359.08C202.207 359.08 202.633 359 202.94 358.84C203.26 358.667 203.42 358.413 203.42 358.08C203.42 357.84 203.353 357.647 203.22 357.5C203.1 357.353 202.867 357.213 202.52 357.08C202.173 356.933 201.633 356.76 200.9 356.56C199.833 356.28 199.02 355.893 198.46 355.4C197.9 354.893 197.62 354.2 197.62 353.32C197.62 352.347 198.02 351.553 198.82 350.94C199.633 350.327 200.767 350.02 202.22 350.02C203.9 350.02 205.333 350.453 206.52 351.32L205.26 353.18C204.287 352.58 203.307 352.28 202.32 352.28C201.8 352.28 201.413 352.347 201.16 352.48C200.92 352.613 200.8 352.82 200.8 353.1C200.8 353.287 200.86 353.447 200.98 353.58C201.113 353.7 201.353 353.827 201.7 353.96C202.06 354.093 202.593 354.26 203.3 354.46C204.06 354.673 204.68 354.907 205.16 355.16C205.653 355.413 206.033 355.753 206.3 356.18C206.567 356.607 206.7 357.153 206.7 357.82C206.7 358.567 206.473 359.207 206.02 359.74C205.567 360.273 204.96 360.673 204.2 360.94C203.44 361.207 202.6 361.34 201.68 361.34C200.693 361.34 199.8 361.2 199 360.92C198.2 360.64 197.52 360.247 196.96 359.74L198.54 357.96C199.5 358.707 200.54 359.08 201.66 359.08ZM213.972 344.82C214.519 344.82 214.966 344.993 215.312 345.34C215.659 345.673 215.832 346.093 215.832 346.6C215.832 347.12 215.659 347.547 215.312 347.88C214.966 348.213 214.519 348.38 213.972 348.38C213.426 348.38 212.972 348.213 212.612 347.88C212.266 347.533 212.092 347.107 212.092 346.6C212.092 346.093 212.266 345.673 212.612 345.34C212.972 344.993 213.426 344.82 213.972 344.82ZM215.872 358.84H218.592V361H209.712V358.84H212.712V352.54H209.812V350.38H215.872V358.84ZM230.584 346.16V361H227.784L227.624 359.84C227.304 360.293 226.898 360.66 226.404 360.94C225.911 361.207 225.338 361.34 224.684 361.34C223.404 361.34 222.431 360.833 221.764 359.82C221.111 358.807 220.784 357.42 220.784 355.66C220.784 354.567 220.958 353.593 221.304 352.74C221.651 351.887 222.144 351.22 222.784 350.74C223.424 350.26 224.171 350.02 225.024 350.02C225.984 350.02 226.784 350.353 227.424 351.02V345.82L230.584 346.16ZM225.864 352.34C225.291 352.34 224.844 352.613 224.524 353.16C224.204 353.693 224.044 354.533 224.044 355.68C224.044 356.907 224.184 357.773 224.464 358.28C224.758 358.773 225.164 359.02 225.684 359.02C226.351 359.02 226.931 358.613 227.424 357.8V353.22C227.198 352.927 226.958 352.707 226.704 352.56C226.464 352.413 226.184 352.34 225.864 352.34ZM236.117 356.62C236.317 358.233 237.17 359.04 238.677 359.04C239.583 359.04 240.49 358.747 241.397 358.16L242.657 359.88C242.137 360.333 241.517 360.693 240.797 360.96C240.077 361.213 239.283 361.34 238.417 361.34C237.23 361.34 236.223 361.107 235.397 360.64C234.57 360.16 233.943 359.5 233.517 358.66C233.103 357.807 232.897 356.82 232.897 355.7C232.897 354.633 233.097 353.673 233.497 352.82C233.91 351.953 234.503 351.273 235.277 350.78C236.063 350.273 236.997 350.02 238.077 350.02C239.09 350.02 239.97 350.24 240.717 350.68C241.463 351.107 242.037 351.733 242.437 352.56C242.85 353.373 243.057 354.347 243.057 355.48C243.057 355.92 243.037 356.3 242.997 356.62H236.117ZM238.077 352.14C237.503 352.14 237.043 352.353 236.697 352.78C236.35 353.193 236.143 353.833 236.077 354.7H239.977C239.95 352.993 239.317 352.14 238.077 352.14ZM247.869 352.32C247.869 351.747 248.069 351.253 248.469 350.84C248.882 350.427 249.382 350.22 249.969 350.22C250.555 350.22 251.049 350.427 251.449 350.84C251.849 351.253 252.049 351.747 252.049 352.32C252.049 352.893 251.849 353.387 251.449 353.8C251.049 354.2 250.555 354.4 249.969 354.4C249.382 354.4 248.882 354.2 248.469 353.8C248.069 353.387 247.869 352.893 247.869 352.32ZM247.869 359.22C247.869 358.66 248.069 358.18 248.469 357.78C248.882 357.367 249.382 357.16 249.969 357.16C250.555 357.16 251.049 357.367 251.449 357.78C251.849 358.18 252.049 358.66 252.049 359.22C252.049 359.807 251.849 360.307 251.449 360.72C251.049 361.133 250.555 361.34 249.969 361.34C249.382 361.34 248.882 361.133 248.469 360.72C248.069 360.307 247.869 359.807 247.869 359.22ZM274.893 357.66C274.893 358.447 275.346 358.84 276.253 358.84C276.746 358.84 277.253 358.733 277.773 358.52L278.513 360.64C277.66 361.107 276.64 361.34 275.453 361.34C274.213 361.34 273.28 360.987 272.653 360.28C272.04 359.56 271.733 358.553 271.733 357.26V348.32H268.613V346.16H274.893V357.66Z" fill="black"/>
<path d="M201.66 752.08C202.207 752.08 202.633 752 202.94 751.84C203.26 751.667 203.42 751.413 203.42 751.08C203.42 750.84 203.353 750.647 203.22 750.5C203.1 750.353 202.867 750.213 202.52 750.08C202.173 749.933 201.633 749.76 200.9 749.56C199.833 749.28 199.02 748.893 198.46 748.4C197.9 747.893 197.62 747.2 197.62 746.32C197.62 745.347 198.02 744.553 198.82 743.94C199.633 743.327 200.767 743.02 202.22 743.02C203.9 743.02 205.333 743.453 206.52 744.32L205.26 746.18C204.287 745.58 203.307 745.28 202.32 745.28C201.8 745.28 201.413 745.347 201.16 745.48C200.92 745.613 200.8 745.82 200.8 746.1C200.8 746.287 200.86 746.447 200.98 746.58C201.113 746.7 201.353 746.827 201.7 746.96C202.06 747.093 202.593 747.26 203.3 747.46C204.06 747.673 204.68 747.907 205.16 748.16C205.653 748.413 206.033 748.753 206.3 749.18C206.567 749.607 206.7 750.153 206.7 750.82C206.7 751.567 206.473 752.207 206.02 752.74C205.567 753.273 204.96 753.673 204.2 753.94C203.44 754.207 202.6 754.34 201.68 754.34C200.693 754.34 199.8 754.2 199 753.92C198.2 753.64 197.52 753.247 196.96 752.74L198.54 750.96C199.5 751.707 200.54 752.08 201.66 752.08ZM213.972 737.82C214.519 737.82 214.966 737.993 215.312 738.34C215.659 738.673 215.832 739.093 215.832 739.6C215.832 740.12 215.659 740.547 215.312 740.88C214.966 741.213 214.519 741.38 213.972 741.38C213.426 741.38 212.972 741.213 212.612 740.88C212.266 740.533 212.092 740.107 212.092 739.6C212.092 739.093 212.266 738.673 212.612 738.34C212.972 737.993 213.426 737.82 213.972 737.82ZM215.872 751.84H218.592V754H209.712V751.84H212.712V745.54H209.812V743.38H215.872V751.84ZM230.584 739.16V754H227.784L227.624 752.84C227.304 753.293 226.898 753.66 226.404 753.94C225.911 754.207 225.338 754.34 224.684 754.34C223.404 754.34 222.431 753.833 221.764 752.82C221.111 751.807 220.784 750.42 220.784 748.66C220.784 747.567 220.958 746.593 221.304 745.74C221.651 744.887 222.144 744.22 222.784 743.74C223.424 743.26 224.171 743.02 225.024 743.02C225.984 743.02 226.784 743.353 227.424 744.02V738.82L230.584 739.16ZM225.864 745.34C225.291 745.34 224.844 745.613 224.524 746.16C224.204 746.693 224.044 747.533 224.044 748.68C224.044 749.907 224.184 750.773 224.464 751.28C224.758 751.773 225.164 752.02 225.684 752.02C226.351 752.02 226.931 751.613 227.424 750.8V746.22C227.198 745.927 226.958 745.707 226.704 745.56C226.464 745.413 226.184 745.34 225.864 745.34ZM236.117 749.62C236.317 751.233 237.17 752.04 238.677 752.04C239.583 752.04 240.49 751.747 241.397 751.16L242.657 752.88C242.137 753.333 241.517 753.693 240.797 753.96C240.077 754.213 239.283 754.34 238.417 754.34C237.23 754.34 236.223 754.107 235.397 753.64C234.57 753.16 233.943 752.5 233.517 751.66C233.103 750.807 232.897 749.82 232.897 748.7C232.897 747.633 233.097 746.673 233.497 745.82C233.91 744.953 234.503 744.273 235.277 743.78C236.063 743.273 236.997 743.02 238.077 743.02C239.09 743.02 239.97 743.24 240.717 743.68C241.463 744.107 242.037 744.733 242.437 745.56C242.85 746.373 243.057 747.347 243.057 748.48C243.057 748.92 243.037 749.3 242.997 749.62H236.117ZM238.077 745.14C237.503 745.14 237.043 745.353 236.697 745.78C236.35 746.193 236.143 746.833 236.077 747.7H239.977C239.95 745.993 239.317 745.14 238.077 745.14ZM247.869 745.32C247.869 744.747 248.069 744.253 248.469 743.84C248.882 743.427 249.382 743.22 249.969 743.22C250.555 743.22 251.049 743.427 251.449 743.84C251.849 744.253 252.049 744.747 252.049 745.32C252.049 745.893 251.849 746.387 251.449 746.8C251.049 747.2 250.555 747.4 249.969 747.4C249.382 747.4 248.882 747.2 248.469 746.8C248.069 746.387 247.869 745.893 247.869 745.32ZM247.869 752.22C247.869 751.66 248.069 751.18 248.469 750.78C248.882 750.367 249.382 750.16 249.969 750.16C250.555 750.16 251.049 750.367 251.449 750.78C251.849 751.18 252.049 751.66 252.049 752.22C252.049 752.807 251.849 753.307 251.449 753.72C251.049 754.133 250.555 754.34 249.969 754.34C249.382 754.34 248.882 754.133 248.469 753.72C248.069 753.307 247.869 752.807 247.869 752.22ZM277.453 743.06C278.093 743.06 278.68 743.167 279.213 743.38L278.633 747.82H276.633V745.86C276.046 745.967 275.526 746.287 275.073 746.82C274.62 747.353 274.266 748.027 274.013 748.84V751.88H276.113V754H269.453V751.88H270.853V745.48H269.453V743.38H273.273L273.833 745.76C274.22 744.853 274.706 744.18 275.293 743.74C275.88 743.287 276.6 743.06 277.453 743.06Z" fill="black"/>
<path d="M361.066 433.966C361.066 433.658 361.173 433.397 361.388 433.182C361.603 432.958 361.869 432.846 362.186 432.846C362.513 432.846 362.783 432.958 362.998 433.182C363.213 433.397 363.32 433.658 363.32 433.966C363.32 434.283 363.213 434.554 362.998 434.778C362.783 435.002 362.513 435.114 362.186 435.114C361.869 435.114 361.603 435.002 361.388 434.778C361.173 434.554 361.066 434.283 361.066 433.966ZM361.066 439.02C361.066 438.712 361.173 438.446 361.388 438.222C361.603 437.998 361.869 437.886 362.186 437.886C362.513 437.886 362.783 437.998 362.998 438.222C363.213 438.437 363.32 438.703 363.32 439.02C363.32 439.347 363.213 439.617 362.998 439.832C362.783 440.047 362.513 440.154 362.186 440.154C361.869 440.154 361.603 440.047 361.388 439.832C361.173 439.617 361.066 439.347 361.066 439.02ZM369.461 433.966C369.461 433.658 369.568 433.397 369.783 433.182C369.997 432.958 370.263 432.846 370.581 432.846C370.907 432.846 371.178 432.958 371.393 433.182C371.607 433.397 371.715 433.658 371.715 433.966C371.715 434.283 371.607 434.554 371.393 434.778C371.178 435.002 370.907 435.114 370.581 435.114C370.263 435.114 369.997 435.002 369.783 434.778C369.568 434.554 369.461 434.283 369.461 433.966ZM369.461 439.02C369.461 438.712 369.568 438.446 369.783 438.222C369.997 437.998 370.263 437.886 370.581 437.886C370.907 437.886 371.178 437.998 371.393 438.222C371.607 438.437 371.715 438.703 371.715 439.02C371.715 439.347 371.607 439.617 371.393 439.832C371.178 440.047 370.907 440.154 370.581 440.154C370.263 440.154 369.997 440.047 369.783 439.832C369.568 439.617 369.461 439.347 369.461 439.02ZM390.45 439.622C390.198 439.79 389.89 439.921 389.526 440.014C389.171 440.107 388.816 440.154 388.462 440.154C387.687 440.154 387.08 439.953 386.642 439.552C386.203 439.141 385.984 438.605 385.984 437.942V433.546H384.29V432.622H385.984V430.956L387.16 430.816V432.622H389.722L389.568 433.546H387.16V437.928C387.16 438.348 387.272 438.661 387.496 438.866C387.72 439.071 388.079 439.174 388.574 439.174C389.078 439.174 389.549 439.057 389.988 438.824L390.45 439.622ZM395.778 429.178C396.039 429.178 396.249 429.257 396.408 429.416C396.567 429.565 396.646 429.761 396.646 430.004C396.646 430.247 396.567 430.447 396.408 430.606C396.249 430.755 396.039 430.83 395.778 430.83C395.526 430.83 395.321 430.755 395.162 430.606C395.013 430.447 394.938 430.247 394.938 430.004C394.938 429.761 395.013 429.565 395.162 429.416C395.321 429.257 395.526 429.178 395.778 429.178ZM396.716 439.062H398.788V440H393.272V439.062H395.54V433.56H393.342V432.622H396.716V439.062ZM407.239 439.622C406.987 439.79 406.679 439.921 406.315 440.014C405.96 440.107 405.605 440.154 405.251 440.154C404.476 440.154 403.869 439.953 403.431 439.552C402.992 439.141 402.773 438.605 402.773 437.942V433.546H401.079V432.622H402.773V430.956L403.949 430.816V432.622H406.511L406.357 433.546H403.949V437.928C403.949 438.348 404.061 438.661 404.285 438.866C404.509 439.071 404.868 439.174 405.363 439.174C405.867 439.174 406.338 439.057 406.777 438.824L407.239 439.622ZM412.651 438.18C412.651 438.843 413.057 439.174 413.869 439.174C414.252 439.174 414.663 439.09 415.101 438.922L415.409 439.776C414.943 440.028 414.359 440.154 413.659 440.154C412.997 440.154 412.465 439.972 412.063 439.608C411.671 439.244 411.475 438.749 411.475 438.124V430.592H409.207V429.654H412.651V438.18ZM419.1 436.724C419.128 437.536 419.338 438.147 419.73 438.558C420.131 438.969 420.635 439.174 421.242 439.174C421.606 439.174 421.937 439.123 422.236 439.02C422.544 438.908 422.87 438.74 423.216 438.516L423.762 439.3C423.416 439.571 423.02 439.781 422.572 439.93C422.133 440.079 421.69 440.154 421.242 440.154C420.178 440.154 419.347 439.809 418.75 439.118C418.162 438.418 417.868 437.485 417.868 436.318C417.868 435.581 417.998 434.923 418.26 434.344C418.521 433.756 418.894 433.299 419.38 432.972C419.865 432.636 420.43 432.468 421.074 432.468C422.007 432.468 422.74 432.795 423.272 433.448C423.813 434.092 424.084 434.974 424.084 436.094C424.084 436.309 424.074 436.519 424.056 436.724H419.1ZM421.088 433.434C420.518 433.434 420.056 433.639 419.702 434.05C419.347 434.451 419.146 435.044 419.1 435.828H422.936C422.926 435.053 422.758 434.461 422.432 434.05C422.105 433.639 421.657 433.434 421.088 433.434ZM436.617 433.966C436.617 433.658 436.724 433.397 436.939 433.182C437.153 432.958 437.419 432.846 437.737 432.846C438.063 432.846 438.334 432.958 438.549 433.182C438.763 433.397 438.871 433.658 438.871 433.966C438.871 434.283 438.763 434.554 438.549 434.778C438.334 435.002 438.063 435.114 437.737 435.114C437.419 435.114 437.153 435.002 436.939 434.778C436.724 434.554 436.617 434.283 436.617 433.966ZM436.617 439.02C436.617 438.712 436.724 438.446 436.939 438.222C437.153 437.998 437.419 437.886 437.737 437.886C438.063 437.886 438.334 437.998 438.549 438.222C438.763 438.437 438.871 438.703 438.871 439.02C438.871 439.347 438.763 439.617 438.549 439.832C438.334 440.047 438.063 440.154 437.737 440.154C437.419 440.154 437.153 440.047 436.939 439.832C436.724 439.617 436.617 439.347 436.617 439.02ZM445.011 433.966C445.011 433.658 445.119 433.397 445.333 433.182C445.548 432.958 445.814 432.846 446.131 432.846C446.458 432.846 446.729 432.958 446.943 433.182C447.158 433.397 447.265 433.658 447.265 433.966C447.265 434.283 447.158 434.554 446.943 434.778C446.729 435.002 446.458 435.114 446.131 435.114C445.814 435.114 445.548 435.002 445.333 434.778C445.119 434.554 445.011 434.283 445.011 433.966ZM445.011 439.02C445.011 438.712 445.119 438.446 445.333 438.222C445.548 437.998 445.814 437.886 446.131 437.886C446.458 437.886 446.729 437.998 446.943 438.222C447.158 438.437 447.265 438.703 447.265 439.02C447.265 439.347 447.158 439.617 446.943 439.832C446.729 440.047 446.458 440.154 446.131 440.154C445.814 440.154 445.548 440.047 445.333 439.832C445.119 439.617 445.011 439.347 445.011 439.02Z" fill="black"/>
<path d="M26.066 433.966C26.066 433.658 26.1733 433.397 26.388 433.182C26.6027 432.958 26.8687 432.846 27.186 432.846C27.5127 432.846 27.7833 432.958 27.998 433.182C28.2127 433.397 28.32 433.658 28.32 433.966C28.32 434.283 28.2127 434.554 27.998 434.778C27.7833 435.002 27.5127 435.114 27.186 435.114C26.8687 435.114 26.6027 435.002 26.388 434.778C26.1733 434.554 26.066 434.283 26.066 433.966ZM26.066 439.02C26.066 438.712 26.1733 438.446 26.388 438.222C26.6027 437.998 26.8687 437.886 27.186 437.886C27.5127 437.886 27.7833 437.998 27.998 438.222C28.2127 438.437 28.32 438.703 28.32 439.02C28.32 439.347 28.2127 439.617 27.998 439.832C27.7833 440.047 27.5127 440.154 27.186 440.154C26.8687 440.154 26.6027 440.047 26.388 439.832C26.1733 439.617 26.066 439.347 26.066 439.02ZM34.4605 433.966C34.4605 433.658 34.5679 433.397 34.7825 433.182C34.9972 432.958 35.2632 432.846 35.5805 432.846C35.9072 432.846 36.1779 432.958 36.3925 433.182C36.6072 433.397 36.7145 433.658 36.7145 433.966C36.7145 434.283 36.6072 434.554 36.3925 434.778C36.1779 435.002 35.9072 435.114 35.5805 435.114C35.2632 435.114 34.9972 435.002 34.7825 434.778C34.5679 434.554 34.4605 434.283 34.4605 433.966ZM34.4605 439.02C34.4605 438.712 34.5679 438.446 34.7825 438.222C34.9972 437.998 35.2632 437.886 35.5805 437.886C35.9072 437.886 36.1779 437.998 36.3925 438.222C36.6072 438.437 36.7145 438.703 36.7145 439.02C36.7145 439.347 36.6072 439.617 36.3925 439.832C36.1779 440.047 35.9072 440.154 35.5805 440.154C35.2632 440.154 34.9972 440.047 34.7825 439.832C34.5679 439.617 34.4605 439.347 34.4605 439.02ZM52.9296 439.146C53.5736 439.146 54.2129 438.931 54.8476 438.502L55.4076 439.272C55.0996 439.543 54.7169 439.757 54.2596 439.916C53.8023 440.075 53.3589 440.154 52.9296 440.154C51.8376 440.154 50.9836 439.813 50.3676 439.132C49.7609 438.441 49.4576 437.513 49.4576 436.346C49.4576 435.609 49.5929 434.946 49.8636 434.358C50.1436 433.77 50.5449 433.308 51.0676 432.972C51.5903 432.636 52.2109 432.468 52.9296 432.468C53.8816 432.468 54.7029 432.757 55.3936 433.336L54.8196 434.106C54.1756 433.677 53.5409 433.462 52.9156 433.462C52.2529 433.462 51.7209 433.709 51.3196 434.204C50.9276 434.689 50.7316 435.403 50.7316 436.346C50.7316 437.289 50.9276 437.993 51.3196 438.46C51.7209 438.917 52.2576 439.146 52.9296 439.146ZM60.7921 432.468C61.8095 432.468 62.5888 432.813 63.1301 433.504C63.6808 434.185 63.9561 435.119 63.9561 436.304C63.9561 437.461 63.6761 438.395 63.1161 439.104C62.5655 439.804 61.7861 440.154 60.7781 440.154C59.7608 440.154 58.9768 439.813 58.4261 439.132C57.8755 438.441 57.6001 437.503 57.6001 436.318C57.6001 435.151 57.8755 434.218 58.4261 433.518C58.9861 432.818 59.7748 432.468 60.7921 432.468ZM60.7921 433.434C60.1481 433.434 59.6675 433.672 59.3501 434.148C59.0328 434.624 58.8741 435.347 58.8741 436.318C58.8741 437.289 59.0281 438.012 59.3361 438.488C59.6535 438.955 60.1341 439.188 60.7781 439.188C61.4221 439.188 61.8981 438.955 62.2061 438.488C62.5235 438.012 62.6821 437.284 62.6821 436.304C62.6821 435.333 62.5235 434.615 62.2061 434.148C61.8981 433.672 61.4268 433.434 60.7921 433.434ZM66.3727 432.622H67.3807L67.4787 433.658C67.768 433.285 68.132 432.995 68.5707 432.79C69.0187 432.575 69.4667 432.468 69.9147 432.468C71.296 432.468 71.9867 433.196 71.9867 434.652V440H70.8107V435.52C70.8107 434.969 70.778 434.549 70.7127 434.26C70.6567 433.971 70.54 433.756 70.3627 433.616C70.1853 433.476 69.9147 433.406 69.5507 433.406C69.1493 433.406 68.7713 433.527 68.4167 433.77C68.062 434.013 67.7727 434.302 67.5487 434.638V440H66.3727V432.622ZM80.6332 439.622C80.3812 439.79 80.0732 439.921 79.7092 440.014C79.3545 440.107 78.9999 440.154 78.6452 440.154C77.8705 440.154 77.2639 439.953 76.8252 439.552C76.3865 439.141 76.1672 438.605 76.1672 437.942V433.546H74.4732V432.622H76.1672V430.956L77.3432 430.816V432.622H79.9052L79.7512 433.546H77.3432V437.928C77.3432 438.348 77.4552 438.661 77.6792 438.866C77.9032 439.071 78.2625 439.174 78.7572 439.174C79.2612 439.174 79.7325 439.057 80.1712 438.824L80.6332 439.622ZM84.0997 436.724C84.1277 437.536 84.3377 438.147 84.7297 438.558C85.1311 438.969 85.6351 439.174 86.2417 439.174C86.6057 439.174 86.9371 439.123 87.2357 439.02C87.5437 438.908 87.8704 438.74 88.2157 438.516L88.7617 439.3C88.4164 439.571 88.0197 439.781 87.5717 439.93C87.1331 440.079 86.6897 440.154 86.2417 440.154C85.1777 440.154 84.3471 439.809 83.7497 439.118C83.1617 438.418 82.8677 437.485 82.8677 436.318C82.8677 435.581 82.9984 434.923 83.2597 434.344C83.5211 433.756 83.8944 433.299 84.3797 432.972C84.8651 432.636 85.4297 432.468 86.0737 432.468C87.0071 432.468 87.7397 432.795 88.2717 433.448C88.8131 434.092 89.0837 434.974 89.0837 436.094C89.0837 436.309 89.0744 436.519 89.0557 436.724H84.0997ZM86.0877 433.434C85.5184 433.434 85.0564 433.639 84.7017 434.05C84.3471 434.451 84.1464 435.044 84.0997 435.828H87.9357C87.9264 435.053 87.7584 434.461 87.4317 434.05C87.1051 433.639 86.6571 433.434 86.0877 433.434ZM91.5563 432.622H92.5643L92.6623 433.658C92.9516 433.285 93.3156 432.995 93.7542 432.79C94.2023 432.575 94.6503 432.468 95.0983 432.468C96.4796 432.468 97.1703 433.196 97.1703 434.652V440H95.9943V435.52C95.9943 434.969 95.9616 434.549 95.8963 434.26C95.8403 433.971 95.7236 433.756 95.5463 433.616C95.3689 433.476 95.0983 433.406 94.7343 433.406C94.3329 433.406 93.9549 433.527 93.6003 433.77C93.2456 434.013 92.9563 434.302 92.7323 434.638V440H91.5563V432.622ZM105.817 439.622C105.565 439.79 105.257 439.921 104.893 440.014C104.538 440.107 104.183 440.154 103.829 440.154C103.054 440.154 102.447 439.953 102.009 439.552C101.57 439.141 101.351 438.605 101.351 437.942V433.546H99.6568V432.622H101.351V430.956L102.527 430.816V432.622H105.089L104.935 433.546H102.527V437.928C102.527 438.348 102.639 438.661 102.863 438.866C103.087 439.071 103.446 439.174 103.941 439.174C104.445 439.174 104.916 439.057 105.355 438.824L105.817 439.622ZM118.406 433.966C118.406 433.658 118.513 433.397 118.728 433.182C118.943 432.958 119.209 432.846 119.526 432.846C119.853 432.846 120.123 432.958 120.338 433.182C120.553 433.397 120.66 433.658 120.66 433.966C120.66 434.283 120.553 434.554 120.338 434.778C120.123 435.002 119.853 435.114 119.526 435.114C119.209 435.114 118.943 435.002 118.728 434.778C118.513 434.554 118.406 434.283 118.406 433.966ZM118.406 439.02C118.406 438.712 118.513 438.446 118.728 438.222C118.943 437.998 119.209 437.886 119.526 437.886C119.853 437.886 120.123 437.998 120.338 438.222C120.553 438.437 120.66 438.703 120.66 439.02C120.66 439.347 120.553 439.617 120.338 439.832C120.123 440.047 119.853 440.154 119.526 440.154C119.209 440.154 118.943 440.047 118.728 439.832C118.513 439.617 118.406 439.347 118.406 439.02ZM126.8 433.966C126.8 433.658 126.908 433.397 127.122 433.182C127.337 432.958 127.603 432.846 127.92 432.846C128.247 432.846 128.518 432.958 128.732 433.182C128.947 433.397 129.054 433.658 129.054 433.966C129.054 434.283 128.947 434.554 128.732 434.778C128.518 435.002 128.247 435.114 127.92 435.114C127.603 435.114 127.337 435.002 127.122 434.778C126.908 434.554 126.8 434.283 126.8 433.966ZM126.8 439.02C126.8 438.712 126.908 438.446 127.122 438.222C127.337 437.998 127.603 437.886 127.92 437.886C128.247 437.886 128.518 437.998 128.732 438.222C128.947 438.437 129.054 438.703 129.054 439.02C129.054 439.347 128.947 439.617 128.732 439.832C128.518 440.047 128.247 440.154 127.92 440.154C127.603 440.154 127.337 440.047 127.122 439.832C126.908 439.617 126.8 439.347 126.8 439.02Z" fill="black"/>
</svg>
