<svg width="509" height="347" viewBox="0 0 509 347" fill="none" xmlns="http://www.w3.org/2000/svg">
<rect width="509" height="346.137" fill="white"/>
<rect x="14" y="18" width="218" height="309" fill="#EEEEEE"/>
<rect x="249" y="18" width="250" height="309" fill="#EEEEEE"/>
<path d="M26.066 39.966C26.066 39.658 26.1733 39.3967 26.388 39.182C26.6027 38.958 26.8687 38.846 27.186 38.846C27.5127 38.846 27.7833 38.958 27.998 39.182C28.2127 39.3967 28.32 39.658 28.32 39.966C28.32 40.2833 28.2127 40.554 27.998 40.778C27.7833 41.002 27.5127 41.114 27.186 41.114C26.8687 41.114 26.6027 41.002 26.388 40.778C26.1733 40.554 26.066 40.2833 26.066 39.966ZM26.066 45.02C26.066 44.712 26.1733 44.446 26.388 44.222C26.6027 43.998 26.8687 43.886 27.186 43.886C27.5127 43.886 27.7833 43.998 27.998 44.222C28.2127 44.4367 28.32 44.7027 28.32 45.02C28.32 45.3467 28.2127 45.6173 27.998 45.832C27.7833 46.0467 27.5127 46.154 27.186 46.154C26.8687 46.154 26.6027 46.0467 26.388 45.832C26.1733 45.6173 26.066 45.3467 26.066 45.02ZM34.4605 39.966C34.4605 39.658 34.5679 39.3967 34.7825 39.182C34.9972 38.958 35.2632 38.846 35.5805 38.846C35.9072 38.846 36.1779 38.958 36.3925 39.182C36.6072 39.3967 36.7145 39.658 36.7145 39.966C36.7145 40.2833 36.6072 40.554 36.3925 40.778C36.1779 41.002 35.9072 41.114 35.5805 41.114C35.2632 41.114 34.9972 41.002 34.7825 40.778C34.5679 40.554 34.4605 40.2833 34.4605 39.966ZM34.4605 45.02C34.4605 44.712 34.5679 44.446 34.7825 44.222C34.9972 43.998 35.2632 43.886 35.5805 43.886C35.9072 43.886 36.1779 43.998 36.3925 44.222C36.6072 44.4367 36.7145 44.7027 36.7145 45.02C36.7145 45.3467 36.6072 45.6173 36.3925 45.832C36.1779 46.0467 35.9072 46.154 35.5805 46.154C35.2632 46.154 34.9972 46.0467 34.7825 45.832C34.5679 45.6173 34.4605 45.3467 34.4605 45.02ZM55.4496 45.622C55.1976 45.79 54.8896 45.9207 54.5256 46.014C54.1709 46.1073 53.8163 46.154 53.4616 46.154C52.6869 46.154 52.0803 45.9533 51.6416 45.552C51.2029 45.1413 50.9836 44.6047 50.9836 43.942V39.546H49.2896V38.622H50.9836V36.956L52.1596 36.816V38.622H54.7216L54.5676 39.546H52.1596V43.928C52.1596 44.348 52.2716 44.6607 52.4956 44.866C52.7196 45.0713 53.0789 45.174 53.5736 45.174C54.0776 45.174 54.5489 45.0573 54.9876 44.824L55.4496 45.622ZM60.7781 35.178C61.0395 35.178 61.2495 35.2573 61.4081 35.416C61.5668 35.5653 61.6461 35.7613 61.6461 36.004C61.6461 36.2467 61.5668 36.4473 61.4081 36.606C61.2495 36.7553 61.0395 36.83 60.7781 36.83C60.5261 36.83 60.3208 36.7553 60.1621 36.606C60.0128 36.4473 59.9381 36.2467 59.9381 36.004C59.9381 35.7613 60.0128 35.5653 60.1621 35.416C60.3208 35.2573 60.5261 35.178 60.7781 35.178ZM61.7161 45.062H63.7881V46H58.2721V45.062H60.5401V39.56H58.3421V38.622H61.7161V45.062ZM72.2387 45.622C71.9867 45.79 71.6787 45.9207 71.3147 46.014C70.96 46.1073 70.6053 46.154 70.2507 46.154C69.476 46.154 68.8693 45.9533 68.4307 45.552C67.992 45.1413 67.7727 44.6047 67.7727 43.942V39.546H66.0787V38.622H67.7727V36.956L68.9487 36.816V38.622H71.5107L71.3567 39.546H68.9487V43.928C68.9487 44.348 69.0607 44.6607 69.2847 44.866C69.5087 45.0713 69.868 45.174 70.3627 45.174C70.8667 45.174 71.338 45.0573 71.7767 44.824L72.2387 45.622ZM77.6512 44.18C77.6512 44.8427 78.0572 45.174 78.8692 45.174C79.2519 45.174 79.6625 45.09 80.1012 44.922L80.4092 45.776C79.9425 46.028 79.3592 46.154 78.6592 46.154C77.9965 46.154 77.4645 45.972 77.0632 45.608C76.6712 45.244 76.4752 44.7493 76.4752 44.124V36.592H74.2072V35.654H77.6512V44.18ZM84.0997 42.724C84.1277 43.536 84.3377 44.1473 84.7297 44.558C85.1311 44.9687 85.6351 45.174 86.2417 45.174C86.6057 45.174 86.9371 45.1227 87.2357 45.02C87.5437 44.908 87.8704 44.74 88.2157 44.516L88.7617 45.3C88.4164 45.5707 88.0197 45.7807 87.5717 45.93C87.1331 46.0793 86.6897 46.154 86.2417 46.154C85.1777 46.154 84.3471 45.8087 83.7497 45.118C83.1617 44.418 82.8677 43.4847 82.8677 42.318C82.8677 41.5807 82.9984 40.9227 83.2597 40.344C83.5211 39.756 83.8944 39.2987 84.3797 38.972C84.8651 38.636 85.4297 38.468 86.0737 38.468C87.0071 38.468 87.7397 38.7947 88.2717 39.448C88.8131 40.092 89.0837 40.974 89.0837 42.094C89.0837 42.3087 89.0744 42.5187 89.0557 42.724H84.0997ZM86.0877 39.434C85.5184 39.434 85.0564 39.6393 84.7017 40.05C84.3471 40.4513 84.1464 41.044 84.0997 41.828H87.9357C87.9264 41.0533 87.7584 40.4607 87.4317 40.05C87.1051 39.6393 86.6571 39.434 86.0877 39.434ZM101.617 39.966C101.617 39.658 101.724 39.3967 101.939 39.182C102.153 38.958 102.419 38.846 102.737 38.846C103.063 38.846 103.334 38.958 103.549 39.182C103.763 39.3967 103.871 39.658 103.871 39.966C103.871 40.2833 103.763 40.554 103.549 40.778C103.334 41.002 103.063 41.114 102.737 41.114C102.419 41.114 102.153 41.002 101.939 40.778C101.724 40.554 101.617 40.2833 101.617 39.966ZM101.617 45.02C101.617 44.712 101.724 44.446 101.939 44.222C102.153 43.998 102.419 43.886 102.737 43.886C103.063 43.886 103.334 43.998 103.549 44.222C103.763 44.4367 103.871 44.7027 103.871 45.02C103.871 45.3467 103.763 45.6173 103.549 45.832C103.334 46.0467 103.063 46.154 102.737 46.154C102.419 46.154 102.153 46.0467 101.939 45.832C101.724 45.6173 101.617 45.3467 101.617 45.02ZM110.011 39.966C110.011 39.658 110.119 39.3967 110.333 39.182C110.548 38.958 110.814 38.846 111.131 38.846C111.458 38.846 111.729 38.958 111.943 39.182C112.158 39.3967 112.265 39.658 112.265 39.966C112.265 40.2833 112.158 40.554 111.943 40.778C111.729 41.002 111.458 41.114 111.131 41.114C110.814 41.114 110.548 41.002 110.333 40.778C110.119 40.554 110.011 40.2833 110.011 39.966ZM110.011 45.02C110.011 44.712 110.119 44.446 110.333 44.222C110.548 43.998 110.814 43.886 111.131 43.886C111.458 43.886 111.729 43.998 111.943 44.222C112.158 44.4367 112.265 44.7027 112.265 45.02C112.265 45.3467 112.158 45.6173 111.943 45.832C111.729 46.0467 111.458 46.154 111.131 46.154C110.814 46.154 110.548 46.0467 110.333 45.832C110.119 45.6173 110.011 45.3467 110.011 45.02Z" fill="black"/>
<path d="M268.066 39.966C268.066 39.658 268.173 39.3967 268.388 39.182C268.603 38.958 268.869 38.846 269.186 38.846C269.513 38.846 269.783 38.958 269.998 39.182C270.213 39.3967 270.32 39.658 270.32 39.966C270.32 40.2833 270.213 40.554 269.998 40.778C269.783 41.002 269.513 41.114 269.186 41.114C268.869 41.114 268.603 41.002 268.388 40.778C268.173 40.554 268.066 40.2833 268.066 39.966ZM268.066 45.02C268.066 44.712 268.173 44.446 268.388 44.222C268.603 43.998 268.869 43.886 269.186 43.886C269.513 43.886 269.783 43.998 269.998 44.222C270.213 44.4367 270.32 44.7027 270.32 45.02C270.32 45.3467 270.213 45.6173 269.998 45.832C269.783 46.0467 269.513 46.154 269.186 46.154C268.869 46.154 268.603 46.0467 268.388 45.832C268.173 45.6173 268.066 45.3467 268.066 45.02ZM276.461 39.966C276.461 39.658 276.568 39.3967 276.783 39.182C276.997 38.958 277.263 38.846 277.581 38.846C277.907 38.846 278.178 38.958 278.393 39.182C278.607 39.3967 278.715 39.658 278.715 39.966C278.715 40.2833 278.607 40.554 278.393 40.778C278.178 41.002 277.907 41.114 277.581 41.114C277.263 41.114 276.997 41.002 276.783 40.778C276.568 40.554 276.461 40.2833 276.461 39.966ZM276.461 45.02C276.461 44.712 276.568 44.446 276.783 44.222C276.997 43.998 277.263 43.886 277.581 43.886C277.907 43.886 278.178 43.998 278.393 44.222C278.607 44.4367 278.715 44.7027 278.715 45.02C278.715 45.3467 278.607 45.6173 278.393 45.832C278.178 46.0467 277.907 46.154 277.581 46.154C277.263 46.154 276.997 46.0467 276.783 45.832C276.568 45.6173 276.461 45.3467 276.461 45.02ZM294.93 45.146C295.574 45.146 296.213 44.9313 296.848 44.502L297.408 45.272C297.1 45.5427 296.717 45.7573 296.26 45.916C295.802 46.0747 295.359 46.154 294.93 46.154C293.838 46.154 292.984 45.8133 292.368 45.132C291.761 44.4413 291.458 43.5127 291.458 42.346C291.458 41.6087 291.593 40.946 291.864 40.358C292.144 39.77 292.545 39.308 293.068 38.972C293.59 38.636 294.211 38.468 294.93 38.468C295.882 38.468 296.703 38.7573 297.394 39.336L296.82 40.106C296.176 39.6767 295.541 39.462 294.916 39.462C294.253 39.462 293.721 39.7093 293.32 40.204C292.928 40.6893 292.732 41.4033 292.732 42.346C292.732 43.2887 292.928 43.9933 293.32 44.46C293.721 44.9173 294.258 45.146 294.93 45.146ZM302.792 38.468C303.809 38.468 304.589 38.8133 305.13 39.504C305.681 40.1853 305.956 41.1187 305.956 42.304C305.956 43.4613 305.676 44.3947 305.116 45.104C304.565 45.804 303.786 46.154 302.778 46.154C301.761 46.154 300.977 45.8133 300.426 45.132C299.875 44.4413 299.6 43.5033 299.6 42.318C299.6 41.1513 299.875 40.218 300.426 39.518C300.986 38.818 301.775 38.468 302.792 38.468ZM302.792 39.434C302.148 39.434 301.667 39.672 301.35 40.148C301.033 40.624 300.874 41.3473 300.874 42.318C300.874 43.2887 301.028 44.012 301.336 44.488C301.653 44.9547 302.134 45.188 302.778 45.188C303.422 45.188 303.898 44.9547 304.206 44.488C304.523 44.012 304.682 43.284 304.682 42.304C304.682 41.3333 304.523 40.6147 304.206 40.148C303.898 39.672 303.427 39.434 302.792 39.434ZM308.373 38.622H309.381L309.479 39.658C309.768 39.2847 310.132 38.9953 310.571 38.79C311.019 38.5753 311.467 38.468 311.915 38.468C313.296 38.468 313.987 39.196 313.987 40.652V46H312.811V41.52C312.811 40.9693 312.778 40.5493 312.713 40.26C312.657 39.9707 312.54 39.756 312.363 39.616C312.185 39.476 311.915 39.406 311.551 39.406C311.149 39.406 310.771 39.5273 310.417 39.77C310.062 40.0127 309.773 40.302 309.549 40.638V46H308.373V38.622ZM322.633 45.622C322.381 45.79 322.073 45.9207 321.709 46.014C321.355 46.1073 321 46.154 320.645 46.154C319.871 46.154 319.264 45.9533 318.825 45.552C318.387 45.1413 318.167 44.6047 318.167 43.942V39.546H316.473V38.622H318.167V36.956L319.343 36.816V38.622H321.905L321.751 39.546H319.343V43.928C319.343 44.348 319.455 44.6607 319.679 44.866C319.903 45.0713 320.263 45.174 320.757 45.174C321.261 45.174 321.733 45.0573 322.171 44.824L322.633 45.622ZM326.1 42.724C326.128 43.536 326.338 44.1473 326.73 44.558C327.131 44.9687 327.635 45.174 328.242 45.174C328.606 45.174 328.937 45.1227 329.236 45.02C329.544 44.908 329.87 44.74 330.216 44.516L330.762 45.3C330.416 45.5707 330.02 45.7807 329.572 45.93C329.133 46.0793 328.69 46.154 328.242 46.154C327.178 46.154 326.347 45.8087 325.75 45.118C325.162 44.418 324.868 43.4847 324.868 42.318C324.868 41.5807 324.998 40.9227 325.26 40.344C325.521 39.756 325.894 39.2987 326.38 38.972C326.865 38.636 327.43 38.468 328.074 38.468C329.007 38.468 329.74 38.7947 330.272 39.448C330.813 40.092 331.084 40.974 331.084 42.094C331.084 42.3087 331.074 42.5187 331.056 42.724H326.1ZM328.088 39.434C327.518 39.434 327.056 39.6393 326.702 40.05C326.347 40.4513 326.146 41.044 326.1 41.828H329.936C329.926 41.0533 329.758 40.4607 329.432 40.05C329.105 39.6393 328.657 39.434 328.088 39.434ZM333.556 38.622H334.564L334.662 39.658C334.952 39.2847 335.316 38.9953 335.754 38.79C336.202 38.5753 336.65 38.468 337.098 38.468C338.48 38.468 339.17 39.196 339.17 40.652V46H337.994V41.52C337.994 40.9693 337.962 40.5493 337.896 40.26C337.84 39.9707 337.724 39.756 337.546 39.616C337.369 39.476 337.098 39.406 336.734 39.406C336.333 39.406 335.955 39.5273 335.6 39.77C335.246 40.0127 334.956 40.302 334.732 40.638V46H333.556V38.622ZM347.817 45.622C347.565 45.79 347.257 45.9207 346.893 46.014C346.538 46.1073 346.183 46.154 345.829 46.154C345.054 46.154 344.447 45.9533 344.009 45.552C343.57 45.1413 343.351 44.6047 343.351 43.942V39.546H341.657V38.622H343.351V36.956L344.527 36.816V38.622H347.089L346.935 39.546H344.527V43.928C344.527 44.348 344.639 44.6607 344.863 44.866C345.087 45.0713 345.446 45.174 345.941 45.174C346.445 45.174 346.916 45.0573 347.355 44.824L347.817 45.622ZM360.406 39.966C360.406 39.658 360.513 39.3967 360.728 39.182C360.943 38.958 361.209 38.846 361.526 38.846C361.853 38.846 362.123 38.958 362.338 39.182C362.553 39.3967 362.66 39.658 362.66 39.966C362.66 40.2833 362.553 40.554 362.338 40.778C362.123 41.002 361.853 41.114 361.526 41.114C361.209 41.114 360.943 41.002 360.728 40.778C360.513 40.554 360.406 40.2833 360.406 39.966ZM360.406 45.02C360.406 44.712 360.513 44.446 360.728 44.222C360.943 43.998 361.209 43.886 361.526 43.886C361.853 43.886 362.123 43.998 362.338 44.222C362.553 44.4367 362.66 44.7027 362.66 45.02C362.66 45.3467 362.553 45.6173 362.338 45.832C362.123 46.0467 361.853 46.154 361.526 46.154C361.209 46.154 360.943 46.0467 360.728 45.832C360.513 45.6173 360.406 45.3467 360.406 45.02ZM368.8 39.966C368.8 39.658 368.908 39.3967 369.122 39.182C369.337 38.958 369.603 38.846 369.92 38.846C370.247 38.846 370.518 38.958 370.732 39.182C370.947 39.3967 371.054 39.658 371.054 39.966C371.054 40.2833 370.947 40.554 370.732 40.778C370.518 41.002 370.247 41.114 369.92 41.114C369.603 41.114 369.337 41.002 369.122 40.778C368.908 40.554 368.8 40.2833 368.8 39.966ZM368.8 45.02C368.8 44.712 368.908 44.446 369.122 44.222C369.337 43.998 369.603 43.886 369.92 43.886C370.247 43.886 370.518 43.998 370.732 44.222C370.947 44.4367 371.054 44.7027 371.054 45.02C371.054 45.3467 370.947 45.6173 370.732 45.832C370.518 46.0467 370.247 46.154 369.92 46.154C369.603 46.154 369.337 46.0467 369.122 45.832C368.908 45.6173 368.8 45.3467 368.8 45.02Z" fill="black"/>
</svg>
