<svg width="509" height="347" viewBox="0 0 509 347" fill="none" xmlns="http://www.w3.org/2000/svg">
<rect width="509" height="346.137" fill="white"/>
<rect x="15" y="18" width="32" height="309" fill="#E7D9D9"/>
<rect x="261" y="18" width="32" height="309" fill="#E7D9D9"/>
<rect x="138" y="18" width="32" height="309" fill="#E7D9D9"/>
<rect x="384" y="18" width="32" height="309" fill="#E7D9D9"/>
<rect x="55" y="18" width="32" height="309" fill="#E7D9D9"/>
<rect x="301" y="18" width="32" height="309" fill="#E7D9D9"/>
<rect x="179" y="18" width="32" height="309" fill="#E7D9D9"/>
<rect x="425" y="18" width="32" height="309" fill="#E7D9D9"/>
<rect x="96" y="18" width="32" height="309" fill="#E7D9D9"/>
<rect x="342" y="18" width="32" height="309" fill="#E7D9D9"/>
<rect x="219" y="18" width="32" height="309" fill="#E7D9D9"/>
<rect x="465" y="18" width="32" height="309" fill="#E7D9D9"/>
<path d="M32.238 36.048V37H26.68V36.048H29.046V28.642L26.848 29.972L26.33 29.146L29.2 27.354H30.236V36.048H32.238Z" fill="black"/>
<path d="M69.766 27.2C70.354 27.2 70.8673 27.3167 71.306 27.55C71.754 27.7833 72.0947 28.1053 72.328 28.516C72.5613 28.9173 72.678 29.3747 72.678 29.888C72.678 30.4853 72.538 31.064 72.258 31.624C71.9873 32.184 71.5487 32.8 70.942 33.472C70.3353 34.1347 69.4767 34.9747 68.366 35.992H72.902L72.762 37H67.022V36.048C68.282 34.844 69.2153 33.9013 69.822 33.22C70.438 32.5387 70.8627 31.9553 71.096 31.47C71.3293 30.9847 71.446 30.4713 71.446 29.93C71.446 29.3887 71.292 28.964 70.984 28.656C70.676 28.348 70.2513 28.194 69.71 28.194C69.2527 28.194 68.87 28.2733 68.562 28.432C68.2633 28.5813 67.9553 28.8427 67.638 29.216L66.826 28.586C67.2087 28.11 67.6333 27.76 68.1 27.536C68.576 27.312 69.1313 27.2 69.766 27.2Z" fill="black"/>
<path d="M110.766 27.2C111.354 27.2 111.872 27.312 112.32 27.536C112.768 27.7507 113.113 28.0447 113.356 28.418C113.599 28.782 113.72 29.1833 113.72 29.622C113.72 30.182 113.538 30.672 113.174 31.092C112.81 31.5027 112.367 31.7593 111.844 31.862C112.451 31.9087 112.964 32.1373 113.384 32.548C113.813 32.9587 114.028 33.5187 114.028 34.228C114.028 34.7787 113.888 35.278 113.608 35.726C113.328 36.174 112.931 36.524 112.418 36.776C111.914 37.028 111.335 37.154 110.682 37.154C110.113 37.154 109.562 37.0467 109.03 36.832C108.507 36.6173 108.073 36.3 107.728 35.88L108.512 35.236C108.773 35.544 109.091 35.782 109.464 35.95C109.847 36.1087 110.243 36.188 110.654 36.188C111.326 36.188 111.849 36.0153 112.222 35.67C112.605 35.3153 112.796 34.8347 112.796 34.228C112.796 33.0053 112.129 32.394 110.794 32.394H109.996L110.136 31.456H110.71C111.214 31.456 111.643 31.316 111.998 31.036C112.353 30.7467 112.53 30.3267 112.53 29.776C112.53 29.2627 112.357 28.866 112.012 28.586C111.676 28.2967 111.242 28.152 110.71 28.152C110.309 28.152 109.949 28.222 109.632 28.362C109.324 28.502 109.002 28.726 108.666 29.034L108.022 28.32C108.806 27.5733 109.721 27.2 110.766 27.2Z" fill="black"/>
<path d="M156.392 34.662H155.146V37H154.012V34.662H150.008V33.794L152.836 27.2L153.816 27.62L151.254 33.71H154.026L154.124 30.98H155.146V33.71H156.392V34.662Z" fill="black"/>
<path d="M196.65 28.306H192.842V31.344C193.113 31.1853 193.379 31.078 193.64 31.022C193.911 30.9567 194.195 30.924 194.494 30.924C195.297 30.924 195.936 31.19 196.412 31.722C196.897 32.254 197.14 32.996 197.14 33.948C197.14 34.5827 197.005 35.1427 196.734 35.628C196.473 36.1133 196.095 36.4913 195.6 36.762C195.105 37.0233 194.531 37.154 193.878 37.154C192.805 37.154 191.871 36.7713 191.078 36.006L191.806 35.292C192.394 35.8893 193.085 36.188 193.878 36.188C194.522 36.188 195.021 35.992 195.376 35.6C195.731 35.208 195.908 34.6433 195.908 33.906C195.908 33.178 195.749 32.6553 195.432 32.338C195.115 32.0113 194.69 31.848 194.158 31.848C193.906 31.848 193.677 31.8713 193.472 31.918C193.267 31.9647 192.996 32.0487 192.66 32.17H191.708V27.354H196.818L196.65 28.306Z" fill="black"/>
<path d="M234.62 30.728C235.124 30.728 235.581 30.84 235.992 31.064C236.412 31.288 236.743 31.6287 236.986 32.086C237.229 32.534 237.35 33.0893 237.35 33.752C237.35 34.4427 237.215 35.0493 236.944 35.572C236.673 36.0853 236.309 36.4773 235.852 36.748C235.395 37.0187 234.881 37.154 234.312 37.154C233.192 37.154 232.375 36.748 231.862 35.936C231.358 35.124 231.106 33.962 231.106 32.45C231.106 31.386 231.246 30.462 231.526 29.678C231.815 28.8847 232.226 28.2733 232.758 27.844C233.299 27.4147 233.943 27.2 234.69 27.2C235.39 27.2 236.029 27.3913 236.608 27.774L236.146 28.558C235.689 28.2873 235.199 28.152 234.676 28.152C233.939 28.152 233.36 28.4973 232.94 29.188C232.529 29.8787 232.315 30.8213 232.296 32.016C232.595 31.568 232.935 31.2413 233.318 31.036C233.701 30.8307 234.135 30.728 234.62 30.728ZM234.312 36.202C234.909 36.202 235.362 35.992 235.67 35.572C235.987 35.1427 236.146 34.55 236.146 33.794C236.146 32.3847 235.577 31.68 234.438 31.68C233.99 31.68 233.584 31.806 233.22 32.058C232.865 32.3007 232.562 32.632 232.31 33.052C232.329 34.144 232.497 34.942 232.814 35.446C233.131 35.95 233.631 36.202 234.312 36.202Z" fill="black"/>
<path d="M274.128 36.804L277.88 28.334H273.358V27.354H279.07V28.264L275.22 37.126L274.128 36.804Z" fill="black"/>
<path d="M319.084 29.65C319.084 30.1073 318.944 30.5087 318.664 30.854C318.384 31.1993 317.969 31.526 317.418 31.834C318.071 32.1047 318.58 32.4593 318.944 32.898C319.308 33.3367 319.49 33.8407 319.49 34.41C319.49 34.9327 319.355 35.404 319.084 35.824C318.813 36.244 318.426 36.5707 317.922 36.804C317.418 37.0373 316.835 37.154 316.172 37.154C315.5 37.154 314.917 37.0373 314.422 36.804C313.927 36.5613 313.549 36.2347 313.288 35.824C313.036 35.4133 312.91 34.9513 312.91 34.438C312.91 33.3647 313.559 32.5247 314.856 31.918C314.324 31.666 313.932 31.372 313.68 31.036C313.437 30.6907 313.316 30.252 313.316 29.72C313.316 29.1693 313.461 28.7027 313.75 28.32C314.039 27.9373 314.403 27.6573 314.842 27.48C315.29 27.2933 315.743 27.2 316.2 27.2C316.695 27.2 317.161 27.2887 317.6 27.466C318.039 27.6433 318.393 27.9187 318.664 28.292C318.944 28.656 319.084 29.1087 319.084 29.65ZM314.464 29.734C314.464 30.0887 314.543 30.3733 314.702 30.588C314.87 30.7933 315.089 30.9613 315.36 31.092C315.631 31.2133 316.041 31.3627 316.592 31.54C317.068 31.26 317.409 30.9893 317.614 30.728C317.829 30.4573 317.936 30.1167 317.936 29.706C317.936 29.2207 317.782 28.838 317.474 28.558C317.175 28.2687 316.751 28.124 316.2 28.124C315.649 28.124 315.22 28.264 314.912 28.544C314.613 28.824 314.464 29.2207 314.464 29.734ZM318.244 34.438C318.244 34.0273 318.141 33.696 317.936 33.444C317.731 33.1827 317.46 32.9773 317.124 32.828C316.797 32.6787 316.307 32.4873 315.654 32.254C314.655 32.7207 314.156 33.4487 314.156 34.438C314.156 34.9887 314.329 35.4227 314.674 35.74C315.019 36.048 315.519 36.202 316.172 36.202C316.825 36.202 317.334 36.0387 317.698 35.712C318.062 35.3853 318.244 34.9607 318.244 34.438Z" fill="black"/>
<path d="M357.046 27.214C358.101 27.214 358.889 27.5407 359.412 28.194C359.935 28.8473 360.196 29.762 360.196 30.938C360.196 32.2913 360.019 33.3693 359.664 34.172C359.319 34.9747 358.782 35.6093 358.054 36.076C357.335 36.5333 356.337 36.9393 355.058 37.294L354.778 36.398C356.15 36.034 357.186 35.5347 357.886 34.9C358.586 34.2653 358.941 33.3927 358.95 32.282C358.707 32.6273 358.39 32.912 357.998 33.136C357.615 33.36 357.172 33.472 356.668 33.472C356.136 33.472 355.66 33.346 355.24 33.094C354.829 32.842 354.507 32.4873 354.274 32.03C354.041 31.5633 353.924 31.0173 353.924 30.392C353.924 29.72 354.059 29.146 354.33 28.67C354.61 28.194 354.983 27.8347 355.45 27.592C355.926 27.34 356.458 27.214 357.046 27.214ZM356.864 32.52C357.312 32.52 357.709 32.408 358.054 32.184C358.399 31.96 358.707 31.6427 358.978 31.232C358.997 30.112 358.852 29.3233 358.544 28.866C358.236 28.3993 357.737 28.166 357.046 28.166C356.421 28.166 355.949 28.3573 355.632 28.74C355.315 29.1227 355.156 29.6873 355.156 30.434C355.156 31.1433 355.301 31.6707 355.59 32.016C355.889 32.352 356.313 32.52 356.864 32.52Z" fill="black"/>
<path d="M398.238 36.048V37H392.68V36.048H395.046V28.642L392.848 29.972L392.33 29.146L395.2 27.354H396.236V36.048H398.238ZM403.595 27.2C404.621 27.2 405.401 27.6293 405.933 28.488C406.474 29.3373 406.745 30.5647 406.745 32.17C406.745 33.7847 406.474 35.0213 405.933 35.88C405.401 36.7293 404.621 37.154 403.595 37.154C402.568 37.154 401.784 36.7293 401.243 35.88C400.711 35.0213 400.445 33.7847 400.445 32.17C400.445 30.5647 400.711 29.3373 401.243 28.488C401.784 27.6293 402.568 27.2 403.595 27.2ZM403.595 28.152C402.316 28.152 401.677 29.4913 401.677 32.17C401.677 34.858 402.316 36.202 403.595 36.202C404.873 36.202 405.513 34.858 405.513 32.17C405.513 29.4913 404.873 28.152 403.595 28.152ZM403.595 31.26C403.856 31.26 404.075 31.3487 404.253 31.526C404.43 31.7033 404.519 31.918 404.519 32.17C404.519 32.4313 404.43 32.6507 404.253 32.828C404.075 33.0053 403.856 33.094 403.595 33.094C403.333 33.094 403.114 33.0053 402.937 32.828C402.769 32.6507 402.685 32.4313 402.685 32.17C402.685 31.918 402.769 31.7033 402.937 31.526C403.114 31.3487 403.333 31.26 403.595 31.26Z" fill="black"/>
<path d="M439.238 36.048V37H433.68V36.048H436.046V28.642L433.848 29.972L433.33 29.146L436.2 27.354H437.236V36.048H439.238ZM447.633 36.048V37H442.075V36.048H444.441V28.642L442.243 29.972L441.725 29.146L444.595 27.354H445.631V36.048H447.633Z" fill="black"/>
<path d="M480.238 36.048V37H474.68V36.048H477.046V28.642L474.848 29.972L474.33 29.146L477.2 27.354H478.236V36.048H480.238ZM485.161 27.2C485.749 27.2 486.262 27.3167 486.701 27.55C487.149 27.7833 487.489 28.1053 487.723 28.516C487.956 28.9173 488.073 29.3747 488.073 29.888C488.073 30.4853 487.933 31.064 487.653 31.624C487.382 32.184 486.943 32.8 486.337 33.472C485.73 34.1347 484.871 34.9747 483.761 35.992H488.297L488.157 37H482.417V36.048C483.677 34.844 484.61 33.9013 485.217 33.22C485.833 32.5387 486.257 31.9553 486.491 31.47C486.724 30.9847 486.841 30.4713 486.841 29.93C486.841 29.3887 486.687 28.964 486.379 28.656C486.071 28.348 485.646 28.194 485.105 28.194C484.647 28.194 484.265 28.2733 483.957 28.432C483.658 28.5813 483.35 28.8427 483.033 29.216L482.221 28.586C482.603 28.11 483.028 27.76 483.495 27.536C483.971 27.312 484.526 27.2 485.161 27.2Z" fill="black"/>
</svg>
