<svg width="509" height="347" viewBox="0 0 509 347" fill="none" xmlns="http://www.w3.org/2000/svg">
<rect width="509" height="346.137" fill="white"/>
<rect x="14" y="18" width="118" height="309" fill="#EEEEEE"/>
<rect x="147" y="18" width="352" height="309" fill="#EEEEEE"/>
<path d="M26.066 39.966C26.066 39.658 26.1733 39.3967 26.388 39.182C26.6027 38.958 26.8687 38.846 27.186 38.846C27.5127 38.846 27.7833 38.958 27.998 39.182C28.2127 39.3967 28.32 39.658 28.32 39.966C28.32 40.2833 28.2127 40.554 27.998 40.778C27.7833 41.002 27.5127 41.114 27.186 41.114C26.8687 41.114 26.6027 41.002 26.388 40.778C26.1733 40.554 26.066 40.2833 26.066 39.966ZM26.066 45.02C26.066 44.712 26.1733 44.446 26.388 44.222C26.6027 43.998 26.8687 43.886 27.186 43.886C27.5127 43.886 27.7833 43.998 27.998 44.222C28.2127 44.4367 28.32 44.7027 28.32 45.02C28.32 45.3467 28.2127 45.6173 27.998 45.832C27.7833 46.0467 27.5127 46.154 27.186 46.154C26.8687 46.154 26.6027 46.0467 26.388 45.832C26.1733 45.6173 26.066 45.3467 26.066 45.02ZM34.4605 39.966C34.4605 39.658 34.5679 39.3967 34.7825 39.182C34.9972 38.958 35.2632 38.846 35.5805 38.846C35.9072 38.846 36.1779 38.958 36.3925 39.182C36.6072 39.3967 36.7145 39.658 36.7145 39.966C36.7145 40.2833 36.6072 40.554 36.3925 40.778C36.1779 41.002 35.9072 41.114 35.5805 41.114C35.2632 41.114 34.9972 41.002 34.7825 40.778C34.5679 40.554 34.4605 40.2833 34.4605 39.966ZM34.4605 45.02C34.4605 44.712 34.5679 44.446 34.7825 44.222C34.9972 43.998 35.2632 43.886 35.5805 43.886C35.9072 43.886 36.1779 43.998 36.3925 44.222C36.6072 44.4367 36.7145 44.7027 36.7145 45.02C36.7145 45.3467 36.6072 45.6173 36.3925 45.832C36.1779 46.0467 35.9072 46.154 35.5805 46.154C35.2632 46.154 34.9972 46.0467 34.7825 45.832C34.5679 45.6173 34.4605 45.3467 34.4605 45.02ZM55.4496 45.622C55.1976 45.79 54.8896 45.9207 54.5256 46.014C54.1709 46.1073 53.8163 46.154 53.4616 46.154C52.6869 46.154 52.0803 45.9533 51.6416 45.552C51.2029 45.1413 50.9836 44.6047 50.9836 43.942V39.546H49.2896V38.622H50.9836V36.956L52.1596 36.816V38.622H54.7216L54.5676 39.546H52.1596V43.928C52.1596 44.348 52.2716 44.6607 52.4956 44.866C52.7196 45.0713 53.0789 45.174 53.5736 45.174C54.0776 45.174 54.5489 45.0573 54.9876 44.824L55.4496 45.622ZM60.7781 35.178C61.0395 35.178 61.2495 35.2573 61.4081 35.416C61.5668 35.5653 61.6461 35.7613 61.6461 36.004C61.6461 36.2467 61.5668 36.4473 61.4081 36.606C61.2495 36.7553 61.0395 36.83 60.7781 36.83C60.5261 36.83 60.3208 36.7553 60.1621 36.606C60.0128 36.4473 59.9381 36.2467 59.9381 36.004C59.9381 35.7613 60.0128 35.5653 60.1621 35.416C60.3208 35.2573 60.5261 35.178 60.7781 35.178ZM61.7161 45.062H63.7881V46H58.2721V45.062H60.5401V39.56H58.3421V38.622H61.7161V45.062ZM72.2387 45.622C71.9867 45.79 71.6787 45.9207 71.3147 46.014C70.96 46.1073 70.6053 46.154 70.2507 46.154C69.476 46.154 68.8693 45.9533 68.4307 45.552C67.992 45.1413 67.7727 44.6047 67.7727 43.942V39.546H66.0787V38.622H67.7727V36.956L68.9487 36.816V38.622H71.5107L71.3567 39.546H68.9487V43.928C68.9487 44.348 69.0607 44.6607 69.2847 44.866C69.5087 45.0713 69.868 45.174 70.3627 45.174C70.8667 45.174 71.338 45.0573 71.7767 44.824L72.2387 45.622ZM77.6512 44.18C77.6512 44.8427 78.0572 45.174 78.8692 45.174C79.2519 45.174 79.6625 45.09 80.1012 44.922L80.4092 45.776C79.9425 46.028 79.3592 46.154 78.6592 46.154C77.9965 46.154 77.4645 45.972 77.0632 45.608C76.6712 45.244 76.4752 44.7493 76.4752 44.124V36.592H74.2072V35.654H77.6512V44.18ZM84.0997 42.724C84.1277 43.536 84.3377 44.1473 84.7297 44.558C85.1311 44.9687 85.6351 45.174 86.2417 45.174C86.6057 45.174 86.9371 45.1227 87.2357 45.02C87.5437 44.908 87.8704 44.74 88.2157 44.516L88.7617 45.3C88.4164 45.5707 88.0197 45.7807 87.5717 45.93C87.1331 46.0793 86.6897 46.154 86.2417 46.154C85.1777 46.154 84.3471 45.8087 83.7497 45.118C83.1617 44.418 82.8677 43.4847 82.8677 42.318C82.8677 41.5807 82.9984 40.9227 83.2597 40.344C83.5211 39.756 83.8944 39.2987 84.3797 38.972C84.8651 38.636 85.4297 38.468 86.0737 38.468C87.0071 38.468 87.7397 38.7947 88.2717 39.448C88.8131 40.092 89.0837 40.974 89.0837 42.094C89.0837 42.3087 89.0744 42.5187 89.0557 42.724H84.0997ZM86.0877 39.434C85.5184 39.434 85.0564 39.6393 84.7017 40.05C84.3471 40.4513 84.1464 41.044 84.0997 41.828H87.9357C87.9264 41.0533 87.7584 40.4607 87.4317 40.05C87.1051 39.6393 86.6571 39.434 86.0877 39.434ZM101.617 39.966C101.617 39.658 101.724 39.3967 101.939 39.182C102.153 38.958 102.419 38.846 102.737 38.846C103.063 38.846 103.334 38.958 103.549 39.182C103.763 39.3967 103.871 39.658 103.871 39.966C103.871 40.2833 103.763 40.554 103.549 40.778C103.334 41.002 103.063 41.114 102.737 41.114C102.419 41.114 102.153 41.002 101.939 40.778C101.724 40.554 101.617 40.2833 101.617 39.966ZM101.617 45.02C101.617 44.712 101.724 44.446 101.939 44.222C102.153 43.998 102.419 43.886 102.737 43.886C103.063 43.886 103.334 43.998 103.549 44.222C103.763 44.4367 103.871 44.7027 103.871 45.02C103.871 45.3467 103.763 45.6173 103.549 45.832C103.334 46.0467 103.063 46.154 102.737 46.154C102.419 46.154 102.153 46.0467 101.939 45.832C101.724 45.6173 101.617 45.3467 101.617 45.02ZM110.011 39.966C110.011 39.658 110.119 39.3967 110.333 39.182C110.548 38.958 110.814 38.846 111.131 38.846C111.458 38.846 111.729 38.958 111.943 39.182C112.158 39.3967 112.265 39.658 112.265 39.966C112.265 40.2833 112.158 40.554 111.943 40.778C111.729 41.002 111.458 41.114 111.131 41.114C110.814 41.114 110.548 41.002 110.333 40.778C110.119 40.554 110.011 40.2833 110.011 39.966ZM110.011 45.02C110.011 44.712 110.119 44.446 110.333 44.222C110.548 43.998 110.814 43.886 111.131 43.886C111.458 43.886 111.729 43.998 111.943 44.222C112.158 44.4367 112.265 44.7027 112.265 45.02C112.265 45.3467 112.158 45.6173 111.943 45.832C111.729 46.0467 111.458 46.154 111.131 46.154C110.814 46.154 110.548 46.0467 110.333 45.832C110.119 45.6173 110.011 45.3467 110.011 45.02Z" fill="black"/>
<path d="M159.066 39.966C159.066 39.658 159.173 39.3967 159.388 39.182C159.603 38.958 159.869 38.846 160.186 38.846C160.513 38.846 160.783 38.958 160.998 39.182C161.213 39.3967 161.32 39.658 161.32 39.966C161.32 40.2833 161.213 40.554 160.998 40.778C160.783 41.002 160.513 41.114 160.186 41.114C159.869 41.114 159.603 41.002 159.388 40.778C159.173 40.554 159.066 40.2833 159.066 39.966ZM159.066 45.02C159.066 44.712 159.173 44.446 159.388 44.222C159.603 43.998 159.869 43.886 160.186 43.886C160.513 43.886 160.783 43.998 160.998 44.222C161.213 44.4367 161.32 44.7027 161.32 45.02C161.32 45.3467 161.213 45.6173 160.998 45.832C160.783 46.0467 160.513 46.154 160.186 46.154C159.869 46.154 159.603 46.0467 159.388 45.832C159.173 45.6173 159.066 45.3467 159.066 45.02ZM167.461 39.966C167.461 39.658 167.568 39.3967 167.783 39.182C167.997 38.958 168.263 38.846 168.581 38.846C168.907 38.846 169.178 38.958 169.393 39.182C169.607 39.3967 169.715 39.658 169.715 39.966C169.715 40.2833 169.607 40.554 169.393 40.778C169.178 41.002 168.907 41.114 168.581 41.114C168.263 41.114 167.997 41.002 167.783 40.778C167.568 40.554 167.461 40.2833 167.461 39.966ZM167.461 45.02C167.461 44.712 167.568 44.446 167.783 44.222C167.997 43.998 168.263 43.886 168.581 43.886C168.907 43.886 169.178 43.998 169.393 44.222C169.607 44.4367 169.715 44.7027 169.715 45.02C169.715 45.3467 169.607 45.6173 169.393 45.832C169.178 46.0467 168.907 46.154 168.581 46.154C168.263 46.154 167.997 46.0467 167.783 45.832C167.568 45.6173 167.461 45.3467 167.461 45.02ZM185.93 45.146C186.574 45.146 187.213 44.9313 187.848 44.502L188.408 45.272C188.1 45.5427 187.717 45.7573 187.26 45.916C186.802 46.0747 186.359 46.154 185.93 46.154C184.838 46.154 183.984 45.8133 183.368 45.132C182.761 44.4413 182.458 43.5127 182.458 42.346C182.458 41.6087 182.593 40.946 182.864 40.358C183.144 39.77 183.545 39.308 184.068 38.972C184.59 38.636 185.211 38.468 185.93 38.468C186.882 38.468 187.703 38.7573 188.394 39.336L187.82 40.106C187.176 39.6767 186.541 39.462 185.916 39.462C185.253 39.462 184.721 39.7093 184.32 40.204C183.928 40.6893 183.732 41.4033 183.732 42.346C183.732 43.2887 183.928 43.9933 184.32 44.46C184.721 44.9173 185.258 45.146 185.93 45.146ZM193.792 38.468C194.809 38.468 195.589 38.8133 196.13 39.504C196.681 40.1853 196.956 41.1187 196.956 42.304C196.956 43.4613 196.676 44.3947 196.116 45.104C195.565 45.804 194.786 46.154 193.778 46.154C192.761 46.154 191.977 45.8133 191.426 45.132C190.875 44.4413 190.6 43.5033 190.6 42.318C190.6 41.1513 190.875 40.218 191.426 39.518C191.986 38.818 192.775 38.468 193.792 38.468ZM193.792 39.434C193.148 39.434 192.667 39.672 192.35 40.148C192.033 40.624 191.874 41.3473 191.874 42.318C191.874 43.2887 192.028 44.012 192.336 44.488C192.653 44.9547 193.134 45.188 193.778 45.188C194.422 45.188 194.898 44.9547 195.206 44.488C195.523 44.012 195.682 43.284 195.682 42.304C195.682 41.3333 195.523 40.6147 195.206 40.148C194.898 39.672 194.427 39.434 193.792 39.434ZM199.373 38.622H200.381L200.479 39.658C200.768 39.2847 201.132 38.9953 201.571 38.79C202.019 38.5753 202.467 38.468 202.915 38.468C204.296 38.468 204.987 39.196 204.987 40.652V46H203.811V41.52C203.811 40.9693 203.778 40.5493 203.713 40.26C203.657 39.9707 203.54 39.756 203.363 39.616C203.185 39.476 202.915 39.406 202.551 39.406C202.149 39.406 201.771 39.5273 201.417 39.77C201.062 40.0127 200.773 40.302 200.549 40.638V46H199.373V38.622ZM213.633 45.622C213.381 45.79 213.073 45.9207 212.709 46.014C212.355 46.1073 212 46.154 211.645 46.154C210.871 46.154 210.264 45.9533 209.825 45.552C209.387 45.1413 209.167 44.6047 209.167 43.942V39.546H207.473V38.622H209.167V36.956L210.343 36.816V38.622H212.905L212.751 39.546H210.343V43.928C210.343 44.348 210.455 44.6607 210.679 44.866C210.903 45.0713 211.263 45.174 211.757 45.174C212.261 45.174 212.733 45.0573 213.171 44.824L213.633 45.622ZM217.1 42.724C217.128 43.536 217.338 44.1473 217.73 44.558C218.131 44.9687 218.635 45.174 219.242 45.174C219.606 45.174 219.937 45.1227 220.236 45.02C220.544 44.908 220.87 44.74 221.216 44.516L221.762 45.3C221.416 45.5707 221.02 45.7807 220.572 45.93C220.133 46.0793 219.69 46.154 219.242 46.154C218.178 46.154 217.347 45.8087 216.75 45.118C216.162 44.418 215.868 43.4847 215.868 42.318C215.868 41.5807 215.998 40.9227 216.26 40.344C216.521 39.756 216.894 39.2987 217.38 38.972C217.865 38.636 218.43 38.468 219.074 38.468C220.007 38.468 220.74 38.7947 221.272 39.448C221.813 40.092 222.084 40.974 222.084 42.094C222.084 42.3087 222.074 42.5187 222.056 42.724H217.1ZM219.088 39.434C218.518 39.434 218.056 39.6393 217.702 40.05C217.347 40.4513 217.146 41.044 217.1 41.828H220.936C220.926 41.0533 220.758 40.4607 220.432 40.05C220.105 39.6393 219.657 39.434 219.088 39.434ZM224.556 38.622H225.564L225.662 39.658C225.952 39.2847 226.316 38.9953 226.754 38.79C227.202 38.5753 227.65 38.468 228.098 38.468C229.48 38.468 230.17 39.196 230.17 40.652V46H228.994V41.52C228.994 40.9693 228.962 40.5493 228.896 40.26C228.84 39.9707 228.724 39.756 228.546 39.616C228.369 39.476 228.098 39.406 227.734 39.406C227.333 39.406 226.955 39.5273 226.6 39.77C226.246 40.0127 225.956 40.302 225.732 40.638V46H224.556V38.622ZM238.817 45.622C238.565 45.79 238.257 45.9207 237.893 46.014C237.538 46.1073 237.183 46.154 236.829 46.154C236.054 46.154 235.447 45.9533 235.009 45.552C234.57 45.1413 234.351 44.6047 234.351 43.942V39.546H232.657V38.622H234.351V36.956L235.527 36.816V38.622H238.089L237.935 39.546H235.527V43.928C235.527 44.348 235.639 44.6607 235.863 44.866C236.087 45.0713 236.446 45.174 236.941 45.174C237.445 45.174 237.916 45.0573 238.355 44.824L238.817 45.622ZM251.406 39.966C251.406 39.658 251.513 39.3967 251.728 39.182C251.943 38.958 252.209 38.846 252.526 38.846C252.853 38.846 253.123 38.958 253.338 39.182C253.553 39.3967 253.66 39.658 253.66 39.966C253.66 40.2833 253.553 40.554 253.338 40.778C253.123 41.002 252.853 41.114 252.526 41.114C252.209 41.114 251.943 41.002 251.728 40.778C251.513 40.554 251.406 40.2833 251.406 39.966ZM251.406 45.02C251.406 44.712 251.513 44.446 251.728 44.222C251.943 43.998 252.209 43.886 252.526 43.886C252.853 43.886 253.123 43.998 253.338 44.222C253.553 44.4367 253.66 44.7027 253.66 45.02C253.66 45.3467 253.553 45.6173 253.338 45.832C253.123 46.0467 252.853 46.154 252.526 46.154C252.209 46.154 251.943 46.0467 251.728 45.832C251.513 45.6173 251.406 45.3467 251.406 45.02ZM259.8 39.966C259.8 39.658 259.908 39.3967 260.122 39.182C260.337 38.958 260.603 38.846 260.92 38.846C261.247 38.846 261.518 38.958 261.732 39.182C261.947 39.3967 262.054 39.658 262.054 39.966C262.054 40.2833 261.947 40.554 261.732 40.778C261.518 41.002 261.247 41.114 260.92 41.114C260.603 41.114 260.337 41.002 260.122 40.778C259.908 40.554 259.8 40.2833 259.8 39.966ZM259.8 45.02C259.8 44.712 259.908 44.446 260.122 44.222C260.337 43.998 260.603 43.886 260.92 43.886C261.247 43.886 261.518 43.998 261.732 44.222C261.947 44.4367 262.054 44.7027 262.054 45.02C262.054 45.3467 261.947 45.6173 261.732 45.832C261.518 46.0467 261.247 46.154 260.92 46.154C260.603 46.154 260.337 46.0467 260.122 45.832C259.908 45.6173 259.8 45.3467 259.8 45.02Z" fill="black"/>
</svg>
