<svg width="228" height="181" viewBox="0 0 228 181" fill="none" xmlns="http://www.w3.org/2000/svg">
<rect width="228" height="181" fill="white"/>
<rect x="8" y="10.791" width="212.377" height="162.672" fill="#EEEEEE"/>
<path d="M19.0692 31.9114C19.0692 32.5741 19.4752 32.9054 20.2872 32.9054C20.6698 32.9054 21.0805 32.8214 21.5192 32.6534L21.8272 33.5074C21.3605 33.7594 20.7772 33.8854 20.0772 33.8854C19.4145 33.8854 18.8825 33.7034 18.4812 33.3394C18.0892 32.9754 17.8932 32.4808 17.8932 31.8554V24.3234H15.6252V23.3854H19.0692V31.9114ZM30.4457 33.3534C30.1937 33.5214 29.8857 33.6521 29.5217 33.7454C29.167 33.8388 28.8124 33.8854 28.4577 33.8854C27.683 33.8854 27.0764 33.6848 26.6377 33.2834C26.199 32.8728 25.9797 32.3361 25.9797 31.6734V27.2774H24.2857V26.3534H25.9797V24.6874L27.1557 24.5474V26.3534H29.7177L29.5637 27.2774H27.1557V31.6594C27.1557 32.0794 27.2677 32.3921 27.4917 32.5974C27.7157 32.8028 28.075 32.9054 28.5697 32.9054C29.0737 32.9054 29.545 32.7888 29.9837 32.5554L30.4457 33.3534Z" fill="black"/>
<path d="M203.384 26.1994C203.683 26.1994 204.028 26.2508 204.42 26.3534L204.252 28.8594H203.3V27.2774H203.23C202.091 27.2774 201.284 28.0894 200.808 29.7134V32.8214H202.306V33.7314H198.47V32.8214H199.632V27.2634H198.47V26.3534H200.514L200.738 28.1034C201.037 27.4688 201.391 26.9928 201.802 26.6754C202.222 26.3581 202.749 26.1994 203.384 26.1994ZM212.661 33.3534C212.409 33.5214 212.101 33.6521 211.737 33.7454C211.382 33.8388 211.027 33.8854 210.673 33.8854C209.898 33.8854 209.291 33.6848 208.853 33.2834C208.414 32.8728 208.195 32.3361 208.195 31.6734V27.2774H206.501V26.3534H208.195V24.6874L209.371 24.5474V26.3534H211.933L211.779 27.2774H209.371V31.6594C209.371 32.0794 209.483 32.3921 209.707 32.5974C209.931 32.8028 210.29 32.9054 210.785 32.9054C211.289 32.9054 211.76 32.7888 212.199 32.5554L212.661 33.3534Z" fill="black"/>
<path d="M106.746 32.8774C107.39 32.8774 108.029 32.6628 108.664 32.2334L109.224 33.0034C108.916 33.2741 108.533 33.4888 108.076 33.6474C107.619 33.8061 107.175 33.8854 106.746 33.8854C105.654 33.8854 104.8 33.5448 104.184 32.8634C103.577 32.1728 103.274 31.2441 103.274 30.0774C103.274 29.3401 103.409 28.6774 103.68 28.0894C103.96 27.5014 104.361 27.0394 104.884 26.7034C105.407 26.3674 106.027 26.1994 106.746 26.1994C107.698 26.1994 108.519 26.4888 109.21 27.0674L108.636 27.8374C107.992 27.4081 107.357 27.1934 106.732 27.1934C106.069 27.1934 105.537 27.4408 105.136 27.9354C104.744 28.4208 104.548 29.1348 104.548 30.0774C104.548 31.0201 104.744 31.7248 105.136 32.1914C105.537 32.6488 106.074 32.8774 106.746 32.8774ZM117.661 33.3534C117.409 33.5214 117.101 33.6521 116.737 33.7454C116.382 33.8388 116.027 33.8854 115.673 33.8854C114.898 33.8854 114.291 33.6848 113.853 33.2834C113.414 32.8728 113.195 32.3361 113.195 31.6734V27.2774H111.501V26.3534H113.195V24.6874L114.371 24.5474V26.3534H116.933L116.779 27.2774H114.371V31.6594C114.371 32.0794 114.483 32.3921 114.707 32.5974C114.931 32.8028 115.29 32.9054 115.785 32.9054C116.289 32.9054 116.76 32.7888 117.199 32.5554L117.661 33.3534Z" fill="black"/>
<path d="M19.0692 96.9808C19.0692 97.6434 19.4752 97.9748 20.2872 97.9748C20.6698 97.9748 21.0805 97.8908 21.5192 97.7228L21.8272 98.5768C21.3605 98.8288 20.7772 98.9548 20.0772 98.9548C19.4145 98.9548 18.8825 98.7728 18.4812 98.4088C18.0892 98.0448 17.8932 97.5501 17.8932 96.9248V89.3928H15.6252V88.4548H19.0692V96.9808ZM29.4377 91.2688C29.8577 91.2688 30.1984 91.4181 30.4597 91.7168C30.7304 92.0061 30.8657 92.5381 30.8657 93.3128V98.8008H29.7877V93.5088C29.7877 92.9954 29.755 92.6501 29.6897 92.4728C29.6244 92.2861 29.4657 92.1928 29.2137 92.1928C28.7377 92.1928 28.3084 92.4868 27.9257 93.0748V98.8008H26.8337V93.5088C26.8337 92.9954 26.801 92.6501 26.7357 92.4728C26.6704 92.2861 26.5117 92.1928 26.2597 92.1928C25.7837 92.1928 25.3544 92.4868 24.9717 93.0748V98.8008H23.8937V91.4228H24.8037L24.8877 92.2908C25.1117 91.9641 25.345 91.7121 25.5877 91.5348C25.8397 91.3574 26.1384 91.2688 26.4837 91.2688C27.1744 91.2688 27.6177 91.5954 27.8137 92.2488C28.0377 91.9314 28.2757 91.6888 28.5277 91.5208C28.7797 91.3528 29.083 91.2688 29.4377 91.2688Z" fill="black"/>
<path d="M203.384 91.2688C203.683 91.2688 204.028 91.3201 204.42 91.4228L204.252 93.9288H203.3V92.3468H203.23C202.091 92.3468 201.284 93.1588 200.808 94.7828V97.8908H202.306V98.8008H198.47V97.8908H199.632V92.3328H198.47V91.4228H200.514L200.738 93.1728C201.037 92.5381 201.391 92.0621 201.802 91.7448C202.222 91.4274 202.749 91.2688 203.384 91.2688ZM211.653 91.2688C212.073 91.2688 212.413 91.4181 212.675 91.7168C212.945 92.0061 213.081 92.5381 213.081 93.3128V98.8008H212.003V93.5088C212.003 92.9954 211.97 92.6501 211.905 92.4728C211.839 92.2861 211.681 92.1928 211.429 92.1928C210.953 92.1928 210.523 92.4868 210.141 93.0748V98.8008H209.049V93.5088C209.049 92.9954 209.016 92.6501 208.951 92.4728C208.885 92.2861 208.727 92.1928 208.475 92.1928C207.999 92.1928 207.569 92.4868 207.187 93.0748V98.8008H206.109V91.4228H207.019L207.103 92.2908C207.327 91.9641 207.56 91.7121 207.803 91.5348C208.055 91.3574 208.353 91.2688 208.699 91.2688C209.389 91.2688 209.833 91.5954 210.029 92.2488C210.253 91.9314 210.491 91.6888 210.743 91.5208C210.995 91.3528 211.298 91.2688 211.653 91.2688Z" fill="black"/>
<path d="M106.746 97.9468C107.39 97.9468 108.029 97.7321 108.664 97.3028L109.224 98.0728C108.916 98.3434 108.533 98.5581 108.076 98.7168C107.619 98.8754 107.175 98.9548 106.746 98.9548C105.654 98.9548 104.8 98.6141 104.184 97.9328C103.577 97.2421 103.274 96.3134 103.274 95.1468C103.274 94.4094 103.409 93.7468 103.68 93.1588C103.96 92.5708 104.361 92.1088 104.884 91.7728C105.407 91.4368 106.027 91.2688 106.746 91.2688C107.698 91.2688 108.519 91.5581 109.21 92.1368L108.636 92.9068C107.992 92.4774 107.357 92.2628 106.732 92.2628C106.069 92.2628 105.537 92.5101 105.136 93.0048C104.744 93.4901 104.548 94.2041 104.548 95.1468C104.548 96.0894 104.744 96.7941 105.136 97.2608C105.537 97.7181 106.074 97.9468 106.746 97.9468ZM116.653 91.2688C117.073 91.2688 117.413 91.4181 117.675 91.7168C117.945 92.0061 118.081 92.5381 118.081 93.3128V98.8008H117.003V93.5088C117.003 92.9954 116.97 92.6501 116.905 92.4728C116.839 92.2861 116.681 92.1928 116.429 92.1928C115.953 92.1928 115.523 92.4868 115.141 93.0748V98.8008H114.049V93.5088C114.049 92.9954 114.016 92.6501 113.951 92.4728C113.885 92.2861 113.727 92.1928 113.475 92.1928C112.999 92.1928 112.569 92.4868 112.187 93.0748V98.8008H111.109V91.4228H112.019L112.103 92.2908C112.327 91.9641 112.56 91.7121 112.803 91.5348C113.055 91.3574 113.353 91.2688 113.699 91.2688C114.389 91.2688 114.833 91.5954 115.029 92.2488C115.253 91.9314 115.491 91.6888 115.743 91.5208C115.995 91.3528 116.298 91.2688 116.653 91.2688Z" fill="black"/>
<path d="M19.0692 159.338C19.0692 160.001 19.4752 160.332 20.2872 160.332C20.6698 160.332 21.0805 160.248 21.5192 160.08L21.8272 160.934C21.3605 161.186 20.7772 161.312 20.0772 161.312C19.4145 161.312 18.8825 161.13 18.4812 160.766C18.0892 160.402 17.8932 159.908 17.8932 159.282V151.75H15.6252V150.812H19.0692V159.338ZM25.7557 154.746C26.325 154 27.0297 153.626 27.8697 153.626C28.8124 153.626 29.5077 153.962 29.9557 154.634C30.4037 155.306 30.6277 156.249 30.6277 157.462C30.6277 158.62 30.371 159.553 29.8577 160.262C29.3444 160.962 28.6257 161.312 27.7017 161.312C26.8524 161.312 26.185 161.004 25.6997 160.388L25.6157 161.158H24.5797V150.812L25.7557 150.672V154.746ZM27.4357 160.36C28.0517 160.36 28.523 160.118 28.8497 159.632C29.1857 159.147 29.3537 158.424 29.3537 157.462C29.3537 156.51 29.2044 155.792 28.9057 155.306C28.6164 154.821 28.1824 154.578 27.6037 154.578C27.2304 154.578 26.885 154.69 26.5677 154.914C26.2597 155.138 25.989 155.418 25.7557 155.754V159.408C25.9517 159.707 26.1944 159.94 26.4837 160.108C26.773 160.276 27.0904 160.36 27.4357 160.36Z" fill="black"/>
<path d="M203.384 153.626C203.683 153.626 204.028 153.678 204.42 153.78L204.252 156.286H203.3V154.704H203.23C202.091 154.704 201.284 155.516 200.808 157.14V160.248H202.306V161.158H198.47V160.248H199.632V154.69H198.47V153.78H200.514L200.738 155.53C201.037 154.896 201.391 154.42 201.802 154.102C202.222 153.785 202.749 153.626 203.384 153.626ZM207.971 154.746C208.54 154 209.245 153.626 210.085 153.626C211.027 153.626 211.723 153.962 212.171 154.634C212.619 155.306 212.843 156.249 212.843 157.462C212.843 158.62 212.586 159.553 212.073 160.262C211.559 160.962 210.841 161.312 209.917 161.312C209.067 161.312 208.4 161.004 207.915 160.388L207.831 161.158H206.795V150.812L207.971 150.672V154.746ZM209.651 160.36C210.267 160.36 210.738 160.118 211.065 159.632C211.401 159.147 211.569 158.424 211.569 157.462C211.569 156.51 211.419 155.792 211.121 155.306C210.831 154.821 210.397 154.578 209.819 154.578C209.445 154.578 209.1 154.69 208.783 154.914C208.475 155.138 208.204 155.418 207.971 155.754V159.408C208.167 159.707 208.409 159.94 208.699 160.108C208.988 160.276 209.305 160.36 209.651 160.36Z" fill="black"/>
<path d="M107.746 160.304C108.39 160.304 109.029 160.09 109.664 159.66L110.224 160.43C109.916 160.701 109.533 160.916 109.076 161.074C108.619 161.233 108.175 161.312 107.746 161.312C106.654 161.312 105.8 160.972 105.184 160.29C104.577 159.6 104.274 158.671 104.274 157.504C104.274 156.767 104.409 156.104 104.68 155.516C104.96 154.928 105.361 154.466 105.884 154.13C106.407 153.794 107.027 153.626 107.746 153.626C108.698 153.626 109.519 153.916 110.21 154.494L109.636 155.264C108.992 154.835 108.357 154.62 107.732 154.62C107.069 154.62 106.537 154.868 106.136 155.362C105.744 155.848 105.548 156.562 105.548 157.504C105.548 158.447 105.744 159.152 106.136 159.618C106.537 160.076 107.074 160.304 107.746 160.304ZM113.971 154.746C114.54 154 115.245 153.626 116.085 153.626C117.027 153.626 117.723 153.962 118.171 154.634C118.619 155.306 118.843 156.249 118.843 157.462C118.843 158.62 118.586 159.553 118.073 160.262C117.559 160.962 116.841 161.312 115.917 161.312C115.067 161.312 114.4 161.004 113.915 160.388L113.831 161.158H112.795V150.812L113.971 150.672V154.746ZM115.651 160.36C116.267 160.36 116.738 160.118 117.065 159.632C117.401 159.147 117.569 158.424 117.569 157.462C117.569 156.51 117.419 155.792 117.121 155.306C116.831 154.821 116.397 154.578 115.819 154.578C115.445 154.578 115.1 154.69 114.783 154.914C114.475 155.138 114.204 155.418 113.971 155.754V159.408C114.167 159.707 114.409 159.94 114.699 160.108C114.988 160.276 115.305 160.36 115.651 160.36Z" fill="black"/>
</svg>
