<svg width="509" height="347" viewBox="0 0 509 347" fill="none" xmlns="http://www.w3.org/2000/svg">
<rect width="509" height="346.137" fill="white"/>
<rect x="15" y="12.1367" width="482" height="65" fill="#EEEEEE"/>
<rect x="15" y="99" width="155" height="177" fill="#EEEEEE"/>
<path d="M26.066 142.966C26.066 142.658 26.1733 142.397 26.388 142.182C26.6027 141.958 26.8687 141.846 27.186 141.846C27.5127 141.846 27.7833 141.958 27.998 142.182C28.2127 142.397 28.32 142.658 28.32 142.966C28.32 143.283 28.2127 143.554 27.998 143.778C27.7833 144.002 27.5127 144.114 27.186 144.114C26.8687 144.114 26.6027 144.002 26.388 143.778C26.1733 143.554 26.066 143.283 26.066 142.966ZM26.066 148.02C26.066 147.712 26.1733 147.446 26.388 147.222C26.6027 146.998 26.8687 146.886 27.186 146.886C27.5127 146.886 27.7833 146.998 27.998 147.222C28.2127 147.437 28.32 147.703 28.32 148.02C28.32 148.347 28.2127 148.617 27.998 148.832C27.7833 149.047 27.5127 149.154 27.186 149.154C26.8687 149.154 26.6027 149.047 26.388 148.832C26.1733 148.617 26.066 148.347 26.066 148.02ZM34.4605 142.966C34.4605 142.658 34.5679 142.397 34.7825 142.182C34.9972 141.958 35.2632 141.846 35.5805 141.846C35.9072 141.846 36.1779 141.958 36.3925 142.182C36.6072 142.397 36.7145 142.658 36.7145 142.966C36.7145 143.283 36.6072 143.554 36.3925 143.778C36.1779 144.002 35.9072 144.114 35.5805 144.114C35.2632 144.114 34.9972 144.002 34.7825 143.778C34.5679 143.554 34.4605 143.283 34.4605 142.966ZM34.4605 148.02C34.4605 147.712 34.5679 147.446 34.7825 147.222C34.9972 146.998 35.2632 146.886 35.5805 146.886C35.9072 146.886 36.1779 146.998 36.3925 147.222C36.6072 147.437 36.7145 147.703 36.7145 148.02C36.7145 148.347 36.6072 148.617 36.3925 148.832C36.1779 149.047 35.9072 149.154 35.5805 149.154C35.2632 149.154 34.9972 149.047 34.7825 148.832C34.5679 148.617 34.4605 148.347 34.4605 148.02ZM52.4676 147.18C52.4676 147.843 52.8736 148.174 53.6856 148.174C54.0683 148.174 54.4789 148.09 54.9176 147.922L55.2256 148.776C54.7589 149.028 54.1756 149.154 53.4756 149.154C52.8129 149.154 52.2809 148.972 51.8796 148.608C51.4876 148.244 51.2916 147.749 51.2916 147.124V139.592H49.0236V138.654H52.4676V147.18ZM58.9161 145.724C58.9441 146.536 59.1541 147.147 59.5461 147.558C59.9475 147.969 60.4515 148.174 61.0581 148.174C61.4221 148.174 61.7535 148.123 62.0521 148.02C62.3601 147.908 62.6868 147.74 63.0321 147.516L63.5781 148.3C63.2328 148.571 62.8361 148.781 62.3881 148.93C61.9495 149.079 61.5061 149.154 61.0581 149.154C59.9941 149.154 59.1635 148.809 58.5661 148.118C57.9781 147.418 57.6841 146.485 57.6841 145.318C57.6841 144.581 57.8148 143.923 58.0761 143.344C58.3375 142.756 58.7108 142.299 59.1961 141.972C59.6815 141.636 60.2461 141.468 60.8901 141.468C61.8235 141.468 62.5561 141.795 63.0881 142.448C63.6295 143.092 63.9001 143.974 63.9001 145.094C63.9001 145.309 63.8908 145.519 63.8721 145.724H58.9161ZM60.9041 142.434C60.3348 142.434 59.8728 142.639 59.5181 143.05C59.1635 143.451 58.9628 144.044 58.9161 144.828H62.7521C62.7428 144.053 62.5748 143.461 62.2481 143.05C61.9215 142.639 61.4735 142.434 60.9041 142.434ZM70.7267 138.514C71.4267 138.514 72.094 138.645 72.7287 138.906L72.3507 139.788C71.884 139.583 71.3567 139.48 70.7687 139.48C69.742 139.48 69.2287 139.886 69.2287 140.698V142.196H71.7207L71.5947 143.134H69.2287V149H68.0387V143.134H66.2887V142.196H68.0387V140.726C68.0387 140.063 68.2907 139.531 68.7947 139.13C69.308 138.719 69.952 138.514 70.7267 138.514ZM80.6332 148.622C80.3812 148.79 80.0732 148.921 79.7092 149.014C79.3545 149.107 78.9999 149.154 78.6452 149.154C77.8705 149.154 77.2639 148.953 76.8252 148.552C76.3865 148.141 76.1672 147.605 76.1672 146.942V142.546H74.4732V141.622H76.1672V139.956L77.3432 139.816V141.622H79.9052L79.7512 142.546H77.3432V146.928C77.3432 147.348 77.4552 147.661 77.6792 147.866C77.9032 148.071 78.2625 148.174 78.7572 148.174C79.2612 148.174 79.7325 148.057 80.1712 147.824L80.6332 148.622ZM93.2223 142.966C93.2223 142.658 93.3296 142.397 93.5443 142.182C93.7589 141.958 94.0249 141.846 94.3423 141.846C94.6689 141.846 94.9396 141.958 95.1543 142.182C95.3689 142.397 95.4763 142.658 95.4763 142.966C95.4763 143.283 95.3689 143.554 95.1543 143.778C94.9396 144.002 94.6689 144.114 94.3423 144.114C94.0249 144.114 93.7589 144.002 93.5443 143.778C93.3296 143.554 93.2223 143.283 93.2223 142.966ZM93.2223 148.02C93.2223 147.712 93.3296 147.446 93.5443 147.222C93.7589 146.998 94.0249 146.886 94.3423 146.886C94.6689 146.886 94.9396 146.998 95.1543 147.222C95.3689 147.437 95.4763 147.703 95.4763 148.02C95.4763 148.347 95.3689 148.617 95.1543 148.832C94.9396 149.047 94.6689 149.154 94.3423 149.154C94.0249 149.154 93.7589 149.047 93.5443 148.832C93.3296 148.617 93.2223 148.347 93.2223 148.02ZM101.617 142.966C101.617 142.658 101.724 142.397 101.939 142.182C102.153 141.958 102.419 141.846 102.737 141.846C103.063 141.846 103.334 141.958 103.549 142.182C103.763 142.397 103.871 142.658 103.871 142.966C103.871 143.283 103.763 143.554 103.549 143.778C103.334 144.002 103.063 144.114 102.737 144.114C102.419 144.114 102.153 144.002 101.939 143.778C101.724 143.554 101.617 143.283 101.617 142.966ZM101.617 148.02C101.617 147.712 101.724 147.446 101.939 147.222C102.153 146.998 102.419 146.886 102.737 146.886C103.063 146.886 103.334 146.998 103.549 147.222C103.763 147.437 103.871 147.703 103.871 148.02C103.871 148.347 103.763 148.617 103.549 148.832C103.334 149.047 103.063 149.154 102.737 149.154C102.419 149.154 102.153 149.047 101.939 148.832C101.724 148.617 101.617 148.347 101.617 148.02Z" fill="black"/>
<rect x="179" y="99" width="318" height="177" fill="#EEEEEE"/>
<path d="M24.066 27.3869C24.066 27.0789 24.1733 26.8176 24.388 26.6029C24.6027 26.3789 24.8687 26.2669 25.186 26.2669C25.5127 26.2669 25.7833 26.3789 25.998 26.6029C26.2127 26.8176 26.32 27.0789 26.32 27.3869C26.32 27.7042 26.2127 27.9749 25.998 28.1989C25.7833 28.4229 25.5127 28.5349 25.186 28.5349C24.8687 28.5349 24.6027 28.4229 24.388 28.1989C24.1733 27.9749 24.066 27.7042 24.066 27.3869ZM24.066 32.4409C24.066 32.1329 24.1733 31.8669 24.388 31.6429C24.6027 31.4189 24.8687 31.3069 25.186 31.3069C25.5127 31.3069 25.7833 31.4189 25.998 31.6429C26.2127 31.8576 26.32 32.1236 26.32 32.4409C26.32 32.7676 26.2127 33.0382 25.998 33.2529C25.7833 33.4676 25.5127 33.5749 25.186 33.5749C24.8687 33.5749 24.6027 33.4676 24.388 33.2529C24.1733 33.0382 24.066 32.7676 24.066 32.4409ZM32.4605 27.3869C32.4605 27.0789 32.5679 26.8176 32.7825 26.6029C32.9972 26.3789 33.2632 26.2669 33.5805 26.2669C33.9072 26.2669 34.1779 26.3789 34.3925 26.6029C34.6072 26.8176 34.7145 27.0789 34.7145 27.3869C34.7145 27.7042 34.6072 27.9749 34.3925 28.1989C34.1779 28.4229 33.9072 28.5349 33.5805 28.5349C33.2632 28.5349 32.9972 28.4229 32.7825 28.1989C32.5679 27.9749 32.4605 27.7042 32.4605 27.3869ZM32.4605 32.4409C32.4605 32.1329 32.5679 31.8669 32.7825 31.6429C32.9972 31.4189 33.2632 31.3069 33.5805 31.3069C33.9072 31.3069 34.1779 31.4189 34.3925 31.6429C34.6072 31.8576 34.7145 32.1236 34.7145 32.4409C34.7145 32.7676 34.6072 33.0382 34.3925 33.2529C34.1779 33.4676 33.9072 33.5749 33.5805 33.5749C33.2632 33.5749 32.9972 33.4676 32.7825 33.2529C32.5679 33.0382 32.4605 32.7676 32.4605 32.4409ZM53.4496 33.0429C53.1976 33.2109 52.8896 33.3416 52.5256 33.4349C52.1709 33.5282 51.8163 33.5749 51.4616 33.5749C50.6869 33.5749 50.0803 33.3742 49.6416 32.9729C49.2029 32.5622 48.9836 32.0256 48.9836 31.3629V26.9669H47.2896V26.0429H48.9836V24.3769L50.1596 24.2369V26.0429H52.7216L52.5676 26.9669H50.1596V31.3489C50.1596 31.7689 50.2716 32.0816 50.4956 32.2869C50.7196 32.4922 51.0789 32.5949 51.5736 32.5949C52.0776 32.5949 52.5489 32.4782 52.9876 32.2449L53.4496 33.0429ZM58.7781 22.5989C59.0395 22.5989 59.2495 22.6782 59.4081 22.8369C59.5668 22.9862 59.6461 23.1822 59.6461 23.4249C59.6461 23.6676 59.5668 23.8682 59.4081 24.0269C59.2495 24.1762 59.0395 24.2509 58.7781 24.2509C58.5261 24.2509 58.3208 24.1762 58.1621 24.0269C58.0128 23.8682 57.9381 23.6676 57.9381 23.4249C57.9381 23.1822 58.0128 22.9862 58.1621 22.8369C58.3208 22.6782 58.5261 22.5989 58.7781 22.5989ZM59.7161 32.4829H61.7881V33.4209H56.2721V32.4829H58.5401V26.9809H56.3421V26.0429H59.7161V32.4829ZM70.2387 33.0429C69.9867 33.2109 69.6787 33.3416 69.3147 33.4349C68.96 33.5282 68.6053 33.5749 68.2507 33.5749C67.476 33.5749 66.8693 33.3742 66.4307 32.9729C65.992 32.5622 65.7727 32.0256 65.7727 31.3629V26.9669H64.0787V26.0429H65.7727V24.3769L66.9487 24.2369V26.0429H69.5107L69.3567 26.9669H66.9487V31.3489C66.9487 31.7689 67.0607 32.0816 67.2847 32.2869C67.5087 32.4922 67.868 32.5949 68.3627 32.5949C68.8667 32.5949 69.338 32.4782 69.7767 32.2449L70.2387 33.0429ZM75.6512 31.6009C75.6512 32.2636 76.0572 32.5949 76.8692 32.5949C77.2519 32.5949 77.6625 32.5109 78.1012 32.3429L78.4092 33.1969C77.9425 33.4489 77.3592 33.5749 76.6592 33.5749C75.9965 33.5749 75.4645 33.3929 75.0632 33.0289C74.6712 32.6649 74.4752 32.1702 74.4752 31.5449V24.0129H72.2072V23.0749H75.6512V31.6009ZM82.0997 30.1449C82.1277 30.9569 82.3377 31.5682 82.7297 31.9789C83.1311 32.3896 83.6351 32.5949 84.2417 32.5949C84.6057 32.5949 84.9371 32.5436 85.2357 32.4409C85.5437 32.3289 85.8704 32.1609 86.2157 31.9369L86.7617 32.7209C86.4164 32.9916 86.0197 33.2016 85.5717 33.3509C85.1331 33.5002 84.6897 33.5749 84.2417 33.5749C83.1777 33.5749 82.3471 33.2296 81.7497 32.5389C81.1617 31.8389 80.8677 30.9056 80.8677 29.7389C80.8677 29.0016 80.9984 28.3436 81.2597 27.7649C81.5211 27.1769 81.8944 26.7196 82.3797 26.3929C82.8651 26.0569 83.4297 25.8889 84.0737 25.8889C85.0071 25.8889 85.7397 26.2156 86.2717 26.8689C86.8131 27.5129 87.0837 28.3949 87.0837 29.5149C87.0837 29.7296 87.0744 29.9396 87.0557 30.1449H82.0997ZM84.0877 26.8549C83.5184 26.8549 83.0564 27.0602 82.7017 27.4709C82.3471 27.8722 82.1464 28.4649 82.0997 29.2489H85.9357C85.9264 28.4742 85.7584 27.8816 85.4317 27.4709C85.1051 27.0602 84.6571 26.8549 84.0877 26.8549ZM99.6168 27.3869C99.6168 27.0789 99.7241 26.8176 99.9388 26.6029C100.153 26.3789 100.419 26.2669 100.737 26.2669C101.063 26.2669 101.334 26.3789 101.549 26.6029C101.763 26.8176 101.871 27.0789 101.871 27.3869C101.871 27.7042 101.763 27.9749 101.549 28.1989C101.334 28.4229 101.063 28.5349 100.737 28.5349C100.419 28.5349 100.153 28.4229 99.9388 28.1989C99.7241 27.9749 99.6168 27.7042 99.6168 27.3869ZM99.6168 32.4409C99.6168 32.1329 99.7241 31.8669 99.9388 31.6429C100.153 31.4189 100.419 31.3069 100.737 31.3069C101.063 31.3069 101.334 31.4189 101.549 31.6429C101.763 31.8576 101.871 32.1236 101.871 32.4409C101.871 32.7676 101.763 33.0382 101.549 33.2529C101.334 33.4676 101.063 33.5749 100.737 33.5749C100.419 33.5749 100.153 33.4676 99.9388 33.2529C99.7241 33.0382 99.6168 32.7676 99.6168 32.4409ZM108.011 27.3869C108.011 27.0789 108.119 26.8176 108.333 26.6029C108.548 26.3789 108.814 26.2669 109.131 26.2669C109.458 26.2669 109.729 26.3789 109.943 26.6029C110.158 26.8176 110.265 27.0789 110.265 27.3869C110.265 27.7042 110.158 27.9749 109.943 28.1989C109.729 28.4229 109.458 28.5349 109.131 28.5349C108.814 28.5349 108.548 28.4229 108.333 28.1989C108.119 27.9749 108.011 27.7042 108.011 27.3869ZM108.011 32.4409C108.011 32.1329 108.119 31.8669 108.333 31.6429C108.548 31.4189 108.814 31.3069 109.131 31.3069C109.458 31.3069 109.729 31.4189 109.943 31.6429C110.158 31.8576 110.265 32.1236 110.265 32.4409C110.265 32.7676 110.158 33.0382 109.943 33.2529C109.729 33.4676 109.458 33.5749 109.131 33.5749C108.814 33.5749 108.548 33.4676 108.333 33.2529C108.119 33.0382 108.011 32.7676 108.011 32.4409Z" fill="black"/>
<path d="M32.238 117.048V118H26.68V117.048H29.046V109.642L26.848 110.972L26.33 110.146L29.2 108.354H30.236V117.048H32.238Z" fill="black"/>
<path d="M69.766 108.2C70.354 108.2 70.8673 108.317 71.306 108.55C71.754 108.783 72.0947 109.105 72.328 109.516C72.5613 109.917 72.678 110.375 72.678 110.888C72.678 111.485 72.538 112.064 72.258 112.624C71.9873 113.184 71.5487 113.8 70.942 114.472C70.3353 115.135 69.4767 115.975 68.366 116.992H72.902L72.762 118H67.022V117.048C68.282 115.844 69.2153 114.901 69.822 114.22C70.438 113.539 70.8627 112.955 71.096 112.47C71.3293 111.985 71.446 111.471 71.446 110.93C71.446 110.389 71.292 109.964 70.984 109.656C70.676 109.348 70.2513 109.194 69.71 109.194C69.2527 109.194 68.87 109.273 68.562 109.432C68.2633 109.581 67.9553 109.843 67.638 110.216L66.826 109.586C67.2087 109.11 67.6333 108.76 68.1 108.536C68.576 108.312 69.1313 108.2 69.766 108.2Z" fill="black"/>
<path d="M110.766 108.2C111.354 108.2 111.872 108.312 112.32 108.536C112.768 108.751 113.113 109.045 113.356 109.418C113.599 109.782 113.72 110.183 113.72 110.622C113.72 111.182 113.538 111.672 113.174 112.092C112.81 112.503 112.367 112.759 111.844 112.862C112.451 112.909 112.964 113.137 113.384 113.548C113.813 113.959 114.028 114.519 114.028 115.228C114.028 115.779 113.888 116.278 113.608 116.726C113.328 117.174 112.931 117.524 112.418 117.776C111.914 118.028 111.335 118.154 110.682 118.154C110.113 118.154 109.562 118.047 109.03 117.832C108.507 117.617 108.073 117.3 107.728 116.88L108.512 116.236C108.773 116.544 109.091 116.782 109.464 116.95C109.847 117.109 110.243 117.188 110.654 117.188C111.326 117.188 111.849 117.015 112.222 116.67C112.605 116.315 112.796 115.835 112.796 115.228C112.796 114.005 112.129 113.394 110.794 113.394H109.996L110.136 112.456H110.71C111.214 112.456 111.643 112.316 111.998 112.036C112.353 111.747 112.53 111.327 112.53 110.776C112.53 110.263 112.357 109.866 112.012 109.586C111.676 109.297 111.242 109.152 110.71 109.152C110.309 109.152 109.949 109.222 109.632 109.362C109.324 109.502 109.002 109.726 108.666 110.034L108.022 109.32C108.806 108.573 109.721 108.2 110.766 108.2Z" fill="black"/>
<path d="M156.392 115.662H155.146V118H154.012V115.662H150.008V114.794L152.836 108.2L153.816 108.62L151.254 114.71H154.026L154.124 111.98H155.146V114.71H156.392V115.662Z" fill="black"/>
<path d="M196.65 109.306H192.842V112.344C193.113 112.185 193.379 112.078 193.64 112.022C193.911 111.957 194.195 111.924 194.494 111.924C195.297 111.924 195.936 112.19 196.412 112.722C196.897 113.254 197.14 113.996 197.14 114.948C197.14 115.583 197.005 116.143 196.734 116.628C196.473 117.113 196.095 117.491 195.6 117.762C195.105 118.023 194.531 118.154 193.878 118.154C192.805 118.154 191.871 117.771 191.078 117.006L191.806 116.292C192.394 116.889 193.085 117.188 193.878 117.188C194.522 117.188 195.021 116.992 195.376 116.6C195.731 116.208 195.908 115.643 195.908 114.906C195.908 114.178 195.749 113.655 195.432 113.338C195.115 113.011 194.69 112.848 194.158 112.848C193.906 112.848 193.677 112.871 193.472 112.918C193.267 112.965 192.996 113.049 192.66 113.17H191.708V108.354H196.818L196.65 109.306Z" fill="black"/>
<path d="M234.62 111.728C235.124 111.728 235.581 111.84 235.992 112.064C236.412 112.288 236.743 112.629 236.986 113.086C237.229 113.534 237.35 114.089 237.35 114.752C237.35 115.443 237.215 116.049 236.944 116.572C236.673 117.085 236.309 117.477 235.852 117.748C235.395 118.019 234.881 118.154 234.312 118.154C233.192 118.154 232.375 117.748 231.862 116.936C231.358 116.124 231.106 114.962 231.106 113.45C231.106 112.386 231.246 111.462 231.526 110.678C231.815 109.885 232.226 109.273 232.758 108.844C233.299 108.415 233.943 108.2 234.69 108.2C235.39 108.2 236.029 108.391 236.608 108.774L236.146 109.558C235.689 109.287 235.199 109.152 234.676 109.152C233.939 109.152 233.36 109.497 232.94 110.188C232.529 110.879 232.315 111.821 232.296 113.016C232.595 112.568 232.935 112.241 233.318 112.036C233.701 111.831 234.135 111.728 234.62 111.728ZM234.312 117.202C234.909 117.202 235.362 116.992 235.67 116.572C235.987 116.143 236.146 115.55 236.146 114.794C236.146 113.385 235.577 112.68 234.438 112.68C233.99 112.68 233.584 112.806 233.22 113.058C232.865 113.301 232.562 113.632 232.31 114.052C232.329 115.144 232.497 115.942 232.814 116.446C233.131 116.95 233.631 117.202 234.312 117.202Z" fill="black"/>
<path d="M274.128 117.804L277.88 109.334H273.358V108.354H279.07V109.264L275.22 118.126L274.128 117.804Z" fill="black"/>
<path d="M319.084 110.65C319.084 111.107 318.944 111.509 318.664 111.854C318.384 112.199 317.969 112.526 317.418 112.834C318.071 113.105 318.58 113.459 318.944 113.898C319.308 114.337 319.49 114.841 319.49 115.41C319.49 115.933 319.355 116.404 319.084 116.824C318.813 117.244 318.426 117.571 317.922 117.804C317.418 118.037 316.835 118.154 316.172 118.154C315.5 118.154 314.917 118.037 314.422 117.804C313.927 117.561 313.549 117.235 313.288 116.824C313.036 116.413 312.91 115.951 312.91 115.438C312.91 114.365 313.559 113.525 314.856 112.918C314.324 112.666 313.932 112.372 313.68 112.036C313.437 111.691 313.316 111.252 313.316 110.72C313.316 110.169 313.461 109.703 313.75 109.32C314.039 108.937 314.403 108.657 314.842 108.48C315.29 108.293 315.743 108.2 316.2 108.2C316.695 108.2 317.161 108.289 317.6 108.466C318.039 108.643 318.393 108.919 318.664 109.292C318.944 109.656 319.084 110.109 319.084 110.65ZM314.464 110.734C314.464 111.089 314.543 111.373 314.702 111.588C314.87 111.793 315.089 111.961 315.36 112.092C315.631 112.213 316.041 112.363 316.592 112.54C317.068 112.26 317.409 111.989 317.614 111.728C317.829 111.457 317.936 111.117 317.936 110.706C317.936 110.221 317.782 109.838 317.474 109.558C317.175 109.269 316.751 109.124 316.2 109.124C315.649 109.124 315.22 109.264 314.912 109.544C314.613 109.824 314.464 110.221 314.464 110.734ZM318.244 115.438C318.244 115.027 318.141 114.696 317.936 114.444C317.731 114.183 317.46 113.977 317.124 113.828C316.797 113.679 316.307 113.487 315.654 113.254C314.655 113.721 314.156 114.449 314.156 115.438C314.156 115.989 314.329 116.423 314.674 116.74C315.019 117.048 315.519 117.202 316.172 117.202C316.825 117.202 317.334 117.039 317.698 116.712C318.062 116.385 318.244 115.961 318.244 115.438Z" fill="black"/>
<path d="M357.046 108.214C358.101 108.214 358.889 108.541 359.412 109.194C359.935 109.847 360.196 110.762 360.196 111.938C360.196 113.291 360.019 114.369 359.664 115.172C359.319 115.975 358.782 116.609 358.054 117.076C357.335 117.533 356.337 117.939 355.058 118.294L354.778 117.398C356.15 117.034 357.186 116.535 357.886 115.9C358.586 115.265 358.941 114.393 358.95 113.282C358.707 113.627 358.39 113.912 357.998 114.136C357.615 114.36 357.172 114.472 356.668 114.472C356.136 114.472 355.66 114.346 355.24 114.094C354.829 113.842 354.507 113.487 354.274 113.03C354.041 112.563 353.924 112.017 353.924 111.392C353.924 110.72 354.059 110.146 354.33 109.67C354.61 109.194 354.983 108.835 355.45 108.592C355.926 108.34 356.458 108.214 357.046 108.214ZM356.864 113.52C357.312 113.52 357.709 113.408 358.054 113.184C358.399 112.96 358.707 112.643 358.978 112.232C358.997 111.112 358.852 110.323 358.544 109.866C358.236 109.399 357.737 109.166 357.046 109.166C356.421 109.166 355.949 109.357 355.632 109.74C355.315 110.123 355.156 110.687 355.156 111.434C355.156 112.143 355.301 112.671 355.59 113.016C355.889 113.352 356.313 113.52 356.864 113.52Z" fill="black"/>
<path d="M398.238 117.048V118H392.68V117.048H395.046V109.642L392.848 110.972L392.33 110.146L395.2 108.354H396.236V117.048H398.238ZM403.595 108.2C404.621 108.2 405.401 108.629 405.933 109.488C406.474 110.337 406.745 111.565 406.745 113.17C406.745 114.785 406.474 116.021 405.933 116.88C405.401 117.729 404.621 118.154 403.595 118.154C402.568 118.154 401.784 117.729 401.243 116.88C400.711 116.021 400.445 114.785 400.445 113.17C400.445 111.565 400.711 110.337 401.243 109.488C401.784 108.629 402.568 108.2 403.595 108.2ZM403.595 109.152C402.316 109.152 401.677 110.491 401.677 113.17C401.677 115.858 402.316 117.202 403.595 117.202C404.873 117.202 405.513 115.858 405.513 113.17C405.513 110.491 404.873 109.152 403.595 109.152ZM403.595 112.26C403.856 112.26 404.075 112.349 404.253 112.526C404.43 112.703 404.519 112.918 404.519 113.17C404.519 113.431 404.43 113.651 404.253 113.828C404.075 114.005 403.856 114.094 403.595 114.094C403.333 114.094 403.114 114.005 402.937 113.828C402.769 113.651 402.685 113.431 402.685 113.17C402.685 112.918 402.769 112.703 402.937 112.526C403.114 112.349 403.333 112.26 403.595 112.26Z" fill="black"/>
<path d="M439.238 117.048V118H433.68V117.048H436.046V109.642L433.848 110.972L433.33 110.146L436.2 108.354H437.236V117.048H439.238ZM447.633 117.048V118H442.075V117.048H444.441V109.642L442.243 110.972L441.725 110.146L444.595 108.354H445.631V117.048H447.633Z" fill="black"/>
<path d="M480.238 117.048V118H474.68V117.048H477.046V109.642L474.848 110.972L474.33 110.146L477.2 108.354H478.236V117.048H480.238ZM485.161 108.2C485.749 108.2 486.262 108.317 486.701 108.55C487.149 108.783 487.489 109.105 487.723 109.516C487.956 109.917 488.073 110.375 488.073 110.888C488.073 111.485 487.933 112.064 487.653 112.624C487.382 113.184 486.943 113.8 486.337 114.472C485.73 115.135 484.871 115.975 483.761 116.992H488.297L488.157 118H482.417V117.048C483.677 115.844 484.61 114.901 485.217 114.22C485.833 113.539 486.257 112.955 486.491 112.47C486.724 111.985 486.841 111.471 486.841 110.93C486.841 110.389 486.687 109.964 486.379 109.656C486.071 109.348 485.646 109.194 485.105 109.194C484.647 109.194 484.265 109.273 483.957 109.432C483.658 109.581 483.35 109.843 483.033 110.216L482.221 109.586C482.603 109.11 483.028 108.76 483.495 108.536C483.971 108.312 484.526 108.2 485.161 108.2Z" fill="black"/>
<rect x="15" y="292" width="482" height="37" fill="#EEEEEE"/>
<path d="M24.066 303.966C24.066 303.658 24.1733 303.397 24.388 303.182C24.6027 302.958 24.8687 302.846 25.186 302.846C25.5127 302.846 25.7833 302.958 25.998 303.182C26.2127 303.397 26.32 303.658 26.32 303.966C26.32 304.283 26.2127 304.554 25.998 304.778C25.7833 305.002 25.5127 305.114 25.186 305.114C24.8687 305.114 24.6027 305.002 24.388 304.778C24.1733 304.554 24.066 304.283 24.066 303.966ZM24.066 309.02C24.066 308.712 24.1733 308.446 24.388 308.222C24.6027 307.998 24.8687 307.886 25.186 307.886C25.5127 307.886 25.7833 307.998 25.998 308.222C26.2127 308.437 26.32 308.703 26.32 309.02C26.32 309.347 26.2127 309.617 25.998 309.832C25.7833 310.047 25.5127 310.154 25.186 310.154C24.8687 310.154 24.6027 310.047 24.388 309.832C24.1733 309.617 24.066 309.347 24.066 309.02ZM32.4605 303.966C32.4605 303.658 32.5679 303.397 32.7825 303.182C32.9972 302.958 33.2632 302.846 33.5805 302.846C33.9072 302.846 34.1779 302.958 34.3925 303.182C34.6072 303.397 34.7145 303.658 34.7145 303.966C34.7145 304.283 34.6072 304.554 34.3925 304.778C34.1779 305.002 33.9072 305.114 33.5805 305.114C33.2632 305.114 32.9972 305.002 32.7825 304.778C32.5679 304.554 32.4605 304.283 32.4605 303.966ZM32.4605 309.02C32.4605 308.712 32.5679 308.446 32.7825 308.222C32.9972 307.998 33.2632 307.886 33.5805 307.886C33.9072 307.886 34.1779 307.998 34.3925 308.222C34.6072 308.437 34.7145 308.703 34.7145 309.02C34.7145 309.347 34.6072 309.617 34.3925 309.832C34.1779 310.047 33.9072 310.154 33.5805 310.154C33.2632 310.154 32.9972 310.047 32.7825 309.832C32.5679 309.617 32.4605 309.347 32.4605 309.02ZM53.1836 299.654V310H52.1476L52.0356 309.034C51.7649 309.407 51.4523 309.687 51.0976 309.874C50.7429 310.061 50.3603 310.154 49.9496 310.154C49.0163 310.154 48.3116 309.813 47.8356 309.132C47.3689 308.451 47.1356 307.513 47.1356 306.318C47.1356 305.581 47.2523 304.923 47.4856 304.344C47.7189 303.756 48.0503 303.299 48.4796 302.972C48.9183 302.636 49.4316 302.468 50.0196 302.468C50.8316 302.468 51.4943 302.762 52.0076 303.35V299.514L53.1836 299.654ZM50.3276 303.42C49.7116 303.42 49.2356 303.663 48.8996 304.148C48.5729 304.633 48.4096 305.357 48.4096 306.318C48.4096 307.27 48.5589 307.993 48.8576 308.488C49.1656 308.973 49.6089 309.216 50.1876 309.216C50.8876 309.216 51.4943 308.824 52.0076 308.04V304.372C51.8023 304.064 51.5549 303.831 51.2656 303.672C50.9763 303.504 50.6636 303.42 50.3276 303.42ZM56.9161 306.724C56.9441 307.536 57.1541 308.147 57.5461 308.558C57.9475 308.969 58.4515 309.174 59.0581 309.174C59.4221 309.174 59.7535 309.123 60.0521 309.02C60.3601 308.908 60.6868 308.74 61.0321 308.516L61.5781 309.3C61.2328 309.571 60.8361 309.781 60.3881 309.93C59.9495 310.079 59.5061 310.154 59.0581 310.154C57.9941 310.154 57.1635 309.809 56.5661 309.118C55.9781 308.418 55.6841 307.485 55.6841 306.318C55.6841 305.581 55.8148 304.923 56.0761 304.344C56.3375 303.756 56.7108 303.299 57.1961 302.972C57.6815 302.636 58.2461 302.468 58.8901 302.468C59.8235 302.468 60.5561 302.795 61.0881 303.448C61.6295 304.092 61.9001 304.974 61.9001 306.094C61.9001 306.309 61.8908 306.519 61.8721 306.724H56.9161ZM58.9041 303.434C58.3348 303.434 57.8728 303.639 57.5181 304.05C57.1635 304.451 56.9628 305.044 56.9161 305.828H60.7521C60.7428 305.053 60.5748 304.461 60.2481 304.05C59.9215 303.639 59.4735 303.434 58.9041 303.434ZM68.7267 299.514C69.4267 299.514 70.094 299.645 70.7287 299.906L70.3507 300.788C69.884 300.583 69.3567 300.48 68.7687 300.48C67.742 300.48 67.2287 300.886 67.2287 301.698V303.196H69.7207L69.5947 304.134H67.2287V310H66.0387V304.134H64.2887V303.196H66.0387V301.726C66.0387 301.063 66.2907 300.531 66.7947 300.13C67.308 299.719 67.952 299.514 68.7267 299.514ZM78.0592 308.39C78.0592 308.679 78.1059 308.894 78.1992 309.034C78.2925 309.165 78.4465 309.263 78.6612 309.328L78.3672 310.168C77.6485 310.075 77.2005 309.725 77.0232 309.118C76.7619 309.454 76.4305 309.711 76.0292 309.888C75.6372 310.065 75.1985 310.154 74.7132 310.154C73.9759 310.154 73.3925 309.949 72.9632 309.538C72.5432 309.127 72.3332 308.577 72.3332 307.886C72.3332 307.13 72.6272 306.547 73.2152 306.136C73.8125 305.725 74.6665 305.52 75.7772 305.52H76.8692V304.918C76.8692 304.395 76.7199 304.022 76.4212 303.798C76.1225 303.565 75.6885 303.448 75.1192 303.448C74.5592 303.448 73.9199 303.574 73.2012 303.826L72.8792 302.93C73.7472 302.622 74.5545 302.468 75.3012 302.468C76.1972 302.468 76.8785 302.678 77.3452 303.098C77.8212 303.518 78.0592 304.101 78.0592 304.848V308.39ZM75.0072 309.272C75.3712 309.272 75.7165 309.179 76.0432 308.992C76.3792 308.805 76.6545 308.549 76.8692 308.222V306.332H75.8052C75.0212 306.332 74.4565 306.463 74.1112 306.724C73.7659 306.985 73.5932 307.368 73.5932 307.872C73.5932 308.805 74.0645 309.272 75.0072 309.272ZM82.3377 307.858C82.3377 308.334 82.4357 308.684 82.6317 308.908C82.8371 309.123 83.1544 309.23 83.5837 309.23C83.9757 309.23 84.3537 309.118 84.7177 308.894C85.0817 308.67 85.3711 308.39 85.5857 308.054V302.622H86.7617V310H85.7537L85.6557 309.006C85.3664 309.37 85.0071 309.655 84.5777 309.86C84.1577 310.056 83.7284 310.154 83.2897 310.154C82.5897 310.154 82.0577 309.967 81.6937 309.594C81.3391 309.221 81.1617 308.684 81.1617 307.984V302.622H82.3377V307.858ZM92.4403 308.18C92.4403 308.843 92.8463 309.174 93.6583 309.174C94.0409 309.174 94.4516 309.09 94.8903 308.922L95.1983 309.776C94.7316 310.028 94.1483 310.154 93.4483 310.154C92.7856 310.154 92.2536 309.972 91.8522 309.608C91.4603 309.244 91.2643 308.749 91.2643 308.124V300.592H88.9963V299.654H92.4403V308.18ZM103.817 309.622C103.565 309.79 103.257 309.921 102.893 310.014C102.538 310.107 102.183 310.154 101.829 310.154C101.054 310.154 100.447 309.953 100.009 309.552C99.5701 309.141 99.3508 308.605 99.3508 307.942V303.546H97.6568V302.622H99.3508V300.956L100.527 300.816V302.622H103.089L102.935 303.546H100.527V307.928C100.527 308.348 100.639 308.661 100.863 308.866C101.087 309.071 101.446 309.174 101.941 309.174C102.445 309.174 102.916 309.057 103.355 308.824L103.817 309.622ZM116.406 303.966C116.406 303.658 116.513 303.397 116.728 303.182C116.943 302.958 117.209 302.846 117.526 302.846C117.853 302.846 118.123 302.958 118.338 303.182C118.553 303.397 118.66 303.658 118.66 303.966C118.66 304.283 118.553 304.554 118.338 304.778C118.123 305.002 117.853 305.114 117.526 305.114C117.209 305.114 116.943 305.002 116.728 304.778C116.513 304.554 116.406 304.283 116.406 303.966ZM116.406 309.02C116.406 308.712 116.513 308.446 116.728 308.222C116.943 307.998 117.209 307.886 117.526 307.886C117.853 307.886 118.123 307.998 118.338 308.222C118.553 308.437 118.66 308.703 118.66 309.02C118.66 309.347 118.553 309.617 118.338 309.832C118.123 310.047 117.853 310.154 117.526 310.154C117.209 310.154 116.943 310.047 116.728 309.832C116.513 309.617 116.406 309.347 116.406 309.02ZM124.8 303.966C124.8 303.658 124.908 303.397 125.122 303.182C125.337 302.958 125.603 302.846 125.92 302.846C126.247 302.846 126.518 302.958 126.732 303.182C126.947 303.397 127.054 303.658 127.054 303.966C127.054 304.283 126.947 304.554 126.732 304.778C126.518 305.002 126.247 305.114 125.92 305.114C125.603 305.114 125.337 305.002 125.122 304.778C124.908 304.554 124.8 304.283 124.8 303.966ZM124.8 309.02C124.8 308.712 124.908 308.446 125.122 308.222C125.337 307.998 125.603 307.886 125.92 307.886C126.247 307.886 126.518 307.998 126.732 308.222C126.947 308.437 127.054 308.703 127.054 309.02C127.054 309.347 126.947 309.617 126.732 309.832C126.518 310.047 126.247 310.154 125.92 310.154C125.603 310.154 125.337 310.047 125.122 309.832C124.908 309.617 124.8 309.347 124.8 309.02Z" fill="black"/>
<path d="M193.066 142.966C193.066 142.658 193.173 142.397 193.388 142.182C193.603 141.958 193.869 141.846 194.186 141.846C194.513 141.846 194.783 141.958 194.998 142.182C195.213 142.397 195.32 142.658 195.32 142.966C195.32 143.283 195.213 143.554 194.998 143.778C194.783 144.002 194.513 144.114 194.186 144.114C193.869 144.114 193.603 144.002 193.388 143.778C193.173 143.554 193.066 143.283 193.066 142.966ZM193.066 148.02C193.066 147.712 193.173 147.446 193.388 147.222C193.603 146.998 193.869 146.886 194.186 146.886C194.513 146.886 194.783 146.998 194.998 147.222C195.213 147.437 195.32 147.703 195.32 148.02C195.32 148.347 195.213 148.617 194.998 148.832C194.783 149.047 194.513 149.154 194.186 149.154C193.869 149.154 193.603 149.047 193.388 148.832C193.173 148.617 193.066 148.347 193.066 148.02ZM201.461 142.966C201.461 142.658 201.568 142.397 201.783 142.182C201.997 141.958 202.263 141.846 202.581 141.846C202.907 141.846 203.178 141.958 203.393 142.182C203.607 142.397 203.715 142.658 203.715 142.966C203.715 143.283 203.607 143.554 203.393 143.778C203.178 144.002 202.907 144.114 202.581 144.114C202.263 144.114 201.997 144.002 201.783 143.778C201.568 143.554 201.461 143.283 201.461 142.966ZM201.461 148.02C201.461 147.712 201.568 147.446 201.783 147.222C201.997 146.998 202.263 146.886 202.581 146.886C202.907 146.886 203.178 146.998 203.393 147.222C203.607 147.437 203.715 147.703 203.715 148.02C203.715 148.347 203.607 148.617 203.393 148.832C203.178 149.047 202.907 149.154 202.581 149.154C202.263 149.154 201.997 149.047 201.783 148.832C201.568 148.617 201.461 148.347 201.461 148.02ZM221.568 141.468C221.866 141.468 222.212 141.519 222.604 141.622L222.436 144.128H221.484V142.546H221.414C220.275 142.546 219.468 143.358 218.992 144.982V148.09H220.49V149H216.654V148.09H217.816V142.532H216.654V141.622H218.698L218.922 143.372C219.22 142.737 219.575 142.261 219.986 141.944C220.406 141.627 220.933 141.468 221.568 141.468ZM227.778 138.178C228.039 138.178 228.249 138.257 228.408 138.416C228.567 138.565 228.646 138.761 228.646 139.004C228.646 139.247 228.567 139.447 228.408 139.606C228.249 139.755 228.039 139.83 227.778 139.83C227.526 139.83 227.321 139.755 227.162 139.606C227.013 139.447 226.938 139.247 226.938 139.004C226.938 138.761 227.013 138.565 227.162 138.416C227.321 138.257 227.526 138.178 227.778 138.178ZM228.716 148.062H230.788V149H225.272V148.062H227.54V142.56H225.342V141.622H228.716V148.062ZM239.729 141.958C239.449 142.051 239.145 142.112 238.819 142.14C238.492 142.159 238.077 142.168 237.573 142.168C238.431 142.56 238.861 143.181 238.861 144.03C238.861 144.777 238.613 145.383 238.119 145.85C237.624 146.307 236.947 146.536 236.089 146.536C235.65 146.536 235.281 146.485 234.983 146.382C234.871 146.466 234.777 146.573 234.703 146.704C234.637 146.835 234.605 146.965 234.605 147.096C234.605 147.516 234.931 147.726 235.585 147.726H236.915C237.4 147.726 237.839 147.815 238.231 147.992C238.632 148.16 238.945 148.398 239.169 148.706C239.402 149.014 239.519 149.355 239.519 149.728C239.519 150.447 239.211 150.997 238.595 151.38C237.988 151.772 237.125 151.968 236.005 151.968C234.866 151.968 234.063 151.791 233.597 151.436C233.13 151.081 232.897 150.517 232.897 149.742H233.961C233.961 150.05 234.017 150.293 234.129 150.47C234.25 150.657 234.455 150.792 234.745 150.876C235.043 150.969 235.463 151.016 236.005 151.016C236.798 151.016 237.381 150.913 237.755 150.708C238.137 150.503 238.329 150.199 238.329 149.798C238.329 149.462 238.175 149.201 237.867 149.014C237.559 148.837 237.162 148.748 236.677 148.748H235.361C234.754 148.748 234.292 148.617 233.975 148.356C233.657 148.085 233.499 147.749 233.499 147.348C233.499 147.115 233.569 146.886 233.709 146.662C233.849 146.429 234.049 146.228 234.311 146.06C233.891 145.845 233.578 145.575 233.373 145.248C233.177 144.912 233.079 144.506 233.079 144.03C233.079 143.535 233.2 143.097 233.443 142.714C233.695 142.322 234.04 142.019 234.479 141.804C234.927 141.58 235.44 141.468 236.019 141.468C236.859 141.468 237.498 141.421 237.937 141.328C238.375 141.235 238.856 141.076 239.379 140.852L239.729 141.958ZM236.005 142.336C235.435 142.336 235.006 142.49 234.717 142.798C234.427 143.097 234.283 143.507 234.283 144.03C234.283 144.553 234.427 144.973 234.717 145.29C235.015 145.598 235.454 145.752 236.033 145.752C236.555 145.752 236.952 145.603 237.223 145.304C237.503 144.996 237.643 144.567 237.643 144.016C237.643 142.896 237.097 142.336 236.005 142.336ZM242.943 142.644C243.233 142.271 243.587 141.981 244.007 141.776C244.427 141.571 244.861 141.468 245.309 141.468C246.691 141.468 247.381 142.196 247.381 143.652V149H246.205V143.666C246.205 143.227 246.103 142.91 245.897 142.714C245.692 142.509 245.365 142.406 244.917 142.406C244.535 142.406 244.166 142.527 243.811 142.77C243.457 143.013 243.167 143.297 242.943 143.624V149H241.767V138.668L242.943 138.542V142.644ZM256.028 148.622C255.776 148.79 255.468 148.921 255.104 149.014C254.749 149.107 254.394 149.154 254.04 149.154C253.265 149.154 252.658 148.953 252.22 148.552C251.781 148.141 251.562 147.605 251.562 146.942V142.546H249.868V141.622H251.562V139.956L252.738 139.816V141.622H255.3L255.146 142.546H252.738V146.928C252.738 147.348 252.85 147.661 253.074 147.866C253.298 148.071 253.657 148.174 254.152 148.174C254.656 148.174 255.127 148.057 255.566 147.824L256.028 148.622ZM268.617 142.966C268.617 142.658 268.724 142.397 268.939 142.182C269.153 141.958 269.419 141.846 269.737 141.846C270.063 141.846 270.334 141.958 270.549 142.182C270.763 142.397 270.871 142.658 270.871 142.966C270.871 143.283 270.763 143.554 270.549 143.778C270.334 144.002 270.063 144.114 269.737 144.114C269.419 144.114 269.153 144.002 268.939 143.778C268.724 143.554 268.617 143.283 268.617 142.966ZM268.617 148.02C268.617 147.712 268.724 147.446 268.939 147.222C269.153 146.998 269.419 146.886 269.737 146.886C270.063 146.886 270.334 146.998 270.549 147.222C270.763 147.437 270.871 147.703 270.871 148.02C270.871 148.347 270.763 148.617 270.549 148.832C270.334 149.047 270.063 149.154 269.737 149.154C269.419 149.154 269.153 149.047 268.939 148.832C268.724 148.617 268.617 148.347 268.617 148.02ZM277.011 142.966C277.011 142.658 277.119 142.397 277.333 142.182C277.548 141.958 277.814 141.846 278.131 141.846C278.458 141.846 278.729 141.958 278.943 142.182C279.158 142.397 279.265 142.658 279.265 142.966C279.265 143.283 279.158 143.554 278.943 143.778C278.729 144.002 278.458 144.114 278.131 144.114C277.814 144.114 277.548 144.002 277.333 143.778C277.119 143.554 277.011 143.283 277.011 142.966ZM277.011 148.02C277.011 147.712 277.119 147.446 277.333 147.222C277.548 146.998 277.814 146.886 278.131 146.886C278.458 146.886 278.729 146.998 278.943 147.222C279.158 147.437 279.265 147.703 279.265 148.02C279.265 148.347 279.158 148.617 278.943 148.832C278.729 149.047 278.458 149.154 278.131 149.154C277.814 149.154 277.548 149.047 277.333 148.832C277.119 148.617 277.011 148.347 277.011 148.02Z" fill="black"/>
</svg>
