<svg width="509" height="347" viewBox="0 0 509 347" fill="none" xmlns="http://www.w3.org/2000/svg">
<rect width="509" height="346.137" fill="white"/>
<rect x="15" y="12.1367" width="482" height="65" fill="#EEEEEE"/>
<rect x="15" y="297" width="482" height="37" fill="#EEEEEE"/>
<rect x="15" y="88" width="32" height="199" fill="#E7D9D9"/>
<rect x="261" y="88" width="32" height="199" fill="#E7D9D9"/>
<rect x="138" y="88" width="32" height="199" fill="#E7D9D9"/>
<rect x="384" y="88" width="32" height="199" fill="#E7D9D9"/>
<rect x="55" y="88" width="32" height="199" fill="#E7D9D9"/>
<rect x="301" y="88" width="32" height="199" fill="#E7D9D9"/>
<rect x="179" y="88" width="32" height="199" fill="#E7D9D9"/>
<rect x="425" y="88" width="32" height="199" fill="#E7D9D9"/>
<rect x="96" y="88" width="32" height="199" fill="#E7D9D9"/>
<rect x="342" y="88" width="32" height="199" fill="#E7D9D9"/>
<rect x="219" y="88" width="32" height="199" fill="#E7D9D9"/>
<rect x="465" y="88" width="32" height="199" fill="#E7D9D9"/>
<path d="M24.066 27.3869C24.066 27.0789 24.1733 26.8176 24.388 26.6029C24.6027 26.3789 24.8687 26.2669 25.186 26.2669C25.5127 26.2669 25.7833 26.3789 25.998 26.6029C26.2127 26.8176 26.32 27.0789 26.32 27.3869C26.32 27.7042 26.2127 27.9749 25.998 28.1989C25.7833 28.4229 25.5127 28.5349 25.186 28.5349C24.8687 28.5349 24.6027 28.4229 24.388 28.1989C24.1733 27.9749 24.066 27.7042 24.066 27.3869ZM24.066 32.4409C24.066 32.1329 24.1733 31.8669 24.388 31.6429C24.6027 31.4189 24.8687 31.3069 25.186 31.3069C25.5127 31.3069 25.7833 31.4189 25.998 31.6429C26.2127 31.8576 26.32 32.1236 26.32 32.4409C26.32 32.7676 26.2127 33.0382 25.998 33.2529C25.7833 33.4676 25.5127 33.5749 25.186 33.5749C24.8687 33.5749 24.6027 33.4676 24.388 33.2529C24.1733 33.0382 24.066 32.7676 24.066 32.4409ZM32.4605 27.3869C32.4605 27.0789 32.5679 26.8176 32.7825 26.6029C32.9972 26.3789 33.2632 26.2669 33.5805 26.2669C33.9072 26.2669 34.1779 26.3789 34.3925 26.6029C34.6072 26.8176 34.7145 27.0789 34.7145 27.3869C34.7145 27.7042 34.6072 27.9749 34.3925 28.1989C34.1779 28.4229 33.9072 28.5349 33.5805 28.5349C33.2632 28.5349 32.9972 28.4229 32.7825 28.1989C32.5679 27.9749 32.4605 27.7042 32.4605 27.3869ZM32.4605 32.4409C32.4605 32.1329 32.5679 31.8669 32.7825 31.6429C32.9972 31.4189 33.2632 31.3069 33.5805 31.3069C33.9072 31.3069 34.1779 31.4189 34.3925 31.6429C34.6072 31.8576 34.7145 32.1236 34.7145 32.4409C34.7145 32.7676 34.6072 33.0382 34.3925 33.2529C34.1779 33.4676 33.9072 33.5749 33.5805 33.5749C33.2632 33.5749 32.9972 33.4676 32.7825 33.2529C32.5679 33.0382 32.4605 32.7676 32.4605 32.4409ZM53.4496 33.0429C53.1976 33.2109 52.8896 33.3416 52.5256 33.4349C52.1709 33.5282 51.8163 33.5749 51.4616 33.5749C50.6869 33.5749 50.0803 33.3742 49.6416 32.9729C49.2029 32.5622 48.9836 32.0256 48.9836 31.3629V26.9669H47.2896V26.0429H48.9836V24.3769L50.1596 24.2369V26.0429H52.7216L52.5676 26.9669H50.1596V31.3489C50.1596 31.7689 50.2716 32.0816 50.4956 32.2869C50.7196 32.4922 51.0789 32.5949 51.5736 32.5949C52.0776 32.5949 52.5489 32.4782 52.9876 32.2449L53.4496 33.0429ZM58.7781 22.5989C59.0395 22.5989 59.2495 22.6782 59.4081 22.8369C59.5668 22.9862 59.6461 23.1822 59.6461 23.4249C59.6461 23.6676 59.5668 23.8682 59.4081 24.0269C59.2495 24.1762 59.0395 24.2509 58.7781 24.2509C58.5261 24.2509 58.3208 24.1762 58.1621 24.0269C58.0128 23.8682 57.9381 23.6676 57.9381 23.4249C57.9381 23.1822 58.0128 22.9862 58.1621 22.8369C58.3208 22.6782 58.5261 22.5989 58.7781 22.5989ZM59.7161 32.4829H61.7881V33.4209H56.2721V32.4829H58.5401V26.9809H56.3421V26.0429H59.7161V32.4829ZM70.2387 33.0429C69.9867 33.2109 69.6787 33.3416 69.3147 33.4349C68.96 33.5282 68.6053 33.5749 68.2507 33.5749C67.476 33.5749 66.8693 33.3742 66.4307 32.9729C65.992 32.5622 65.7727 32.0256 65.7727 31.3629V26.9669H64.0787V26.0429H65.7727V24.3769L66.9487 24.2369V26.0429H69.5107L69.3567 26.9669H66.9487V31.3489C66.9487 31.7689 67.0607 32.0816 67.2847 32.2869C67.5087 32.4922 67.868 32.5949 68.3627 32.5949C68.8667 32.5949 69.338 32.4782 69.7767 32.2449L70.2387 33.0429ZM75.6512 31.6009C75.6512 32.2636 76.0572 32.5949 76.8692 32.5949C77.2519 32.5949 77.6625 32.5109 78.1012 32.3429L78.4092 33.1969C77.9425 33.4489 77.3592 33.5749 76.6592 33.5749C75.9965 33.5749 75.4645 33.3929 75.0632 33.0289C74.6712 32.6649 74.4752 32.1702 74.4752 31.5449V24.0129H72.2072V23.0749H75.6512V31.6009ZM82.0997 30.1449C82.1277 30.9569 82.3377 31.5682 82.7297 31.9789C83.1311 32.3896 83.6351 32.5949 84.2417 32.5949C84.6057 32.5949 84.9371 32.5436 85.2357 32.4409C85.5437 32.3289 85.8704 32.1609 86.2157 31.9369L86.7617 32.7209C86.4164 32.9916 86.0197 33.2016 85.5717 33.3509C85.1331 33.5002 84.6897 33.5749 84.2417 33.5749C83.1777 33.5749 82.3471 33.2296 81.7497 32.5389C81.1617 31.8389 80.8677 30.9056 80.8677 29.7389C80.8677 29.0016 80.9984 28.3436 81.2597 27.7649C81.5211 27.1769 81.8944 26.7196 82.3797 26.3929C82.8651 26.0569 83.4297 25.8889 84.0737 25.8889C85.0071 25.8889 85.7397 26.2156 86.2717 26.8689C86.8131 27.5129 87.0837 28.3949 87.0837 29.5149C87.0837 29.7296 87.0744 29.9396 87.0557 30.1449H82.0997ZM84.0877 26.8549C83.5184 26.8549 83.0564 27.0602 82.7017 27.4709C82.3471 27.8722 82.1464 28.4649 82.0997 29.2489H85.9357C85.9264 28.4742 85.7584 27.8816 85.4317 27.4709C85.1051 27.0602 84.6571 26.8549 84.0877 26.8549ZM99.6168 27.3869C99.6168 27.0789 99.7241 26.8176 99.9388 26.6029C100.153 26.3789 100.419 26.2669 100.737 26.2669C101.063 26.2669 101.334 26.3789 101.549 26.6029C101.763 26.8176 101.871 27.0789 101.871 27.3869C101.871 27.7042 101.763 27.9749 101.549 28.1989C101.334 28.4229 101.063 28.5349 100.737 28.5349C100.419 28.5349 100.153 28.4229 99.9388 28.1989C99.7241 27.9749 99.6168 27.7042 99.6168 27.3869ZM99.6168 32.4409C99.6168 32.1329 99.7241 31.8669 99.9388 31.6429C100.153 31.4189 100.419 31.3069 100.737 31.3069C101.063 31.3069 101.334 31.4189 101.549 31.6429C101.763 31.8576 101.871 32.1236 101.871 32.4409C101.871 32.7676 101.763 33.0382 101.549 33.2529C101.334 33.4676 101.063 33.5749 100.737 33.5749C100.419 33.5749 100.153 33.4676 99.9388 33.2529C99.7241 33.0382 99.6168 32.7676 99.6168 32.4409ZM108.011 27.3869C108.011 27.0789 108.119 26.8176 108.333 26.6029C108.548 26.3789 108.814 26.2669 109.131 26.2669C109.458 26.2669 109.729 26.3789 109.943 26.6029C110.158 26.8176 110.265 27.0789 110.265 27.3869C110.265 27.7042 110.158 27.9749 109.943 28.1989C109.729 28.4229 109.458 28.5349 109.131 28.5349C108.814 28.5349 108.548 28.4229 108.333 28.1989C108.119 27.9749 108.011 27.7042 108.011 27.3869ZM108.011 32.4409C108.011 32.1329 108.119 31.8669 108.333 31.6429C108.548 31.4189 108.814 31.3069 109.131 31.3069C109.458 31.3069 109.729 31.4189 109.943 31.6429C110.158 31.8576 110.265 32.1236 110.265 32.4409C110.265 32.7676 110.158 33.0382 109.943 33.2529C109.729 33.4676 109.458 33.5749 109.131 33.5749C108.814 33.5749 108.548 33.4676 108.333 33.2529C108.119 33.0382 108.011 32.7676 108.011 32.4409Z" fill="black"/>
<path d="M24.066 308.966C24.066 308.658 24.1733 308.397 24.388 308.182C24.6027 307.958 24.8687 307.846 25.186 307.846C25.5127 307.846 25.7833 307.958 25.998 308.182C26.2127 308.397 26.32 308.658 26.32 308.966C26.32 309.283 26.2127 309.554 25.998 309.778C25.7833 310.002 25.5127 310.114 25.186 310.114C24.8687 310.114 24.6027 310.002 24.388 309.778C24.1733 309.554 24.066 309.283 24.066 308.966ZM24.066 314.02C24.066 313.712 24.1733 313.446 24.388 313.222C24.6027 312.998 24.8687 312.886 25.186 312.886C25.5127 312.886 25.7833 312.998 25.998 313.222C26.2127 313.437 26.32 313.703 26.32 314.02C26.32 314.347 26.2127 314.617 25.998 314.832C25.7833 315.047 25.5127 315.154 25.186 315.154C24.8687 315.154 24.6027 315.047 24.388 314.832C24.1733 314.617 24.066 314.347 24.066 314.02ZM32.4605 308.966C32.4605 308.658 32.5679 308.397 32.7825 308.182C32.9972 307.958 33.2632 307.846 33.5805 307.846C33.9072 307.846 34.1779 307.958 34.3925 308.182C34.6072 308.397 34.7145 308.658 34.7145 308.966C34.7145 309.283 34.6072 309.554 34.3925 309.778C34.1779 310.002 33.9072 310.114 33.5805 310.114C33.2632 310.114 32.9972 310.002 32.7825 309.778C32.5679 309.554 32.4605 309.283 32.4605 308.966ZM32.4605 314.02C32.4605 313.712 32.5679 313.446 32.7825 313.222C32.9972 312.998 33.2632 312.886 33.5805 312.886C33.9072 312.886 34.1779 312.998 34.3925 313.222C34.6072 313.437 34.7145 313.703 34.7145 314.02C34.7145 314.347 34.6072 314.617 34.3925 314.832C34.1779 315.047 33.9072 315.154 33.5805 315.154C33.2632 315.154 32.9972 315.047 32.7825 314.832C32.5679 314.617 32.4605 314.347 32.4605 314.02ZM53.1836 304.654V315H52.1476L52.0356 314.034C51.7649 314.407 51.4523 314.687 51.0976 314.874C50.7429 315.061 50.3603 315.154 49.9496 315.154C49.0163 315.154 48.3116 314.813 47.8356 314.132C47.3689 313.451 47.1356 312.513 47.1356 311.318C47.1356 310.581 47.2523 309.923 47.4856 309.344C47.7189 308.756 48.0503 308.299 48.4796 307.972C48.9183 307.636 49.4316 307.468 50.0196 307.468C50.8316 307.468 51.4943 307.762 52.0076 308.35V304.514L53.1836 304.654ZM50.3276 308.42C49.7116 308.42 49.2356 308.663 48.8996 309.148C48.5729 309.633 48.4096 310.357 48.4096 311.318C48.4096 312.27 48.5589 312.993 48.8576 313.488C49.1656 313.973 49.6089 314.216 50.1876 314.216C50.8876 314.216 51.4943 313.824 52.0076 313.04V309.372C51.8023 309.064 51.5549 308.831 51.2656 308.672C50.9763 308.504 50.6636 308.42 50.3276 308.42ZM56.9161 311.724C56.9441 312.536 57.1541 313.147 57.5461 313.558C57.9475 313.969 58.4515 314.174 59.0581 314.174C59.4221 314.174 59.7535 314.123 60.0521 314.02C60.3601 313.908 60.6868 313.74 61.0321 313.516L61.5781 314.3C61.2328 314.571 60.8361 314.781 60.3881 314.93C59.9495 315.079 59.5061 315.154 59.0581 315.154C57.9941 315.154 57.1635 314.809 56.5661 314.118C55.9781 313.418 55.6841 312.485 55.6841 311.318C55.6841 310.581 55.8148 309.923 56.0761 309.344C56.3375 308.756 56.7108 308.299 57.1961 307.972C57.6815 307.636 58.2461 307.468 58.8901 307.468C59.8235 307.468 60.5561 307.795 61.0881 308.448C61.6295 309.092 61.9001 309.974 61.9001 311.094C61.9001 311.309 61.8908 311.519 61.8721 311.724H56.9161ZM58.9041 308.434C58.3348 308.434 57.8728 308.639 57.5181 309.05C57.1635 309.451 56.9628 310.044 56.9161 310.828H60.7521C60.7428 310.053 60.5748 309.461 60.2481 309.05C59.9215 308.639 59.4735 308.434 58.9041 308.434ZM68.7267 304.514C69.4267 304.514 70.094 304.645 70.7287 304.906L70.3507 305.788C69.884 305.583 69.3567 305.48 68.7687 305.48C67.742 305.48 67.2287 305.886 67.2287 306.698V308.196H69.7207L69.5947 309.134H67.2287V315H66.0387V309.134H64.2887V308.196H66.0387V306.726C66.0387 306.063 66.2907 305.531 66.7947 305.13C67.308 304.719 67.952 304.514 68.7267 304.514ZM78.0592 313.39C78.0592 313.679 78.1059 313.894 78.1992 314.034C78.2925 314.165 78.4465 314.263 78.6612 314.328L78.3672 315.168C77.6485 315.075 77.2005 314.725 77.0232 314.118C76.7619 314.454 76.4305 314.711 76.0292 314.888C75.6372 315.065 75.1985 315.154 74.7132 315.154C73.9759 315.154 73.3925 314.949 72.9632 314.538C72.5432 314.127 72.3332 313.577 72.3332 312.886C72.3332 312.13 72.6272 311.547 73.2152 311.136C73.8125 310.725 74.6665 310.52 75.7772 310.52H76.8692V309.918C76.8692 309.395 76.7199 309.022 76.4212 308.798C76.1225 308.565 75.6885 308.448 75.1192 308.448C74.5592 308.448 73.9199 308.574 73.2012 308.826L72.8792 307.93C73.7472 307.622 74.5545 307.468 75.3012 307.468C76.1972 307.468 76.8785 307.678 77.3452 308.098C77.8212 308.518 78.0592 309.101 78.0592 309.848V313.39ZM75.0072 314.272C75.3712 314.272 75.7165 314.179 76.0432 313.992C76.3792 313.805 76.6545 313.549 76.8692 313.222V311.332H75.8052C75.0212 311.332 74.4565 311.463 74.1112 311.724C73.7659 311.985 73.5932 312.368 73.5932 312.872C73.5932 313.805 74.0645 314.272 75.0072 314.272ZM82.3377 312.858C82.3377 313.334 82.4357 313.684 82.6317 313.908C82.8371 314.123 83.1544 314.23 83.5837 314.23C83.9757 314.23 84.3537 314.118 84.7177 313.894C85.0817 313.67 85.3711 313.39 85.5857 313.054V307.622H86.7617V315H85.7537L85.6557 314.006C85.3664 314.37 85.0071 314.655 84.5777 314.86C84.1577 315.056 83.7284 315.154 83.2897 315.154C82.5897 315.154 82.0577 314.967 81.6937 314.594C81.3391 314.221 81.1617 313.684 81.1617 312.984V307.622H82.3377V312.858ZM92.4403 313.18C92.4403 313.843 92.8463 314.174 93.6583 314.174C94.0409 314.174 94.4516 314.09 94.8903 313.922L95.1983 314.776C94.7316 315.028 94.1483 315.154 93.4483 315.154C92.7856 315.154 92.2536 314.972 91.8522 314.608C91.4603 314.244 91.2643 313.749 91.2643 313.124V305.592H88.9963V304.654H92.4403V313.18ZM103.817 314.622C103.565 314.79 103.257 314.921 102.893 315.014C102.538 315.107 102.183 315.154 101.829 315.154C101.054 315.154 100.447 314.953 100.009 314.552C99.5701 314.141 99.3508 313.605 99.3508 312.942V308.546H97.6568V307.622H99.3508V305.956L100.527 305.816V307.622H103.089L102.935 308.546H100.527V312.928C100.527 313.348 100.639 313.661 100.863 313.866C101.087 314.071 101.446 314.174 101.941 314.174C102.445 314.174 102.916 314.057 103.355 313.824L103.817 314.622ZM116.406 308.966C116.406 308.658 116.513 308.397 116.728 308.182C116.943 307.958 117.209 307.846 117.526 307.846C117.853 307.846 118.123 307.958 118.338 308.182C118.553 308.397 118.66 308.658 118.66 308.966C118.66 309.283 118.553 309.554 118.338 309.778C118.123 310.002 117.853 310.114 117.526 310.114C117.209 310.114 116.943 310.002 116.728 309.778C116.513 309.554 116.406 309.283 116.406 308.966ZM116.406 314.02C116.406 313.712 116.513 313.446 116.728 313.222C116.943 312.998 117.209 312.886 117.526 312.886C117.853 312.886 118.123 312.998 118.338 313.222C118.553 313.437 118.66 313.703 118.66 314.02C118.66 314.347 118.553 314.617 118.338 314.832C118.123 315.047 117.853 315.154 117.526 315.154C117.209 315.154 116.943 315.047 116.728 314.832C116.513 314.617 116.406 314.347 116.406 314.02ZM124.8 308.966C124.8 308.658 124.908 308.397 125.122 308.182C125.337 307.958 125.603 307.846 125.92 307.846C126.247 307.846 126.518 307.958 126.732 308.182C126.947 308.397 127.054 308.658 127.054 308.966C127.054 309.283 126.947 309.554 126.732 309.778C126.518 310.002 126.247 310.114 125.92 310.114C125.603 310.114 125.337 310.002 125.122 309.778C124.908 309.554 124.8 309.283 124.8 308.966ZM124.8 314.02C124.8 313.712 124.908 313.446 125.122 313.222C125.337 312.998 125.603 312.886 125.92 312.886C126.247 312.886 126.518 312.998 126.732 313.222C126.947 313.437 127.054 313.703 127.054 314.02C127.054 314.347 126.947 314.617 126.732 314.832C126.518 315.047 126.247 315.154 125.92 315.154C125.603 315.154 125.337 315.047 125.122 314.832C124.908 314.617 124.8 314.347 124.8 314.02Z" fill="black"/>
<path d="M32.238 106.048V107H26.68V106.048H29.046V98.642L26.848 99.972L26.33 99.146L29.2 97.354H30.236V106.048H32.238Z" fill="black"/>
<path d="M69.766 97.2C70.354 97.2 70.8673 97.3167 71.306 97.55C71.754 97.7833 72.0947 98.1053 72.328 98.516C72.5613 98.9173 72.678 99.3747 72.678 99.888C72.678 100.485 72.538 101.064 72.258 101.624C71.9873 102.184 71.5487 102.8 70.942 103.472C70.3353 104.135 69.4767 104.975 68.366 105.992H72.902L72.762 107H67.022V106.048C68.282 104.844 69.2153 103.901 69.822 103.22C70.438 102.539 70.8627 101.955 71.096 101.47C71.3293 100.985 71.446 100.471 71.446 99.93C71.446 99.3887 71.292 98.964 70.984 98.656C70.676 98.348 70.2513 98.194 69.71 98.194C69.2527 98.194 68.87 98.2733 68.562 98.432C68.2633 98.5813 67.9553 98.8427 67.638 99.216L66.826 98.586C67.2087 98.11 67.6333 97.76 68.1 97.536C68.576 97.312 69.1313 97.2 69.766 97.2Z" fill="black"/>
<path d="M110.766 97.2C111.354 97.2 111.872 97.312 112.32 97.536C112.768 97.7507 113.113 98.0447 113.356 98.418C113.599 98.782 113.72 99.1833 113.72 99.622C113.72 100.182 113.538 100.672 113.174 101.092C112.81 101.503 112.367 101.759 111.844 101.862C112.451 101.909 112.964 102.137 113.384 102.548C113.813 102.959 114.028 103.519 114.028 104.228C114.028 104.779 113.888 105.278 113.608 105.726C113.328 106.174 112.931 106.524 112.418 106.776C111.914 107.028 111.335 107.154 110.682 107.154C110.113 107.154 109.562 107.047 109.03 106.832C108.507 106.617 108.073 106.3 107.728 105.88L108.512 105.236C108.773 105.544 109.091 105.782 109.464 105.95C109.847 106.109 110.243 106.188 110.654 106.188C111.326 106.188 111.849 106.015 112.222 105.67C112.605 105.315 112.796 104.835 112.796 104.228C112.796 103.005 112.129 102.394 110.794 102.394H109.996L110.136 101.456H110.71C111.214 101.456 111.643 101.316 111.998 101.036C112.353 100.747 112.53 100.327 112.53 99.776C112.53 99.2627 112.357 98.866 112.012 98.586C111.676 98.2967 111.242 98.152 110.71 98.152C110.309 98.152 109.949 98.222 109.632 98.362C109.324 98.502 109.002 98.726 108.666 99.034L108.022 98.32C108.806 97.5733 109.721 97.2 110.766 97.2Z" fill="black"/>
<path d="M156.392 104.662H155.146V107H154.012V104.662H150.008V103.794L152.836 97.2L153.816 97.62L151.254 103.71H154.026L154.124 100.98H155.146V103.71H156.392V104.662Z" fill="black"/>
<path d="M196.65 98.306H192.842V101.344C193.113 101.185 193.379 101.078 193.64 101.022C193.911 100.957 194.195 100.924 194.494 100.924C195.297 100.924 195.936 101.19 196.412 101.722C196.897 102.254 197.14 102.996 197.14 103.948C197.14 104.583 197.005 105.143 196.734 105.628C196.473 106.113 196.095 106.491 195.6 106.762C195.105 107.023 194.531 107.154 193.878 107.154C192.805 107.154 191.871 106.771 191.078 106.006L191.806 105.292C192.394 105.889 193.085 106.188 193.878 106.188C194.522 106.188 195.021 105.992 195.376 105.6C195.731 105.208 195.908 104.643 195.908 103.906C195.908 103.178 195.749 102.655 195.432 102.338C195.115 102.011 194.69 101.848 194.158 101.848C193.906 101.848 193.677 101.871 193.472 101.918C193.267 101.965 192.996 102.049 192.66 102.17H191.708V97.354H196.818L196.65 98.306Z" fill="black"/>
<path d="M234.62 100.728C235.124 100.728 235.581 100.84 235.992 101.064C236.412 101.288 236.743 101.629 236.986 102.086C237.229 102.534 237.35 103.089 237.35 103.752C237.35 104.443 237.215 105.049 236.944 105.572C236.673 106.085 236.309 106.477 235.852 106.748C235.395 107.019 234.881 107.154 234.312 107.154C233.192 107.154 232.375 106.748 231.862 105.936C231.358 105.124 231.106 103.962 231.106 102.45C231.106 101.386 231.246 100.462 231.526 99.678C231.815 98.8847 232.226 98.2733 232.758 97.844C233.299 97.4147 233.943 97.2 234.69 97.2C235.39 97.2 236.029 97.3913 236.608 97.774L236.146 98.558C235.689 98.2873 235.199 98.152 234.676 98.152C233.939 98.152 233.36 98.4973 232.94 99.188C232.529 99.8787 232.315 100.821 232.296 102.016C232.595 101.568 232.935 101.241 233.318 101.036C233.701 100.831 234.135 100.728 234.62 100.728ZM234.312 106.202C234.909 106.202 235.362 105.992 235.67 105.572C235.987 105.143 236.146 104.55 236.146 103.794C236.146 102.385 235.577 101.68 234.438 101.68C233.99 101.68 233.584 101.806 233.22 102.058C232.865 102.301 232.562 102.632 232.31 103.052C232.329 104.144 232.497 104.942 232.814 105.446C233.131 105.95 233.631 106.202 234.312 106.202Z" fill="black"/>
<path d="M274.128 106.804L277.88 98.334H273.358V97.354H279.07V98.264L275.22 107.126L274.128 106.804Z" fill="black"/>
<path d="M319.084 99.65C319.084 100.107 318.944 100.509 318.664 100.854C318.384 101.199 317.969 101.526 317.418 101.834C318.071 102.105 318.58 102.459 318.944 102.898C319.308 103.337 319.49 103.841 319.49 104.41C319.49 104.933 319.355 105.404 319.084 105.824C318.813 106.244 318.426 106.571 317.922 106.804C317.418 107.037 316.835 107.154 316.172 107.154C315.5 107.154 314.917 107.037 314.422 106.804C313.927 106.561 313.549 106.235 313.288 105.824C313.036 105.413 312.91 104.951 312.91 104.438C312.91 103.365 313.559 102.525 314.856 101.918C314.324 101.666 313.932 101.372 313.68 101.036C313.437 100.691 313.316 100.252 313.316 99.72C313.316 99.1693 313.461 98.7027 313.75 98.32C314.039 97.9373 314.403 97.6573 314.842 97.48C315.29 97.2933 315.743 97.2 316.2 97.2C316.695 97.2 317.161 97.2887 317.6 97.466C318.039 97.6433 318.393 97.9187 318.664 98.292C318.944 98.656 319.084 99.1087 319.084 99.65ZM314.464 99.734C314.464 100.089 314.543 100.373 314.702 100.588C314.87 100.793 315.089 100.961 315.36 101.092C315.631 101.213 316.041 101.363 316.592 101.54C317.068 101.26 317.409 100.989 317.614 100.728C317.829 100.457 317.936 100.117 317.936 99.706C317.936 99.2207 317.782 98.838 317.474 98.558C317.175 98.2687 316.751 98.124 316.2 98.124C315.649 98.124 315.22 98.264 314.912 98.544C314.613 98.824 314.464 99.2207 314.464 99.734ZM318.244 104.438C318.244 104.027 318.141 103.696 317.936 103.444C317.731 103.183 317.46 102.977 317.124 102.828C316.797 102.679 316.307 102.487 315.654 102.254C314.655 102.721 314.156 103.449 314.156 104.438C314.156 104.989 314.329 105.423 314.674 105.74C315.019 106.048 315.519 106.202 316.172 106.202C316.825 106.202 317.334 106.039 317.698 105.712C318.062 105.385 318.244 104.961 318.244 104.438Z" fill="black"/>
<path d="M357.046 97.214C358.101 97.214 358.889 97.5407 359.412 98.194C359.935 98.8473 360.196 99.762 360.196 100.938C360.196 102.291 360.019 103.369 359.664 104.172C359.319 104.975 358.782 105.609 358.054 106.076C357.335 106.533 356.337 106.939 355.058 107.294L354.778 106.398C356.15 106.034 357.186 105.535 357.886 104.9C358.586 104.265 358.941 103.393 358.95 102.282C358.707 102.627 358.39 102.912 357.998 103.136C357.615 103.36 357.172 103.472 356.668 103.472C356.136 103.472 355.66 103.346 355.24 103.094C354.829 102.842 354.507 102.487 354.274 102.03C354.041 101.563 353.924 101.017 353.924 100.392C353.924 99.72 354.059 99.146 354.33 98.67C354.61 98.194 354.983 97.8347 355.45 97.592C355.926 97.34 356.458 97.214 357.046 97.214ZM356.864 102.52C357.312 102.52 357.709 102.408 358.054 102.184C358.399 101.96 358.707 101.643 358.978 101.232C358.997 100.112 358.852 99.3233 358.544 98.866C358.236 98.3993 357.737 98.166 357.046 98.166C356.421 98.166 355.949 98.3573 355.632 98.74C355.315 99.1227 355.156 99.6873 355.156 100.434C355.156 101.143 355.301 101.671 355.59 102.016C355.889 102.352 356.313 102.52 356.864 102.52Z" fill="black"/>
<path d="M398.238 106.048V107H392.68V106.048H395.046V98.642L392.848 99.972L392.33 99.146L395.2 97.354H396.236V106.048H398.238ZM403.595 97.2C404.621 97.2 405.401 97.6293 405.933 98.488C406.474 99.3373 406.745 100.565 406.745 102.17C406.745 103.785 406.474 105.021 405.933 105.88C405.401 106.729 404.621 107.154 403.595 107.154C402.568 107.154 401.784 106.729 401.243 105.88C400.711 105.021 400.445 103.785 400.445 102.17C400.445 100.565 400.711 99.3373 401.243 98.488C401.784 97.6293 402.568 97.2 403.595 97.2ZM403.595 98.152C402.316 98.152 401.677 99.4913 401.677 102.17C401.677 104.858 402.316 106.202 403.595 106.202C404.873 106.202 405.513 104.858 405.513 102.17C405.513 99.4913 404.873 98.152 403.595 98.152ZM403.595 101.26C403.856 101.26 404.075 101.349 404.253 101.526C404.43 101.703 404.519 101.918 404.519 102.17C404.519 102.431 404.43 102.651 404.253 102.828C404.075 103.005 403.856 103.094 403.595 103.094C403.333 103.094 403.114 103.005 402.937 102.828C402.769 102.651 402.685 102.431 402.685 102.17C402.685 101.918 402.769 101.703 402.937 101.526C403.114 101.349 403.333 101.26 403.595 101.26Z" fill="black"/>
<path d="M439.238 106.048V107H433.68V106.048H436.046V98.642L433.848 99.972L433.33 99.146L436.2 97.354H437.236V106.048H439.238ZM447.633 106.048V107H442.075V106.048H444.441V98.642L442.243 99.972L441.725 99.146L444.595 97.354H445.631V106.048H447.633Z" fill="black"/>
<path d="M480.238 106.048V107H474.68V106.048H477.046V98.642L474.848 99.972L474.33 99.146L477.2 97.354H478.236V106.048H480.238ZM485.161 97.2C485.749 97.2 486.262 97.3167 486.701 97.55C487.149 97.7833 487.489 98.1053 487.723 98.516C487.956 98.9173 488.073 99.3747 488.073 99.888C488.073 100.485 487.933 101.064 487.653 101.624C487.382 102.184 486.943 102.8 486.337 103.472C485.73 104.135 484.871 104.975 483.761 105.992H488.297L488.157 107H482.417V106.048C483.677 104.844 484.61 103.901 485.217 103.22C485.833 102.539 486.257 101.955 486.491 101.47C486.724 100.985 486.841 100.471 486.841 99.93C486.841 99.3887 486.687 98.964 486.379 98.656C486.071 98.348 485.646 98.194 485.105 98.194C484.647 98.194 484.265 98.2733 483.957 98.432C483.658 98.5813 483.35 98.8427 483.033 99.216L482.221 98.586C482.603 98.11 483.028 97.76 483.495 97.536C483.971 97.312 484.526 97.2 485.161 97.2Z" fill="black"/>
</svg>
