<svg width="523" height="1228" viewBox="0 0 523 1228" fill="none" xmlns="http://www.w3.org/2000/svg">
<rect width="523" height="1228" fill="white"/>
<rect x="7" y="16" width="509" height="346.137" fill="white"/>
<rect x="22" y="308" width="482" height="37" fill="#EEEEEE"/>
<path d="M31.066 319.966C31.066 319.658 31.1733 319.397 31.388 319.182C31.6027 318.958 31.8687 318.846 32.186 318.846C32.5127 318.846 32.7833 318.958 32.998 319.182C33.2127 319.397 33.32 319.658 33.32 319.966C33.32 320.283 33.2127 320.554 32.998 320.778C32.7833 321.002 32.5127 321.114 32.186 321.114C31.8687 321.114 31.6027 321.002 31.388 320.778C31.1733 320.554 31.066 320.283 31.066 319.966ZM31.066 325.02C31.066 324.712 31.1733 324.446 31.388 324.222C31.6027 323.998 31.8687 323.886 32.186 323.886C32.5127 323.886 32.7833 323.998 32.998 324.222C33.2127 324.437 33.32 324.703 33.32 325.02C33.32 325.347 33.2127 325.617 32.998 325.832C32.7833 326.047 32.5127 326.154 32.186 326.154C31.8687 326.154 31.6027 326.047 31.388 325.832C31.1733 325.617 31.066 325.347 31.066 325.02ZM39.4605 319.966C39.4605 319.658 39.5679 319.397 39.7825 319.182C39.9972 318.958 40.2632 318.846 40.5805 318.846C40.9072 318.846 41.1779 318.958 41.3925 319.182C41.6072 319.397 41.7145 319.658 41.7145 319.966C41.7145 320.283 41.6072 320.554 41.3925 320.778C41.1779 321.002 40.9072 321.114 40.5805 321.114C40.2632 321.114 39.9972 321.002 39.7825 320.778C39.5679 320.554 39.4605 320.283 39.4605 319.966ZM39.4605 325.02C39.4605 324.712 39.5679 324.446 39.7825 324.222C39.9972 323.998 40.2632 323.886 40.5805 323.886C40.9072 323.886 41.1779 323.998 41.3925 324.222C41.6072 324.437 41.7145 324.703 41.7145 325.02C41.7145 325.347 41.6072 325.617 41.3925 325.832C41.1779 326.047 40.9072 326.154 40.5805 326.154C40.2632 326.154 39.9972 326.047 39.7825 325.832C39.5679 325.617 39.4605 325.347 39.4605 325.02ZM60.1836 315.654V326H59.1476L59.0356 325.034C58.7649 325.407 58.4523 325.687 58.0976 325.874C57.7429 326.061 57.3603 326.154 56.9496 326.154C56.0163 326.154 55.3116 325.813 54.8356 325.132C54.3689 324.451 54.1356 323.513 54.1356 322.318C54.1356 321.581 54.2523 320.923 54.4856 320.344C54.7189 319.756 55.0503 319.299 55.4796 318.972C55.9183 318.636 56.4316 318.468 57.0196 318.468C57.8316 318.468 58.4943 318.762 59.0076 319.35V315.514L60.1836 315.654ZM57.3276 319.42C56.7116 319.42 56.2356 319.663 55.8996 320.148C55.5729 320.633 55.4096 321.357 55.4096 322.318C55.4096 323.27 55.5589 323.993 55.8576 324.488C56.1656 324.973 56.6089 325.216 57.1876 325.216C57.8876 325.216 58.4943 324.824 59.0076 324.04V320.372C58.8023 320.064 58.5549 319.831 58.2656 319.672C57.9763 319.504 57.6636 319.42 57.3276 319.42ZM63.9161 322.724C63.9441 323.536 64.1541 324.147 64.5461 324.558C64.9475 324.969 65.4515 325.174 66.0581 325.174C66.4221 325.174 66.7535 325.123 67.0521 325.02C67.3601 324.908 67.6868 324.74 68.0321 324.516L68.5781 325.3C68.2328 325.571 67.8361 325.781 67.3881 325.93C66.9495 326.079 66.5061 326.154 66.0581 326.154C64.9941 326.154 64.1635 325.809 63.5661 325.118C62.9781 324.418 62.6841 323.485 62.6841 322.318C62.6841 321.581 62.8148 320.923 63.0761 320.344C63.3375 319.756 63.7108 319.299 64.1961 318.972C64.6815 318.636 65.2461 318.468 65.8901 318.468C66.8235 318.468 67.5561 318.795 68.0881 319.448C68.6295 320.092 68.9001 320.974 68.9001 322.094C68.9001 322.309 68.8908 322.519 68.8721 322.724H63.9161ZM65.9041 319.434C65.3348 319.434 64.8728 319.639 64.5181 320.05C64.1635 320.451 63.9628 321.044 63.9161 321.828H67.7521C67.7428 321.053 67.5748 320.461 67.2481 320.05C66.9215 319.639 66.4735 319.434 65.9041 319.434ZM75.7267 315.514C76.4267 315.514 77.094 315.645 77.7287 315.906L77.3507 316.788C76.884 316.583 76.3567 316.48 75.7687 316.48C74.742 316.48 74.2287 316.886 74.2287 317.698V319.196H76.7207L76.5947 320.134H74.2287V326H73.0387V320.134H71.2887V319.196H73.0387V317.726C73.0387 317.063 73.2907 316.531 73.7947 316.13C74.308 315.719 74.952 315.514 75.7267 315.514ZM85.0592 324.39C85.0592 324.679 85.1059 324.894 85.1992 325.034C85.2925 325.165 85.4465 325.263 85.6612 325.328L85.3672 326.168C84.6485 326.075 84.2005 325.725 84.0232 325.118C83.7619 325.454 83.4305 325.711 83.0292 325.888C82.6372 326.065 82.1985 326.154 81.7132 326.154C80.9759 326.154 80.3925 325.949 79.9632 325.538C79.5432 325.127 79.3332 324.577 79.3332 323.886C79.3332 323.13 79.6272 322.547 80.2152 322.136C80.8125 321.725 81.6665 321.52 82.7772 321.52H83.8692V320.918C83.8692 320.395 83.7199 320.022 83.4212 319.798C83.1225 319.565 82.6885 319.448 82.1192 319.448C81.5592 319.448 80.9199 319.574 80.2012 319.826L79.8792 318.93C80.7472 318.622 81.5545 318.468 82.3012 318.468C83.1972 318.468 83.8785 318.678 84.3452 319.098C84.8212 319.518 85.0592 320.101 85.0592 320.848V324.39ZM82.0072 325.272C82.3712 325.272 82.7165 325.179 83.0432 324.992C83.3792 324.805 83.6545 324.549 83.8692 324.222V322.332H82.8052C82.0212 322.332 81.4565 322.463 81.1112 322.724C80.7659 322.985 80.5932 323.368 80.5932 323.872C80.5932 324.805 81.0645 325.272 82.0072 325.272ZM89.3377 323.858C89.3377 324.334 89.4357 324.684 89.6317 324.908C89.8371 325.123 90.1544 325.23 90.5837 325.23C90.9757 325.23 91.3537 325.118 91.7177 324.894C92.0817 324.67 92.3711 324.39 92.5857 324.054V318.622H93.7617V326H92.7537L92.6557 325.006C92.3664 325.37 92.0071 325.655 91.5777 325.86C91.1577 326.056 90.7284 326.154 90.2897 326.154C89.5897 326.154 89.0577 325.967 88.6937 325.594C88.3391 325.221 88.1617 324.684 88.1617 323.984V318.622H89.3377V323.858ZM99.4403 324.18C99.4403 324.843 99.8463 325.174 100.658 325.174C101.041 325.174 101.452 325.09 101.89 324.922L102.198 325.776C101.732 326.028 101.148 326.154 100.448 326.154C99.7856 326.154 99.2536 325.972 98.8522 325.608C98.4603 325.244 98.2643 324.749 98.2643 324.124V316.592H95.9963V315.654H99.4403V324.18ZM110.817 325.622C110.565 325.79 110.257 325.921 109.893 326.014C109.538 326.107 109.183 326.154 108.829 326.154C108.054 326.154 107.447 325.953 107.009 325.552C106.57 325.141 106.351 324.605 106.351 323.942V319.546H104.657V318.622H106.351V316.956L107.527 316.816V318.622H110.089L109.935 319.546H107.527V323.928C107.527 324.348 107.639 324.661 107.863 324.866C108.087 325.071 108.446 325.174 108.941 325.174C109.445 325.174 109.916 325.057 110.355 324.824L110.817 325.622ZM123.406 319.966C123.406 319.658 123.513 319.397 123.728 319.182C123.943 318.958 124.209 318.846 124.526 318.846C124.853 318.846 125.123 318.958 125.338 319.182C125.553 319.397 125.66 319.658 125.66 319.966C125.66 320.283 125.553 320.554 125.338 320.778C125.123 321.002 124.853 321.114 124.526 321.114C124.209 321.114 123.943 321.002 123.728 320.778C123.513 320.554 123.406 320.283 123.406 319.966ZM123.406 325.02C123.406 324.712 123.513 324.446 123.728 324.222C123.943 323.998 124.209 323.886 124.526 323.886C124.853 323.886 125.123 323.998 125.338 324.222C125.553 324.437 125.66 324.703 125.66 325.02C125.66 325.347 125.553 325.617 125.338 325.832C125.123 326.047 124.853 326.154 124.526 326.154C124.209 326.154 123.943 326.047 123.728 325.832C123.513 325.617 123.406 325.347 123.406 325.02ZM131.8 319.966C131.8 319.658 131.908 319.397 132.122 319.182C132.337 318.958 132.603 318.846 132.92 318.846C133.247 318.846 133.518 318.958 133.732 319.182C133.947 319.397 134.054 319.658 134.054 319.966C134.054 320.283 133.947 320.554 133.732 320.778C133.518 321.002 133.247 321.114 132.92 321.114C132.603 321.114 132.337 321.002 132.122 320.778C131.908 320.554 131.8 320.283 131.8 319.966ZM131.8 325.02C131.8 324.712 131.908 324.446 132.122 324.222C132.337 323.998 132.603 323.886 132.92 323.886C133.247 323.886 133.518 323.998 133.732 324.222C133.947 324.437 134.054 324.703 134.054 325.02C134.054 325.347 133.947 325.617 133.732 325.832C133.518 326.047 133.247 326.154 132.92 326.154C132.603 326.154 132.337 326.047 132.122 325.832C131.908 325.617 131.8 325.347 131.8 325.02Z" fill="black"/>
<rect x="22" y="28.1367" width="482" height="65" fill="#EEEEEE"/>
<rect x="22" y="115" width="235" height="180" fill="#EEEEEE"/>
<path d="M33.066 132.966C33.066 132.658 33.1733 132.397 33.388 132.182C33.6027 131.958 33.8687 131.846 34.186 131.846C34.5127 131.846 34.7833 131.958 34.998 132.182C35.2127 132.397 35.32 132.658 35.32 132.966C35.32 133.283 35.2127 133.554 34.998 133.778C34.7833 134.002 34.5127 134.114 34.186 134.114C33.8687 134.114 33.6027 134.002 33.388 133.778C33.1733 133.554 33.066 133.283 33.066 132.966ZM33.066 138.02C33.066 137.712 33.1733 137.446 33.388 137.222C33.6027 136.998 33.8687 136.886 34.186 136.886C34.5127 136.886 34.7833 136.998 34.998 137.222C35.2127 137.437 35.32 137.703 35.32 138.02C35.32 138.347 35.2127 138.617 34.998 138.832C34.7833 139.047 34.5127 139.154 34.186 139.154C33.8687 139.154 33.6027 139.047 33.388 138.832C33.1733 138.617 33.066 138.347 33.066 138.02ZM41.4605 132.966C41.4605 132.658 41.5679 132.397 41.7825 132.182C41.9972 131.958 42.2632 131.846 42.5805 131.846C42.9072 131.846 43.1779 131.958 43.3925 132.182C43.6072 132.397 43.7145 132.658 43.7145 132.966C43.7145 133.283 43.6072 133.554 43.3925 133.778C43.1779 134.002 42.9072 134.114 42.5805 134.114C42.2632 134.114 41.9972 134.002 41.7825 133.778C41.5679 133.554 41.4605 133.283 41.4605 132.966ZM41.4605 138.02C41.4605 137.712 41.5679 137.446 41.7825 137.222C41.9972 136.998 42.2632 136.886 42.5805 136.886C42.9072 136.886 43.1779 136.998 43.3925 137.222C43.6072 137.437 43.7145 137.703 43.7145 138.02C43.7145 138.347 43.6072 138.617 43.3925 138.832C43.1779 139.047 42.9072 139.154 42.5805 139.154C42.2632 139.154 41.9972 139.047 41.7825 138.832C41.5679 138.617 41.4605 138.347 41.4605 138.02ZM59.4676 137.18C59.4676 137.843 59.8736 138.174 60.6856 138.174C61.0683 138.174 61.4789 138.09 61.9176 137.922L62.2256 138.776C61.7589 139.028 61.1756 139.154 60.4756 139.154C59.8129 139.154 59.2809 138.972 58.8796 138.608C58.4876 138.244 58.2916 137.749 58.2916 137.124V129.592H56.0236V128.654H59.4676V137.18ZM65.9161 135.724C65.9441 136.536 66.1541 137.147 66.5461 137.558C66.9475 137.969 67.4515 138.174 68.0581 138.174C68.4221 138.174 68.7535 138.123 69.0521 138.02C69.3601 137.908 69.6868 137.74 70.0321 137.516L70.5781 138.3C70.2328 138.571 69.8361 138.781 69.3881 138.93C68.9495 139.079 68.5061 139.154 68.0581 139.154C66.9941 139.154 66.1635 138.809 65.5661 138.118C64.9781 137.418 64.6841 136.485 64.6841 135.318C64.6841 134.581 64.8148 133.923 65.0761 133.344C65.3375 132.756 65.7108 132.299 66.1961 131.972C66.6815 131.636 67.2461 131.468 67.8901 131.468C68.8235 131.468 69.5561 131.795 70.0881 132.448C70.6295 133.092 70.9001 133.974 70.9001 135.094C70.9001 135.309 70.8908 135.519 70.8721 135.724H65.9161ZM67.9041 132.434C67.3348 132.434 66.8728 132.639 66.5181 133.05C66.1635 133.451 65.9628 134.044 65.9161 134.828H69.7521C69.7428 134.053 69.5748 133.461 69.2481 133.05C68.9215 132.639 68.4735 132.434 67.9041 132.434ZM77.7267 128.514C78.4267 128.514 79.094 128.645 79.7287 128.906L79.3507 129.788C78.884 129.583 78.3567 129.48 77.7687 129.48C76.742 129.48 76.2287 129.886 76.2287 130.698V132.196H78.7207L78.5947 133.134H76.2287V139H75.0387V133.134H73.2887V132.196H75.0387V130.726C75.0387 130.063 75.2907 129.531 75.7947 129.13C76.308 128.719 76.952 128.514 77.7267 128.514ZM87.6332 138.622C87.3812 138.79 87.0732 138.921 86.7092 139.014C86.3545 139.107 85.9999 139.154 85.6452 139.154C84.8705 139.154 84.2639 138.953 83.8252 138.552C83.3865 138.141 83.1672 137.605 83.1672 136.942V132.546H81.4732V131.622H83.1672V129.956L84.3432 129.816V131.622H86.9052L86.7512 132.546H84.3432V136.928C84.3432 137.348 84.4552 137.661 84.6792 137.866C84.9032 138.071 85.2625 138.174 85.7572 138.174C86.2612 138.174 86.7325 138.057 87.1712 137.824L87.6332 138.622ZM100.222 132.966C100.222 132.658 100.33 132.397 100.544 132.182C100.759 131.958 101.025 131.846 101.342 131.846C101.669 131.846 101.94 131.958 102.154 132.182C102.369 132.397 102.476 132.658 102.476 132.966C102.476 133.283 102.369 133.554 102.154 133.778C101.94 134.002 101.669 134.114 101.342 134.114C101.025 134.114 100.759 134.002 100.544 133.778C100.33 133.554 100.222 133.283 100.222 132.966ZM100.222 138.02C100.222 137.712 100.33 137.446 100.544 137.222C100.759 136.998 101.025 136.886 101.342 136.886C101.669 136.886 101.94 136.998 102.154 137.222C102.369 137.437 102.476 137.703 102.476 138.02C102.476 138.347 102.369 138.617 102.154 138.832C101.94 139.047 101.669 139.154 101.342 139.154C101.025 139.154 100.759 139.047 100.544 138.832C100.33 138.617 100.222 138.347 100.222 138.02ZM108.617 132.966C108.617 132.658 108.724 132.397 108.939 132.182C109.153 131.958 109.419 131.846 109.737 131.846C110.063 131.846 110.334 131.958 110.549 132.182C110.763 132.397 110.871 132.658 110.871 132.966C110.871 133.283 110.763 133.554 110.549 133.778C110.334 134.002 110.063 134.114 109.737 134.114C109.419 134.114 109.153 134.002 108.939 133.778C108.724 133.554 108.617 133.283 108.617 132.966ZM108.617 138.02C108.617 137.712 108.724 137.446 108.939 137.222C109.153 136.998 109.419 136.886 109.737 136.886C110.063 136.886 110.334 136.998 110.549 137.222C110.763 137.437 110.871 137.703 110.871 138.02C110.871 138.347 110.763 138.617 110.549 138.832C110.334 139.047 110.063 139.154 109.737 139.154C109.419 139.154 109.153 139.047 108.939 138.832C108.724 138.617 108.617 138.347 108.617 138.02Z" fill="black"/>
<rect x="265" y="115" width="239" height="180" fill="#EEEEEE"/>
<path d="M282.066 132.966C282.066 132.658 282.173 132.397 282.388 132.182C282.603 131.958 282.869 131.846 283.186 131.846C283.513 131.846 283.783 131.958 283.998 132.182C284.213 132.397 284.32 132.658 284.32 132.966C284.32 133.283 284.213 133.554 283.998 133.778C283.783 134.002 283.513 134.114 283.186 134.114C282.869 134.114 282.603 134.002 282.388 133.778C282.173 133.554 282.066 133.283 282.066 132.966ZM282.066 138.02C282.066 137.712 282.173 137.446 282.388 137.222C282.603 136.998 282.869 136.886 283.186 136.886C283.513 136.886 283.783 136.998 283.998 137.222C284.213 137.437 284.32 137.703 284.32 138.02C284.32 138.347 284.213 138.617 283.998 138.832C283.783 139.047 283.513 139.154 283.186 139.154C282.869 139.154 282.603 139.047 282.388 138.832C282.173 138.617 282.066 138.347 282.066 138.02ZM290.461 132.966C290.461 132.658 290.568 132.397 290.783 132.182C290.997 131.958 291.263 131.846 291.581 131.846C291.907 131.846 292.178 131.958 292.393 132.182C292.607 132.397 292.715 132.658 292.715 132.966C292.715 133.283 292.607 133.554 292.393 133.778C292.178 134.002 291.907 134.114 291.581 134.114C291.263 134.114 290.997 134.002 290.783 133.778C290.568 133.554 290.461 133.283 290.461 132.966ZM290.461 138.02C290.461 137.712 290.568 137.446 290.783 137.222C290.997 136.998 291.263 136.886 291.581 136.886C291.907 136.886 292.178 136.998 292.393 137.222C292.607 137.437 292.715 137.703 292.715 138.02C292.715 138.347 292.607 138.617 292.393 138.832C292.178 139.047 291.907 139.154 291.581 139.154C291.263 139.154 290.997 139.047 290.783 138.832C290.568 138.617 290.461 138.347 290.461 138.02ZM310.568 131.468C310.866 131.468 311.212 131.519 311.604 131.622L311.436 134.128H310.484V132.546H310.414C309.275 132.546 308.468 133.358 307.992 134.982V138.09H309.49V139H305.654V138.09H306.816V132.532H305.654V131.622H307.698L307.922 133.372C308.22 132.737 308.575 132.261 308.986 131.944C309.406 131.627 309.933 131.468 310.568 131.468ZM316.778 128.178C317.039 128.178 317.249 128.257 317.408 128.416C317.567 128.565 317.646 128.761 317.646 129.004C317.646 129.247 317.567 129.447 317.408 129.606C317.249 129.755 317.039 129.83 316.778 129.83C316.526 129.83 316.321 129.755 316.162 129.606C316.013 129.447 315.938 129.247 315.938 129.004C315.938 128.761 316.013 128.565 316.162 128.416C316.321 128.257 316.526 128.178 316.778 128.178ZM317.716 138.062H319.788V139H314.272V138.062H316.54V132.56H314.342V131.622H317.716V138.062ZM328.729 131.958C328.449 132.051 328.145 132.112 327.819 132.14C327.492 132.159 327.077 132.168 326.573 132.168C327.431 132.56 327.861 133.181 327.861 134.03C327.861 134.777 327.613 135.383 327.119 135.85C326.624 136.307 325.947 136.536 325.089 136.536C324.65 136.536 324.281 136.485 323.983 136.382C323.871 136.466 323.777 136.573 323.703 136.704C323.637 136.835 323.605 136.965 323.605 137.096C323.605 137.516 323.931 137.726 324.585 137.726H325.915C326.4 137.726 326.839 137.815 327.231 137.992C327.632 138.16 327.945 138.398 328.169 138.706C328.402 139.014 328.519 139.355 328.519 139.728C328.519 140.447 328.211 140.997 327.595 141.38C326.988 141.772 326.125 141.968 325.005 141.968C323.866 141.968 323.063 141.791 322.597 141.436C322.13 141.081 321.897 140.517 321.897 139.742H322.961C322.961 140.05 323.017 140.293 323.129 140.47C323.25 140.657 323.455 140.792 323.745 140.876C324.043 140.969 324.463 141.016 325.005 141.016C325.798 141.016 326.381 140.913 326.755 140.708C327.137 140.503 327.329 140.199 327.329 139.798C327.329 139.462 327.175 139.201 326.867 139.014C326.559 138.837 326.162 138.748 325.677 138.748H324.361C323.754 138.748 323.292 138.617 322.975 138.356C322.657 138.085 322.499 137.749 322.499 137.348C322.499 137.115 322.569 136.886 322.709 136.662C322.849 136.429 323.049 136.228 323.311 136.06C322.891 135.845 322.578 135.575 322.373 135.248C322.177 134.912 322.079 134.506 322.079 134.03C322.079 133.535 322.2 133.097 322.443 132.714C322.695 132.322 323.04 132.019 323.479 131.804C323.927 131.58 324.44 131.468 325.019 131.468C325.859 131.468 326.498 131.421 326.937 131.328C327.375 131.235 327.856 131.076 328.379 130.852L328.729 131.958ZM325.005 132.336C324.435 132.336 324.006 132.49 323.717 132.798C323.427 133.097 323.283 133.507 323.283 134.03C323.283 134.553 323.427 134.973 323.717 135.29C324.015 135.598 324.454 135.752 325.033 135.752C325.555 135.752 325.952 135.603 326.223 135.304C326.503 134.996 326.643 134.567 326.643 134.016C326.643 132.896 326.097 132.336 325.005 132.336ZM331.943 132.644C332.233 132.271 332.587 131.981 333.007 131.776C333.427 131.571 333.861 131.468 334.309 131.468C335.691 131.468 336.381 132.196 336.381 133.652V139H335.205V133.666C335.205 133.227 335.103 132.91 334.897 132.714C334.692 132.509 334.365 132.406 333.917 132.406C333.535 132.406 333.166 132.527 332.811 132.77C332.457 133.013 332.167 133.297 331.943 133.624V139H330.767V128.668L331.943 128.542V132.644ZM345.028 138.622C344.776 138.79 344.468 138.921 344.104 139.014C343.749 139.107 343.394 139.154 343.04 139.154C342.265 139.154 341.658 138.953 341.22 138.552C340.781 138.141 340.562 137.605 340.562 136.942V132.546H338.868V131.622H340.562V129.956L341.738 129.816V131.622H344.3L344.146 132.546H341.738V136.928C341.738 137.348 341.85 137.661 342.074 137.866C342.298 138.071 342.657 138.174 343.152 138.174C343.656 138.174 344.127 138.057 344.566 137.824L345.028 138.622ZM357.617 132.966C357.617 132.658 357.724 132.397 357.939 132.182C358.153 131.958 358.419 131.846 358.737 131.846C359.063 131.846 359.334 131.958 359.549 132.182C359.763 132.397 359.871 132.658 359.871 132.966C359.871 133.283 359.763 133.554 359.549 133.778C359.334 134.002 359.063 134.114 358.737 134.114C358.419 134.114 358.153 134.002 357.939 133.778C357.724 133.554 357.617 133.283 357.617 132.966ZM357.617 138.02C357.617 137.712 357.724 137.446 357.939 137.222C358.153 136.998 358.419 136.886 358.737 136.886C359.063 136.886 359.334 136.998 359.549 137.222C359.763 137.437 359.871 137.703 359.871 138.02C359.871 138.347 359.763 138.617 359.549 138.832C359.334 139.047 359.063 139.154 358.737 139.154C358.419 139.154 358.153 139.047 357.939 138.832C357.724 138.617 357.617 138.347 357.617 138.02ZM366.011 132.966C366.011 132.658 366.119 132.397 366.333 132.182C366.548 131.958 366.814 131.846 367.131 131.846C367.458 131.846 367.729 131.958 367.943 132.182C368.158 132.397 368.265 132.658 368.265 132.966C368.265 133.283 368.158 133.554 367.943 133.778C367.729 134.002 367.458 134.114 367.131 134.114C366.814 134.114 366.548 134.002 366.333 133.778C366.119 133.554 366.011 133.283 366.011 132.966ZM366.011 138.02C366.011 137.712 366.119 137.446 366.333 137.222C366.548 136.998 366.814 136.886 367.131 136.886C367.458 136.886 367.729 136.998 367.943 137.222C368.158 137.437 368.265 137.703 368.265 138.02C368.265 138.347 368.158 138.617 367.943 138.832C367.729 139.047 367.458 139.154 367.131 139.154C366.814 139.154 366.548 139.047 366.333 138.832C366.119 138.617 366.011 138.347 366.011 138.02Z" fill="black"/>
<path d="M31.066 43.3869C31.066 43.0789 31.1733 42.8176 31.388 42.6029C31.6027 42.3789 31.8687 42.2669 32.186 42.2669C32.5127 42.2669 32.7833 42.3789 32.998 42.6029C33.2127 42.8176 33.32 43.0789 33.32 43.3869C33.32 43.7042 33.2127 43.9749 32.998 44.1989C32.7833 44.4229 32.5127 44.5349 32.186 44.5349C31.8687 44.5349 31.6027 44.4229 31.388 44.1989C31.1733 43.9749 31.066 43.7042 31.066 43.3869ZM31.066 48.4409C31.066 48.1329 31.1733 47.8669 31.388 47.6429C31.6027 47.4189 31.8687 47.3069 32.186 47.3069C32.5127 47.3069 32.7833 47.4189 32.998 47.6429C33.2127 47.8576 33.32 48.1236 33.32 48.4409C33.32 48.7676 33.2127 49.0382 32.998 49.2529C32.7833 49.4676 32.5127 49.5749 32.186 49.5749C31.8687 49.5749 31.6027 49.4676 31.388 49.2529C31.1733 49.0382 31.066 48.7676 31.066 48.4409ZM39.4605 43.3869C39.4605 43.0789 39.5679 42.8176 39.7825 42.6029C39.9972 42.3789 40.2632 42.2669 40.5805 42.2669C40.9072 42.2669 41.1779 42.3789 41.3925 42.6029C41.6072 42.8176 41.7145 43.0789 41.7145 43.3869C41.7145 43.7042 41.6072 43.9749 41.3925 44.1989C41.1779 44.4229 40.9072 44.5349 40.5805 44.5349C40.2632 44.5349 39.9972 44.4229 39.7825 44.1989C39.5679 43.9749 39.4605 43.7042 39.4605 43.3869ZM39.4605 48.4409C39.4605 48.1329 39.5679 47.8669 39.7825 47.6429C39.9972 47.4189 40.2632 47.3069 40.5805 47.3069C40.9072 47.3069 41.1779 47.4189 41.3925 47.6429C41.6072 47.8576 41.7145 48.1236 41.7145 48.4409C41.7145 48.7676 41.6072 49.0382 41.3925 49.2529C41.1779 49.4676 40.9072 49.5749 40.5805 49.5749C40.2632 49.5749 39.9972 49.4676 39.7825 49.2529C39.5679 49.0382 39.4605 48.7676 39.4605 48.4409ZM60.4496 49.0429C60.1976 49.2109 59.8896 49.3416 59.5256 49.4349C59.1709 49.5282 58.8163 49.5749 58.4616 49.5749C57.6869 49.5749 57.0803 49.3742 56.6416 48.9729C56.2029 48.5622 55.9836 48.0256 55.9836 47.3629V42.9669H54.2896V42.0429H55.9836V40.3769L57.1596 40.2369V42.0429H59.7216L59.5676 42.9669H57.1596V47.3489C57.1596 47.7689 57.2716 48.0816 57.4956 48.2869C57.7196 48.4922 58.0789 48.5949 58.5736 48.5949C59.0776 48.5949 59.5489 48.4782 59.9876 48.2449L60.4496 49.0429ZM65.7781 38.5989C66.0395 38.5989 66.2495 38.6782 66.4081 38.8369C66.5668 38.9862 66.6461 39.1822 66.6461 39.4249C66.6461 39.6676 66.5668 39.8682 66.4081 40.0269C66.2495 40.1762 66.0395 40.2509 65.7781 40.2509C65.5261 40.2509 65.3208 40.1762 65.1621 40.0269C65.0128 39.8682 64.9381 39.6676 64.9381 39.4249C64.9381 39.1822 65.0128 38.9862 65.1621 38.8369C65.3208 38.6782 65.5261 38.5989 65.7781 38.5989ZM66.7161 48.4829H68.7881V49.4209H63.2721V48.4829H65.5401V42.9809H63.3421V42.0429H66.7161V48.4829ZM77.2387 49.0429C76.9867 49.2109 76.6787 49.3416 76.3147 49.4349C75.96 49.5282 75.6053 49.5749 75.2507 49.5749C74.476 49.5749 73.8693 49.3742 73.4307 48.9729C72.992 48.5622 72.7727 48.0256 72.7727 47.3629V42.9669H71.0787V42.0429H72.7727V40.3769L73.9487 40.2369V42.0429H76.5107L76.3567 42.9669H73.9487V47.3489C73.9487 47.7689 74.0607 48.0816 74.2847 48.2869C74.5087 48.4922 74.868 48.5949 75.3627 48.5949C75.8667 48.5949 76.338 48.4782 76.7767 48.2449L77.2387 49.0429ZM82.6512 47.6009C82.6512 48.2636 83.0572 48.5949 83.8692 48.5949C84.2519 48.5949 84.6625 48.5109 85.1012 48.3429L85.4092 49.1969C84.9425 49.4489 84.3592 49.5749 83.6592 49.5749C82.9965 49.5749 82.4645 49.3929 82.0632 49.0289C81.6712 48.6649 81.4752 48.1702 81.4752 47.5449V40.0129H79.2072V39.0749H82.6512V47.6009ZM89.0997 46.1449C89.1277 46.9569 89.3377 47.5682 89.7297 47.9789C90.1311 48.3896 90.6351 48.5949 91.2417 48.5949C91.6057 48.5949 91.9371 48.5436 92.2357 48.4409C92.5437 48.3289 92.8704 48.1609 93.2157 47.9369L93.7617 48.7209C93.4164 48.9916 93.0197 49.2016 92.5717 49.3509C92.1331 49.5002 91.6897 49.5749 91.2417 49.5749C90.1777 49.5749 89.3471 49.2296 88.7497 48.5389C88.1617 47.8389 87.8677 46.9056 87.8677 45.7389C87.8677 45.0016 87.9984 44.3436 88.2597 43.7649C88.5211 43.1769 88.8944 42.7196 89.3797 42.3929C89.8651 42.0569 90.4297 41.8889 91.0737 41.8889C92.0071 41.8889 92.7397 42.2156 93.2717 42.8689C93.8131 43.5129 94.0837 44.3949 94.0837 45.5149C94.0837 45.7296 94.0744 45.9396 94.0557 46.1449H89.0997ZM91.0877 42.8549C90.5184 42.8549 90.0564 43.0602 89.7017 43.4709C89.3471 43.8722 89.1464 44.4649 89.0997 45.2489H92.9357C92.9264 44.4742 92.7584 43.8816 92.4317 43.4709C92.1051 43.0602 91.6571 42.8549 91.0877 42.8549ZM106.617 43.3869C106.617 43.0789 106.724 42.8176 106.939 42.6029C107.153 42.3789 107.419 42.2669 107.737 42.2669C108.063 42.2669 108.334 42.3789 108.549 42.6029C108.763 42.8176 108.871 43.0789 108.871 43.3869C108.871 43.7042 108.763 43.9749 108.549 44.1989C108.334 44.4229 108.063 44.5349 107.737 44.5349C107.419 44.5349 107.153 44.4229 106.939 44.1989C106.724 43.9749 106.617 43.7042 106.617 43.3869ZM106.617 48.4409C106.617 48.1329 106.724 47.8669 106.939 47.6429C107.153 47.4189 107.419 47.3069 107.737 47.3069C108.063 47.3069 108.334 47.4189 108.549 47.6429C108.763 47.8576 108.871 48.1236 108.871 48.4409C108.871 48.7676 108.763 49.0382 108.549 49.2529C108.334 49.4676 108.063 49.5749 107.737 49.5749C107.419 49.5749 107.153 49.4676 106.939 49.2529C106.724 49.0382 106.617 48.7676 106.617 48.4409ZM115.011 43.3869C115.011 43.0789 115.119 42.8176 115.333 42.6029C115.548 42.3789 115.814 42.2669 116.131 42.2669C116.458 42.2669 116.729 42.3789 116.943 42.6029C117.158 42.8176 117.265 43.0789 117.265 43.3869C117.265 43.7042 117.158 43.9749 116.943 44.1989C116.729 44.4229 116.458 44.5349 116.131 44.5349C115.814 44.5349 115.548 44.4229 115.333 44.1989C115.119 43.9749 115.011 43.7042 115.011 43.3869ZM115.011 48.4409C115.011 48.1329 115.119 47.8669 115.333 47.6429C115.548 47.4189 115.814 47.3069 116.131 47.3069C116.458 47.3069 116.729 47.4189 116.943 47.6429C117.158 47.8576 117.265 48.1236 117.265 48.4409C117.265 48.7676 117.158 49.0382 116.943 49.2529C116.729 49.4676 116.458 49.5749 116.131 49.5749C115.814 49.5749 115.548 49.4676 115.333 49.2529C115.119 49.0382 115.011 48.7676 115.011 48.4409Z" fill="black"/>
<rect x="7" y="421" width="509" height="346.137" fill="white"/>
<rect x="22" y="631" width="482" height="65" fill="#EEEEEE"/>
<path d="M31.066 646.25C31.066 645.942 31.1733 645.681 31.388 645.466C31.6027 645.242 31.8687 645.13 32.186 645.13C32.5127 645.13 32.7833 645.242 32.998 645.466C33.2127 645.681 33.32 645.942 33.32 646.25C33.32 646.568 33.2127 646.838 32.998 647.062C32.7833 647.286 32.5127 647.398 32.186 647.398C31.8687 647.398 31.6027 647.286 31.388 647.062C31.1733 646.838 31.066 646.568 31.066 646.25ZM31.066 651.304C31.066 650.996 31.1733 650.73 31.388 650.506C31.6027 650.282 31.8687 650.17 32.186 650.17C32.5127 650.17 32.7833 650.282 32.998 650.506C33.2127 650.721 33.32 650.987 33.32 651.304C33.32 651.631 33.2127 651.902 32.998 652.116C32.7833 652.331 32.5127 652.438 32.186 652.438C31.8687 652.438 31.6027 652.331 31.388 652.116C31.1733 651.902 31.066 651.631 31.066 651.304ZM39.4605 646.25C39.4605 645.942 39.5679 645.681 39.7825 645.466C39.9972 645.242 40.2632 645.13 40.5805 645.13C40.9072 645.13 41.1779 645.242 41.3925 645.466C41.6072 645.681 41.7145 645.942 41.7145 646.25C41.7145 646.568 41.6072 646.838 41.3925 647.062C41.1779 647.286 40.9072 647.398 40.5805 647.398C40.2632 647.398 39.9972 647.286 39.7825 647.062C39.5679 646.838 39.4605 646.568 39.4605 646.25ZM39.4605 651.304C39.4605 650.996 39.5679 650.73 39.7825 650.506C39.9972 650.282 40.2632 650.17 40.5805 650.17C40.9072 650.17 41.1779 650.282 41.3925 650.506C41.6072 650.721 41.7145 650.987 41.7145 651.304C41.7145 651.631 41.6072 651.902 41.3925 652.116C41.1779 652.331 40.9072 652.438 40.5805 652.438C40.2632 652.438 39.9972 652.331 39.7825 652.116C39.5679 651.902 39.4605 651.631 39.4605 651.304ZM60.4496 651.906C60.1976 652.074 59.8896 652.205 59.5256 652.298C59.1709 652.392 58.8163 652.438 58.4616 652.438C57.6869 652.438 57.0803 652.238 56.6416 651.836C56.2029 651.426 55.9836 650.889 55.9836 650.226V645.83H54.2896V644.906H55.9836V643.24L57.1596 643.1V644.906H59.7216L59.5676 645.83H57.1596V650.212C57.1596 650.632 57.2716 650.945 57.4956 651.15C57.7196 651.356 58.0789 651.458 58.5736 651.458C59.0776 651.458 59.5489 651.342 59.9876 651.108L60.4496 651.906ZM65.7781 641.462C66.0395 641.462 66.2495 641.542 66.4081 641.7C66.5668 641.85 66.6461 642.046 66.6461 642.288C66.6461 642.531 66.5668 642.732 66.4081 642.89C66.2495 643.04 66.0395 643.114 65.7781 643.114C65.5261 643.114 65.3208 643.04 65.1621 642.89C65.0128 642.732 64.9381 642.531 64.9381 642.288C64.9381 642.046 65.0128 641.85 65.1621 641.7C65.3208 641.542 65.5261 641.462 65.7781 641.462ZM66.7161 651.346H68.7881V652.284H63.2721V651.346H65.5401V645.844H63.3421V644.906H66.7161V651.346ZM77.2387 651.906C76.9867 652.074 76.6787 652.205 76.3147 652.298C75.96 652.392 75.6053 652.438 75.2507 652.438C74.476 652.438 73.8693 652.238 73.4307 651.836C72.992 651.426 72.7727 650.889 72.7727 650.226V645.83H71.0787V644.906H72.7727V643.24L73.9487 643.1V644.906H76.5107L76.3567 645.83H73.9487V650.212C73.9487 650.632 74.0607 650.945 74.2847 651.15C74.5087 651.356 74.868 651.458 75.3627 651.458C75.8667 651.458 76.338 651.342 76.7767 651.108L77.2387 651.906ZM82.6512 650.464C82.6512 651.127 83.0572 651.458 83.8692 651.458C84.2519 651.458 84.6625 651.374 85.1012 651.206L85.4092 652.06C84.9425 652.312 84.3592 652.438 83.6592 652.438C82.9965 652.438 82.4645 652.256 82.0632 651.892C81.6712 651.528 81.4752 651.034 81.4752 650.408V642.876H79.2072V641.938H82.6512V650.464ZM89.0997 649.008C89.1277 649.82 89.3377 650.432 89.7297 650.842C90.1311 651.253 90.6351 651.458 91.2417 651.458C91.6057 651.458 91.9371 651.407 92.2357 651.304C92.5437 651.192 92.8704 651.024 93.2157 650.8L93.7617 651.584C93.4164 651.855 93.0197 652.065 92.5717 652.214C92.1331 652.364 91.6897 652.438 91.2417 652.438C90.1777 652.438 89.3471 652.093 88.7497 651.402C88.1617 650.702 87.8677 649.769 87.8677 648.602C87.8677 647.865 87.9984 647.207 88.2597 646.628C88.5211 646.04 88.8944 645.583 89.3797 645.256C89.8651 644.92 90.4297 644.752 91.0737 644.752C92.0071 644.752 92.7397 645.079 93.2717 645.732C93.8131 646.376 94.0837 647.258 94.0837 648.378C94.0837 648.593 94.0744 648.803 94.0557 649.008H89.0997ZM91.0877 645.718C90.5184 645.718 90.0564 645.924 89.7017 646.334C89.3471 646.736 89.1464 647.328 89.0997 648.112H92.9357C92.9264 647.338 92.7584 646.745 92.4317 646.334C92.1051 645.924 91.6571 645.718 91.0877 645.718ZM106.617 646.25C106.617 645.942 106.724 645.681 106.939 645.466C107.153 645.242 107.419 645.13 107.737 645.13C108.063 645.13 108.334 645.242 108.549 645.466C108.763 645.681 108.871 645.942 108.871 646.25C108.871 646.568 108.763 646.838 108.549 647.062C108.334 647.286 108.063 647.398 107.737 647.398C107.419 647.398 107.153 647.286 106.939 647.062C106.724 646.838 106.617 646.568 106.617 646.25ZM106.617 651.304C106.617 650.996 106.724 650.73 106.939 650.506C107.153 650.282 107.419 650.17 107.737 650.17C108.063 650.17 108.334 650.282 108.549 650.506C108.763 650.721 108.871 650.987 108.871 651.304C108.871 651.631 108.763 651.902 108.549 652.116C108.334 652.331 108.063 652.438 107.737 652.438C107.419 652.438 107.153 652.331 106.939 652.116C106.724 651.902 106.617 651.631 106.617 651.304ZM115.011 646.25C115.011 645.942 115.119 645.681 115.333 645.466C115.548 645.242 115.814 645.13 116.131 645.13C116.458 645.13 116.729 645.242 116.943 645.466C117.158 645.681 117.265 645.942 117.265 646.25C117.265 646.568 117.158 646.838 116.943 647.062C116.729 647.286 116.458 647.398 116.131 647.398C115.814 647.398 115.548 647.286 115.333 647.062C115.119 646.838 115.011 646.568 115.011 646.25ZM115.011 651.304C115.011 650.996 115.119 650.73 115.333 650.506C115.548 650.282 115.814 650.17 116.131 650.17C116.458 650.17 116.729 650.282 116.943 650.506C117.158 650.721 117.265 650.987 117.265 651.304C117.265 651.631 117.158 651.902 116.943 652.116C116.729 652.331 116.458 652.438 116.131 652.438C115.814 652.438 115.548 652.331 115.333 652.116C115.119 651.902 115.011 651.631 115.011 651.304Z" fill="black"/>
<rect x="22" y="713" width="482" height="37" fill="#EEEEEE"/>
<path d="M31.066 724.966C31.066 724.658 31.1733 724.397 31.388 724.182C31.6027 723.958 31.8687 723.846 32.186 723.846C32.5127 723.846 32.7833 723.958 32.998 724.182C33.2127 724.397 33.32 724.658 33.32 724.966C33.32 725.283 33.2127 725.554 32.998 725.778C32.7833 726.002 32.5127 726.114 32.186 726.114C31.8687 726.114 31.6027 726.002 31.388 725.778C31.1733 725.554 31.066 725.283 31.066 724.966ZM31.066 730.02C31.066 729.712 31.1733 729.446 31.388 729.222C31.6027 728.998 31.8687 728.886 32.186 728.886C32.5127 728.886 32.7833 728.998 32.998 729.222C33.2127 729.437 33.32 729.703 33.32 730.02C33.32 730.347 33.2127 730.617 32.998 730.832C32.7833 731.047 32.5127 731.154 32.186 731.154C31.8687 731.154 31.6027 731.047 31.388 730.832C31.1733 730.617 31.066 730.347 31.066 730.02ZM39.4605 724.966C39.4605 724.658 39.5679 724.397 39.7825 724.182C39.9972 723.958 40.2632 723.846 40.5805 723.846C40.9072 723.846 41.1779 723.958 41.3925 724.182C41.6072 724.397 41.7145 724.658 41.7145 724.966C41.7145 725.283 41.6072 725.554 41.3925 725.778C41.1779 726.002 40.9072 726.114 40.5805 726.114C40.2632 726.114 39.9972 726.002 39.7825 725.778C39.5679 725.554 39.4605 725.283 39.4605 724.966ZM39.4605 730.02C39.4605 729.712 39.5679 729.446 39.7825 729.222C39.9972 728.998 40.2632 728.886 40.5805 728.886C40.9072 728.886 41.1779 728.998 41.3925 729.222C41.6072 729.437 41.7145 729.703 41.7145 730.02C41.7145 730.347 41.6072 730.617 41.3925 730.832C41.1779 731.047 40.9072 731.154 40.5805 731.154C40.2632 731.154 39.9972 731.047 39.7825 730.832C39.5679 730.617 39.4605 730.347 39.4605 730.02ZM60.1836 720.654V731H59.1476L59.0356 730.034C58.7649 730.407 58.4523 730.687 58.0976 730.874C57.7429 731.061 57.3603 731.154 56.9496 731.154C56.0163 731.154 55.3116 730.813 54.8356 730.132C54.3689 729.451 54.1356 728.513 54.1356 727.318C54.1356 726.581 54.2523 725.923 54.4856 725.344C54.7189 724.756 55.0503 724.299 55.4796 723.972C55.9183 723.636 56.4316 723.468 57.0196 723.468C57.8316 723.468 58.4943 723.762 59.0076 724.35V720.514L60.1836 720.654ZM57.3276 724.42C56.7116 724.42 56.2356 724.663 55.8996 725.148C55.5729 725.633 55.4096 726.357 55.4096 727.318C55.4096 728.27 55.5589 728.993 55.8576 729.488C56.1656 729.973 56.6089 730.216 57.1876 730.216C57.8876 730.216 58.4943 729.824 59.0076 729.04V725.372C58.8023 725.064 58.5549 724.831 58.2656 724.672C57.9763 724.504 57.6636 724.42 57.3276 724.42ZM63.9161 727.724C63.9441 728.536 64.1541 729.147 64.5461 729.558C64.9475 729.969 65.4515 730.174 66.0581 730.174C66.4221 730.174 66.7535 730.123 67.0521 730.02C67.3601 729.908 67.6868 729.74 68.0321 729.516L68.5781 730.3C68.2328 730.571 67.8361 730.781 67.3881 730.93C66.9495 731.079 66.5061 731.154 66.0581 731.154C64.9941 731.154 64.1635 730.809 63.5661 730.118C62.9781 729.418 62.6841 728.485 62.6841 727.318C62.6841 726.581 62.8148 725.923 63.0761 725.344C63.3375 724.756 63.7108 724.299 64.1961 723.972C64.6815 723.636 65.2461 723.468 65.8901 723.468C66.8235 723.468 67.5561 723.795 68.0881 724.448C68.6295 725.092 68.9001 725.974 68.9001 727.094C68.9001 727.309 68.8908 727.519 68.8721 727.724H63.9161ZM65.9041 724.434C65.3348 724.434 64.8728 724.639 64.5181 725.05C64.1635 725.451 63.9628 726.044 63.9161 726.828H67.7521C67.7428 726.053 67.5748 725.461 67.2481 725.05C66.9215 724.639 66.4735 724.434 65.9041 724.434ZM75.7267 720.514C76.4267 720.514 77.094 720.645 77.7287 720.906L77.3507 721.788C76.884 721.583 76.3567 721.48 75.7687 721.48C74.742 721.48 74.2287 721.886 74.2287 722.698V724.196H76.7207L76.5947 725.134H74.2287V731H73.0387V725.134H71.2887V724.196H73.0387V722.726C73.0387 722.063 73.2907 721.531 73.7947 721.13C74.308 720.719 74.952 720.514 75.7267 720.514ZM85.0592 729.39C85.0592 729.679 85.1059 729.894 85.1992 730.034C85.2925 730.165 85.4465 730.263 85.6612 730.328L85.3672 731.168C84.6485 731.075 84.2005 730.725 84.0232 730.118C83.7619 730.454 83.4305 730.711 83.0292 730.888C82.6372 731.065 82.1985 731.154 81.7132 731.154C80.9759 731.154 80.3925 730.949 79.9632 730.538C79.5432 730.127 79.3332 729.577 79.3332 728.886C79.3332 728.13 79.6272 727.547 80.2152 727.136C80.8125 726.725 81.6665 726.52 82.7772 726.52H83.8692V725.918C83.8692 725.395 83.7199 725.022 83.4212 724.798C83.1225 724.565 82.6885 724.448 82.1192 724.448C81.5592 724.448 80.9199 724.574 80.2012 724.826L79.8792 723.93C80.7472 723.622 81.5545 723.468 82.3012 723.468C83.1972 723.468 83.8785 723.678 84.3452 724.098C84.8212 724.518 85.0592 725.101 85.0592 725.848V729.39ZM82.0072 730.272C82.3712 730.272 82.7165 730.179 83.0432 729.992C83.3792 729.805 83.6545 729.549 83.8692 729.222V727.332H82.8052C82.0212 727.332 81.4565 727.463 81.1112 727.724C80.7659 727.985 80.5932 728.368 80.5932 728.872C80.5932 729.805 81.0645 730.272 82.0072 730.272ZM89.3377 728.858C89.3377 729.334 89.4357 729.684 89.6317 729.908C89.8371 730.123 90.1544 730.23 90.5837 730.23C90.9757 730.23 91.3537 730.118 91.7177 729.894C92.0817 729.67 92.3711 729.39 92.5857 729.054V723.622H93.7617V731H92.7537L92.6557 730.006C92.3664 730.37 92.0071 730.655 91.5777 730.86C91.1577 731.056 90.7284 731.154 90.2897 731.154C89.5897 731.154 89.0577 730.967 88.6937 730.594C88.3391 730.221 88.1617 729.684 88.1617 728.984V723.622H89.3377V728.858ZM99.4403 729.18C99.4403 729.843 99.8463 730.174 100.658 730.174C101.041 730.174 101.452 730.09 101.89 729.922L102.198 730.776C101.732 731.028 101.148 731.154 100.448 731.154C99.7856 731.154 99.2536 730.972 98.8522 730.608C98.4603 730.244 98.2643 729.749 98.2643 729.124V721.592H95.9963V720.654H99.4403V729.18ZM110.817 730.622C110.565 730.79 110.257 730.921 109.893 731.014C109.538 731.107 109.183 731.154 108.829 731.154C108.054 731.154 107.447 730.953 107.009 730.552C106.57 730.141 106.351 729.605 106.351 728.942V724.546H104.657V723.622H106.351V721.956L107.527 721.816V723.622H110.089L109.935 724.546H107.527V728.928C107.527 729.348 107.639 729.661 107.863 729.866C108.087 730.071 108.446 730.174 108.941 730.174C109.445 730.174 109.916 730.057 110.355 729.824L110.817 730.622ZM123.406 724.966C123.406 724.658 123.513 724.397 123.728 724.182C123.943 723.958 124.209 723.846 124.526 723.846C124.853 723.846 125.123 723.958 125.338 724.182C125.553 724.397 125.66 724.658 125.66 724.966C125.66 725.283 125.553 725.554 125.338 725.778C125.123 726.002 124.853 726.114 124.526 726.114C124.209 726.114 123.943 726.002 123.728 725.778C123.513 725.554 123.406 725.283 123.406 724.966ZM123.406 730.02C123.406 729.712 123.513 729.446 123.728 729.222C123.943 728.998 124.209 728.886 124.526 728.886C124.853 728.886 125.123 728.998 125.338 729.222C125.553 729.437 125.66 729.703 125.66 730.02C125.66 730.347 125.553 730.617 125.338 730.832C125.123 731.047 124.853 731.154 124.526 731.154C124.209 731.154 123.943 731.047 123.728 730.832C123.513 730.617 123.406 730.347 123.406 730.02ZM131.8 724.966C131.8 724.658 131.908 724.397 132.122 724.182C132.337 723.958 132.603 723.846 132.92 723.846C133.247 723.846 133.518 723.958 133.732 724.182C133.947 724.397 134.054 724.658 134.054 724.966C134.054 725.283 133.947 725.554 133.732 725.778C133.518 726.002 133.247 726.114 132.92 726.114C132.603 726.114 132.337 726.002 132.122 725.778C131.908 725.554 131.8 725.283 131.8 724.966ZM131.8 730.02C131.8 729.712 131.908 729.446 132.122 729.222C132.337 728.998 132.603 728.886 132.92 728.886C133.247 728.886 133.518 728.998 133.732 729.222C133.947 729.437 134.054 729.703 134.054 730.02C134.054 730.347 133.947 730.617 133.732 730.832C133.518 731.047 133.247 731.154 132.92 731.154C132.603 731.154 132.337 731.047 132.122 730.832C131.908 730.617 131.8 730.347 131.8 730.02Z" fill="black"/>
<rect x="22" y="433" width="235" height="180" fill="#EEEEEE"/>
<path d="M33.066 448.966C33.066 448.658 33.1733 448.397 33.388 448.182C33.6027 447.958 33.8687 447.846 34.186 447.846C34.5127 447.846 34.7833 447.958 34.998 448.182C35.2127 448.397 35.32 448.658 35.32 448.966C35.32 449.283 35.2127 449.554 34.998 449.778C34.7833 450.002 34.5127 450.114 34.186 450.114C33.8687 450.114 33.6027 450.002 33.388 449.778C33.1733 449.554 33.066 449.283 33.066 448.966ZM33.066 454.02C33.066 453.712 33.1733 453.446 33.388 453.222C33.6027 452.998 33.8687 452.886 34.186 452.886C34.5127 452.886 34.7833 452.998 34.998 453.222C35.2127 453.437 35.32 453.703 35.32 454.02C35.32 454.347 35.2127 454.617 34.998 454.832C34.7833 455.047 34.5127 455.154 34.186 455.154C33.8687 455.154 33.6027 455.047 33.388 454.832C33.1733 454.617 33.066 454.347 33.066 454.02ZM41.4605 448.966C41.4605 448.658 41.5679 448.397 41.7825 448.182C41.9972 447.958 42.2632 447.846 42.5805 447.846C42.9072 447.846 43.1779 447.958 43.3925 448.182C43.6072 448.397 43.7145 448.658 43.7145 448.966C43.7145 449.283 43.6072 449.554 43.3925 449.778C43.1779 450.002 42.9072 450.114 42.5805 450.114C42.2632 450.114 41.9972 450.002 41.7825 449.778C41.5679 449.554 41.4605 449.283 41.4605 448.966ZM41.4605 454.02C41.4605 453.712 41.5679 453.446 41.7825 453.222C41.9972 452.998 42.2632 452.886 42.5805 452.886C42.9072 452.886 43.1779 452.998 43.3925 453.222C43.6072 453.437 43.7145 453.703 43.7145 454.02C43.7145 454.347 43.6072 454.617 43.3925 454.832C43.1779 455.047 42.9072 455.154 42.5805 455.154C42.2632 455.154 41.9972 455.047 41.7825 454.832C41.5679 454.617 41.4605 454.347 41.4605 454.02ZM59.4676 453.18C59.4676 453.843 59.8736 454.174 60.6856 454.174C61.0683 454.174 61.4789 454.09 61.9176 453.922L62.2256 454.776C61.7589 455.028 61.1756 455.154 60.4756 455.154C59.8129 455.154 59.2809 454.972 58.8796 454.608C58.4876 454.244 58.2916 453.749 58.2916 453.124V445.592H56.0236V444.654H59.4676V453.18ZM65.9161 451.724C65.9441 452.536 66.1541 453.147 66.5461 453.558C66.9475 453.969 67.4515 454.174 68.0581 454.174C68.4221 454.174 68.7535 454.123 69.0521 454.02C69.3601 453.908 69.6868 453.74 70.0321 453.516L70.5781 454.3C70.2328 454.571 69.8361 454.781 69.3881 454.93C68.9495 455.079 68.5061 455.154 68.0581 455.154C66.9941 455.154 66.1635 454.809 65.5661 454.118C64.9781 453.418 64.6841 452.485 64.6841 451.318C64.6841 450.581 64.8148 449.923 65.0761 449.344C65.3375 448.756 65.7108 448.299 66.1961 447.972C66.6815 447.636 67.2461 447.468 67.8901 447.468C68.8235 447.468 69.5561 447.795 70.0881 448.448C70.6295 449.092 70.9001 449.974 70.9001 451.094C70.9001 451.309 70.8908 451.519 70.8721 451.724H65.9161ZM67.9041 448.434C67.3348 448.434 66.8728 448.639 66.5181 449.05C66.1635 449.451 65.9628 450.044 65.9161 450.828H69.7521C69.7428 450.053 69.5748 449.461 69.2481 449.05C68.9215 448.639 68.4735 448.434 67.9041 448.434ZM77.7267 444.514C78.4267 444.514 79.094 444.645 79.7287 444.906L79.3507 445.788C78.884 445.583 78.3567 445.48 77.7687 445.48C76.742 445.48 76.2287 445.886 76.2287 446.698V448.196H78.7207L78.5947 449.134H76.2287V455H75.0387V449.134H73.2887V448.196H75.0387V446.726C75.0387 446.063 75.2907 445.531 75.7947 445.13C76.308 444.719 76.952 444.514 77.7267 444.514ZM87.6332 454.622C87.3812 454.79 87.0732 454.921 86.7092 455.014C86.3545 455.107 85.9999 455.154 85.6452 455.154C84.8705 455.154 84.2639 454.953 83.8252 454.552C83.3865 454.141 83.1672 453.605 83.1672 452.942V448.546H81.4732V447.622H83.1672V445.956L84.3432 445.816V447.622H86.9052L86.7512 448.546H84.3432V452.928C84.3432 453.348 84.4552 453.661 84.6792 453.866C84.9032 454.071 85.2625 454.174 85.7572 454.174C86.2612 454.174 86.7325 454.057 87.1712 453.824L87.6332 454.622ZM100.222 448.966C100.222 448.658 100.33 448.397 100.544 448.182C100.759 447.958 101.025 447.846 101.342 447.846C101.669 447.846 101.94 447.958 102.154 448.182C102.369 448.397 102.476 448.658 102.476 448.966C102.476 449.283 102.369 449.554 102.154 449.778C101.94 450.002 101.669 450.114 101.342 450.114C101.025 450.114 100.759 450.002 100.544 449.778C100.33 449.554 100.222 449.283 100.222 448.966ZM100.222 454.02C100.222 453.712 100.33 453.446 100.544 453.222C100.759 452.998 101.025 452.886 101.342 452.886C101.669 452.886 101.94 452.998 102.154 453.222C102.369 453.437 102.476 453.703 102.476 454.02C102.476 454.347 102.369 454.617 102.154 454.832C101.94 455.047 101.669 455.154 101.342 455.154C101.025 455.154 100.759 455.047 100.544 454.832C100.33 454.617 100.222 454.347 100.222 454.02ZM108.617 448.966C108.617 448.658 108.724 448.397 108.939 448.182C109.153 447.958 109.419 447.846 109.737 447.846C110.063 447.846 110.334 447.958 110.549 448.182C110.763 448.397 110.871 448.658 110.871 448.966C110.871 449.283 110.763 449.554 110.549 449.778C110.334 450.002 110.063 450.114 109.737 450.114C109.419 450.114 109.153 450.002 108.939 449.778C108.724 449.554 108.617 449.283 108.617 448.966ZM108.617 454.02C108.617 453.712 108.724 453.446 108.939 453.222C109.153 452.998 109.419 452.886 109.737 452.886C110.063 452.886 110.334 452.998 110.549 453.222C110.763 453.437 110.871 453.703 110.871 454.02C110.871 454.347 110.763 454.617 110.549 454.832C110.334 455.047 110.063 455.154 109.737 455.154C109.419 455.154 109.153 455.047 108.939 454.832C108.724 454.617 108.617 454.347 108.617 454.02Z" fill="black"/>
<rect x="265" y="433" width="239" height="180" fill="#EEEEEE"/>
<path d="M282.066 448.966C282.066 448.658 282.173 448.397 282.388 448.182C282.603 447.958 282.869 447.846 283.186 447.846C283.513 447.846 283.783 447.958 283.998 448.182C284.213 448.397 284.32 448.658 284.32 448.966C284.32 449.283 284.213 449.554 283.998 449.778C283.783 450.002 283.513 450.114 283.186 450.114C282.869 450.114 282.603 450.002 282.388 449.778C282.173 449.554 282.066 449.283 282.066 448.966ZM282.066 454.02C282.066 453.712 282.173 453.446 282.388 453.222C282.603 452.998 282.869 452.886 283.186 452.886C283.513 452.886 283.783 452.998 283.998 453.222C284.213 453.437 284.32 453.703 284.32 454.02C284.32 454.347 284.213 454.617 283.998 454.832C283.783 455.047 283.513 455.154 283.186 455.154C282.869 455.154 282.603 455.047 282.388 454.832C282.173 454.617 282.066 454.347 282.066 454.02ZM290.461 448.966C290.461 448.658 290.568 448.397 290.783 448.182C290.997 447.958 291.263 447.846 291.581 447.846C291.907 447.846 292.178 447.958 292.393 448.182C292.607 448.397 292.715 448.658 292.715 448.966C292.715 449.283 292.607 449.554 292.393 449.778C292.178 450.002 291.907 450.114 291.581 450.114C291.263 450.114 290.997 450.002 290.783 449.778C290.568 449.554 290.461 449.283 290.461 448.966ZM290.461 454.02C290.461 453.712 290.568 453.446 290.783 453.222C290.997 452.998 291.263 452.886 291.581 452.886C291.907 452.886 292.178 452.998 292.393 453.222C292.607 453.437 292.715 453.703 292.715 454.02C292.715 454.347 292.607 454.617 292.393 454.832C292.178 455.047 291.907 455.154 291.581 455.154C291.263 455.154 290.997 455.047 290.783 454.832C290.568 454.617 290.461 454.347 290.461 454.02ZM310.568 447.468C310.866 447.468 311.212 447.519 311.604 447.622L311.436 450.128H310.484V448.546H310.414C309.275 448.546 308.468 449.358 307.992 450.982V454.09H309.49V455H305.654V454.09H306.816V448.532H305.654V447.622H307.698L307.922 449.372C308.22 448.737 308.575 448.261 308.986 447.944C309.406 447.627 309.933 447.468 310.568 447.468ZM316.778 444.178C317.039 444.178 317.249 444.257 317.408 444.416C317.567 444.565 317.646 444.761 317.646 445.004C317.646 445.247 317.567 445.447 317.408 445.606C317.249 445.755 317.039 445.83 316.778 445.83C316.526 445.83 316.321 445.755 316.162 445.606C316.013 445.447 315.938 445.247 315.938 445.004C315.938 444.761 316.013 444.565 316.162 444.416C316.321 444.257 316.526 444.178 316.778 444.178ZM317.716 454.062H319.788V455H314.272V454.062H316.54V448.56H314.342V447.622H317.716V454.062ZM328.729 447.958C328.449 448.051 328.145 448.112 327.819 448.14C327.492 448.159 327.077 448.168 326.573 448.168C327.431 448.56 327.861 449.181 327.861 450.03C327.861 450.777 327.613 451.383 327.119 451.85C326.624 452.307 325.947 452.536 325.089 452.536C324.65 452.536 324.281 452.485 323.983 452.382C323.871 452.466 323.777 452.573 323.703 452.704C323.637 452.835 323.605 452.965 323.605 453.096C323.605 453.516 323.931 453.726 324.585 453.726H325.915C326.4 453.726 326.839 453.815 327.231 453.992C327.632 454.16 327.945 454.398 328.169 454.706C328.402 455.014 328.519 455.355 328.519 455.728C328.519 456.447 328.211 456.997 327.595 457.38C326.988 457.772 326.125 457.968 325.005 457.968C323.866 457.968 323.063 457.791 322.597 457.436C322.13 457.081 321.897 456.517 321.897 455.742H322.961C322.961 456.05 323.017 456.293 323.129 456.47C323.25 456.657 323.455 456.792 323.745 456.876C324.043 456.969 324.463 457.016 325.005 457.016C325.798 457.016 326.381 456.913 326.755 456.708C327.137 456.503 327.329 456.199 327.329 455.798C327.329 455.462 327.175 455.201 326.867 455.014C326.559 454.837 326.162 454.748 325.677 454.748H324.361C323.754 454.748 323.292 454.617 322.975 454.356C322.657 454.085 322.499 453.749 322.499 453.348C322.499 453.115 322.569 452.886 322.709 452.662C322.849 452.429 323.049 452.228 323.311 452.06C322.891 451.845 322.578 451.575 322.373 451.248C322.177 450.912 322.079 450.506 322.079 450.03C322.079 449.535 322.2 449.097 322.443 448.714C322.695 448.322 323.04 448.019 323.479 447.804C323.927 447.58 324.44 447.468 325.019 447.468C325.859 447.468 326.498 447.421 326.937 447.328C327.375 447.235 327.856 447.076 328.379 446.852L328.729 447.958ZM325.005 448.336C324.435 448.336 324.006 448.49 323.717 448.798C323.427 449.097 323.283 449.507 323.283 450.03C323.283 450.553 323.427 450.973 323.717 451.29C324.015 451.598 324.454 451.752 325.033 451.752C325.555 451.752 325.952 451.603 326.223 451.304C326.503 450.996 326.643 450.567 326.643 450.016C326.643 448.896 326.097 448.336 325.005 448.336ZM331.943 448.644C332.233 448.271 332.587 447.981 333.007 447.776C333.427 447.571 333.861 447.468 334.309 447.468C335.691 447.468 336.381 448.196 336.381 449.652V455H335.205V449.666C335.205 449.227 335.103 448.91 334.897 448.714C334.692 448.509 334.365 448.406 333.917 448.406C333.535 448.406 333.166 448.527 332.811 448.77C332.457 449.013 332.167 449.297 331.943 449.624V455H330.767V444.668L331.943 444.542V448.644ZM345.028 454.622C344.776 454.79 344.468 454.921 344.104 455.014C343.749 455.107 343.394 455.154 343.04 455.154C342.265 455.154 341.658 454.953 341.22 454.552C340.781 454.141 340.562 453.605 340.562 452.942V448.546H338.868V447.622H340.562V445.956L341.738 445.816V447.622H344.3L344.146 448.546H341.738V452.928C341.738 453.348 341.85 453.661 342.074 453.866C342.298 454.071 342.657 454.174 343.152 454.174C343.656 454.174 344.127 454.057 344.566 453.824L345.028 454.622ZM357.617 448.966C357.617 448.658 357.724 448.397 357.939 448.182C358.153 447.958 358.419 447.846 358.737 447.846C359.063 447.846 359.334 447.958 359.549 448.182C359.763 448.397 359.871 448.658 359.871 448.966C359.871 449.283 359.763 449.554 359.549 449.778C359.334 450.002 359.063 450.114 358.737 450.114C358.419 450.114 358.153 450.002 357.939 449.778C357.724 449.554 357.617 449.283 357.617 448.966ZM357.617 454.02C357.617 453.712 357.724 453.446 357.939 453.222C358.153 452.998 358.419 452.886 358.737 452.886C359.063 452.886 359.334 452.998 359.549 453.222C359.763 453.437 359.871 453.703 359.871 454.02C359.871 454.347 359.763 454.617 359.549 454.832C359.334 455.047 359.063 455.154 358.737 455.154C358.419 455.154 358.153 455.047 357.939 454.832C357.724 454.617 357.617 454.347 357.617 454.02ZM366.011 448.966C366.011 448.658 366.119 448.397 366.333 448.182C366.548 447.958 366.814 447.846 367.131 447.846C367.458 447.846 367.729 447.958 367.943 448.182C368.158 448.397 368.265 448.658 368.265 448.966C368.265 449.283 368.158 449.554 367.943 449.778C367.729 450.002 367.458 450.114 367.131 450.114C366.814 450.114 366.548 450.002 366.333 449.778C366.119 449.554 366.011 449.283 366.011 448.966ZM366.011 454.02C366.011 453.712 366.119 453.446 366.333 453.222C366.548 452.998 366.814 452.886 367.131 452.886C367.458 452.886 367.729 452.998 367.943 453.222C368.158 453.437 368.265 453.703 368.265 454.02C368.265 454.347 368.158 454.617 367.943 454.832C367.729 455.047 367.458 455.154 367.131 455.154C366.814 455.154 366.548 455.047 366.333 454.832C366.119 454.617 366.011 454.347 366.011 454.02Z" fill="black"/>
<rect x="7" y="843" width="509" height="346.137" fill="white"/>
<rect x="22" y="1135" width="482" height="37" fill="#EEEEEE"/>
<path d="M31.066 1146.97C31.066 1146.66 31.1733 1146.4 31.388 1146.18C31.6027 1145.96 31.8687 1145.85 32.186 1145.85C32.5127 1145.85 32.7833 1145.96 32.998 1146.18C33.2127 1146.4 33.32 1146.66 33.32 1146.97C33.32 1147.28 33.2127 1147.55 32.998 1147.78C32.7833 1148 32.5127 1148.11 32.186 1148.11C31.8687 1148.11 31.6027 1148 31.388 1147.78C31.1733 1147.55 31.066 1147.28 31.066 1146.97ZM31.066 1152.02C31.066 1151.71 31.1733 1151.45 31.388 1151.22C31.6027 1151 31.8687 1150.89 32.186 1150.89C32.5127 1150.89 32.7833 1151 32.998 1151.22C33.2127 1151.44 33.32 1151.7 33.32 1152.02C33.32 1152.35 33.2127 1152.62 32.998 1152.83C32.7833 1153.05 32.5127 1153.15 32.186 1153.15C31.8687 1153.15 31.6027 1153.05 31.388 1152.83C31.1733 1152.62 31.066 1152.35 31.066 1152.02ZM39.4605 1146.97C39.4605 1146.66 39.5679 1146.4 39.7825 1146.18C39.9972 1145.96 40.2632 1145.85 40.5805 1145.85C40.9072 1145.85 41.1779 1145.96 41.3925 1146.18C41.6072 1146.4 41.7145 1146.66 41.7145 1146.97C41.7145 1147.28 41.6072 1147.55 41.3925 1147.78C41.1779 1148 40.9072 1148.11 40.5805 1148.11C40.2632 1148.11 39.9972 1148 39.7825 1147.78C39.5679 1147.55 39.4605 1147.28 39.4605 1146.97ZM39.4605 1152.02C39.4605 1151.71 39.5679 1151.45 39.7825 1151.22C39.9972 1151 40.2632 1150.89 40.5805 1150.89C40.9072 1150.89 41.1779 1151 41.3925 1151.22C41.6072 1151.44 41.7145 1151.7 41.7145 1152.02C41.7145 1152.35 41.6072 1152.62 41.3925 1152.83C41.1779 1153.05 40.9072 1153.15 40.5805 1153.15C40.2632 1153.15 39.9972 1153.05 39.7825 1152.83C39.5679 1152.62 39.4605 1152.35 39.4605 1152.02ZM60.1836 1142.65V1153H59.1476L59.0356 1152.03C58.7649 1152.41 58.4523 1152.69 58.0976 1152.87C57.7429 1153.06 57.3603 1153.15 56.9496 1153.15C56.0163 1153.15 55.3116 1152.81 54.8356 1152.13C54.3689 1151.45 54.1356 1150.51 54.1356 1149.32C54.1356 1148.58 54.2523 1147.92 54.4856 1147.34C54.7189 1146.76 55.0503 1146.3 55.4796 1145.97C55.9183 1145.64 56.4316 1145.47 57.0196 1145.47C57.8316 1145.47 58.4943 1145.76 59.0076 1146.35V1142.51L60.1836 1142.65ZM57.3276 1146.42C56.7116 1146.42 56.2356 1146.66 55.8996 1147.15C55.5729 1147.63 55.4096 1148.36 55.4096 1149.32C55.4096 1150.27 55.5589 1150.99 55.8576 1151.49C56.1656 1151.97 56.6089 1152.22 57.1876 1152.22C57.8876 1152.22 58.4943 1151.82 59.0076 1151.04V1147.37C58.8023 1147.06 58.5549 1146.83 58.2656 1146.67C57.9763 1146.5 57.6636 1146.42 57.3276 1146.42ZM63.9161 1149.72C63.9441 1150.54 64.1541 1151.15 64.5461 1151.56C64.9475 1151.97 65.4515 1152.17 66.0581 1152.17C66.4221 1152.17 66.7535 1152.12 67.0521 1152.02C67.3601 1151.91 67.6868 1151.74 68.0321 1151.52L68.5781 1152.3C68.2328 1152.57 67.8361 1152.78 67.3881 1152.93C66.9495 1153.08 66.5061 1153.15 66.0581 1153.15C64.9941 1153.15 64.1635 1152.81 63.5661 1152.12C62.9781 1151.42 62.6841 1150.48 62.6841 1149.32C62.6841 1148.58 62.8148 1147.92 63.0761 1147.34C63.3375 1146.76 63.7108 1146.3 64.1961 1145.97C64.6815 1145.64 65.2461 1145.47 65.8901 1145.47C66.8235 1145.47 67.5561 1145.79 68.0881 1146.45C68.6295 1147.09 68.9001 1147.97 68.9001 1149.09C68.9001 1149.31 68.8908 1149.52 68.8721 1149.72H63.9161ZM65.9041 1146.43C65.3348 1146.43 64.8728 1146.64 64.5181 1147.05C64.1635 1147.45 63.9628 1148.04 63.9161 1148.83H67.7521C67.7428 1148.05 67.5748 1147.46 67.2481 1147.05C66.9215 1146.64 66.4735 1146.43 65.9041 1146.43ZM75.7267 1142.51C76.4267 1142.51 77.094 1142.64 77.7287 1142.91L77.3507 1143.79C76.884 1143.58 76.3567 1143.48 75.7687 1143.48C74.742 1143.48 74.2287 1143.89 74.2287 1144.7V1146.2H76.7207L76.5947 1147.13H74.2287V1153H73.0387V1147.13H71.2887V1146.2H73.0387V1144.73C73.0387 1144.06 73.2907 1143.53 73.7947 1143.13C74.308 1142.72 74.952 1142.51 75.7267 1142.51ZM85.0592 1151.39C85.0592 1151.68 85.1059 1151.89 85.1992 1152.03C85.2925 1152.16 85.4465 1152.26 85.6612 1152.33L85.3672 1153.17C84.6485 1153.07 84.2005 1152.72 84.0232 1152.12C83.7619 1152.45 83.4305 1152.71 83.0292 1152.89C82.6372 1153.07 82.1985 1153.15 81.7132 1153.15C80.9759 1153.15 80.3925 1152.95 79.9632 1152.54C79.5432 1152.13 79.3332 1151.58 79.3332 1150.89C79.3332 1150.13 79.6272 1149.55 80.2152 1149.14C80.8125 1148.73 81.6665 1148.52 82.7772 1148.52H83.8692V1147.92C83.8692 1147.4 83.7199 1147.02 83.4212 1146.8C83.1225 1146.56 82.6885 1146.45 82.1192 1146.45C81.5592 1146.45 80.9199 1146.57 80.2012 1146.83L79.8792 1145.93C80.7472 1145.62 81.5545 1145.47 82.3012 1145.47C83.1972 1145.47 83.8785 1145.68 84.3452 1146.1C84.8212 1146.52 85.0592 1147.1 85.0592 1147.85V1151.39ZM82.0072 1152.27C82.3712 1152.27 82.7165 1152.18 83.0432 1151.99C83.3792 1151.81 83.6545 1151.55 83.8692 1151.22V1149.33H82.8052C82.0212 1149.33 81.4565 1149.46 81.1112 1149.72C80.7659 1149.99 80.5932 1150.37 80.5932 1150.87C80.5932 1151.81 81.0645 1152.27 82.0072 1152.27ZM89.3377 1150.86C89.3377 1151.33 89.4357 1151.68 89.6317 1151.91C89.8371 1152.12 90.1544 1152.23 90.5837 1152.23C90.9757 1152.23 91.3537 1152.12 91.7177 1151.89C92.0817 1151.67 92.3711 1151.39 92.5857 1151.05V1145.62H93.7617V1153H92.7537L92.6557 1152.01C92.3664 1152.37 92.0071 1152.65 91.5777 1152.86C91.1577 1153.06 90.7284 1153.15 90.2897 1153.15C89.5897 1153.15 89.0577 1152.97 88.6937 1152.59C88.3391 1152.22 88.1617 1151.68 88.1617 1150.98V1145.62H89.3377V1150.86ZM99.4403 1151.18C99.4403 1151.84 99.8463 1152.17 100.658 1152.17C101.041 1152.17 101.452 1152.09 101.89 1151.92L102.198 1152.78C101.732 1153.03 101.148 1153.15 100.448 1153.15C99.7856 1153.15 99.2536 1152.97 98.8522 1152.61C98.4603 1152.24 98.2643 1151.75 98.2643 1151.12V1143.59H95.9963V1142.65H99.4403V1151.18ZM110.817 1152.62C110.565 1152.79 110.257 1152.92 109.893 1153.01C109.538 1153.11 109.183 1153.15 108.829 1153.15C108.054 1153.15 107.447 1152.95 107.009 1152.55C106.57 1152.14 106.351 1151.6 106.351 1150.94V1146.55H104.657V1145.62H106.351V1143.96L107.527 1143.82V1145.62H110.089L109.935 1146.55H107.527V1150.93C107.527 1151.35 107.639 1151.66 107.863 1151.87C108.087 1152.07 108.446 1152.17 108.941 1152.17C109.445 1152.17 109.916 1152.06 110.355 1151.82L110.817 1152.62ZM123.406 1146.97C123.406 1146.66 123.513 1146.4 123.728 1146.18C123.943 1145.96 124.209 1145.85 124.526 1145.85C124.853 1145.85 125.123 1145.96 125.338 1146.18C125.553 1146.4 125.66 1146.66 125.66 1146.97C125.66 1147.28 125.553 1147.55 125.338 1147.78C125.123 1148 124.853 1148.11 124.526 1148.11C124.209 1148.11 123.943 1148 123.728 1147.78C123.513 1147.55 123.406 1147.28 123.406 1146.97ZM123.406 1152.02C123.406 1151.71 123.513 1151.45 123.728 1151.22C123.943 1151 124.209 1150.89 124.526 1150.89C124.853 1150.89 125.123 1151 125.338 1151.22C125.553 1151.44 125.66 1151.7 125.66 1152.02C125.66 1152.35 125.553 1152.62 125.338 1152.83C125.123 1153.05 124.853 1153.15 124.526 1153.15C124.209 1153.15 123.943 1153.05 123.728 1152.83C123.513 1152.62 123.406 1152.35 123.406 1152.02ZM131.8 1146.97C131.8 1146.66 131.908 1146.4 132.122 1146.18C132.337 1145.96 132.603 1145.85 132.92 1145.85C133.247 1145.85 133.518 1145.96 133.732 1146.18C133.947 1146.4 134.054 1146.66 134.054 1146.97C134.054 1147.28 133.947 1147.55 133.732 1147.78C133.518 1148 133.247 1148.11 132.92 1148.11C132.603 1148.11 132.337 1148 132.122 1147.78C131.908 1147.55 131.8 1147.28 131.8 1146.97ZM131.8 1152.02C131.8 1151.71 131.908 1151.45 132.122 1151.22C132.337 1151 132.603 1150.89 132.92 1150.89C133.247 1150.89 133.518 1151 133.732 1151.22C133.947 1151.44 134.054 1151.7 134.054 1152.02C134.054 1152.35 133.947 1152.62 133.732 1152.83C133.518 1153.05 133.247 1153.15 132.92 1153.15C132.603 1153.15 132.337 1153.05 132.122 1152.83C131.908 1152.62 131.8 1152.35 131.8 1152.02Z" fill="black"/>
<rect x="22" y="855" width="235" height="263" fill="#EEEEEE"/>
<path d="M33.066 870.966C33.066 870.658 33.1733 870.397 33.388 870.182C33.6027 869.958 33.8687 869.846 34.186 869.846C34.5127 869.846 34.7833 869.958 34.998 870.182C35.2127 870.397 35.32 870.658 35.32 870.966C35.32 871.283 35.2127 871.554 34.998 871.778C34.7833 872.002 34.5127 872.114 34.186 872.114C33.8687 872.114 33.6027 872.002 33.388 871.778C33.1733 871.554 33.066 871.283 33.066 870.966ZM33.066 876.02C33.066 875.712 33.1733 875.446 33.388 875.222C33.6027 874.998 33.8687 874.886 34.186 874.886C34.5127 874.886 34.7833 874.998 34.998 875.222C35.2127 875.437 35.32 875.703 35.32 876.02C35.32 876.347 35.2127 876.617 34.998 876.832C34.7833 877.047 34.5127 877.154 34.186 877.154C33.8687 877.154 33.6027 877.047 33.388 876.832C33.1733 876.617 33.066 876.347 33.066 876.02ZM41.4605 870.966C41.4605 870.658 41.5679 870.397 41.7825 870.182C41.9972 869.958 42.2632 869.846 42.5805 869.846C42.9072 869.846 43.1779 869.958 43.3925 870.182C43.6072 870.397 43.7145 870.658 43.7145 870.966C43.7145 871.283 43.6072 871.554 43.3925 871.778C43.1779 872.002 42.9072 872.114 42.5805 872.114C42.2632 872.114 41.9972 872.002 41.7825 871.778C41.5679 871.554 41.4605 871.283 41.4605 870.966ZM41.4605 876.02C41.4605 875.712 41.5679 875.446 41.7825 875.222C41.9972 874.998 42.2632 874.886 42.5805 874.886C42.9072 874.886 43.1779 874.998 43.3925 875.222C43.6072 875.437 43.7145 875.703 43.7145 876.02C43.7145 876.347 43.6072 876.617 43.3925 876.832C43.1779 877.047 42.9072 877.154 42.5805 877.154C42.2632 877.154 41.9972 877.047 41.7825 876.832C41.5679 876.617 41.4605 876.347 41.4605 876.02ZM59.4676 875.18C59.4676 875.843 59.8736 876.174 60.6856 876.174C61.0683 876.174 61.4789 876.09 61.9176 875.922L62.2256 876.776C61.7589 877.028 61.1756 877.154 60.4756 877.154C59.8129 877.154 59.2809 876.972 58.8796 876.608C58.4876 876.244 58.2916 875.749 58.2916 875.124V867.592H56.0236V866.654H59.4676V875.18ZM65.9161 873.724C65.9441 874.536 66.1541 875.147 66.5461 875.558C66.9475 875.969 67.4515 876.174 68.0581 876.174C68.4221 876.174 68.7535 876.123 69.0521 876.02C69.3601 875.908 69.6868 875.74 70.0321 875.516L70.5781 876.3C70.2328 876.571 69.8361 876.781 69.3881 876.93C68.9495 877.079 68.5061 877.154 68.0581 877.154C66.9941 877.154 66.1635 876.809 65.5661 876.118C64.9781 875.418 64.6841 874.485 64.6841 873.318C64.6841 872.581 64.8148 871.923 65.0761 871.344C65.3375 870.756 65.7108 870.299 66.1961 869.972C66.6815 869.636 67.2461 869.468 67.8901 869.468C68.8235 869.468 69.5561 869.795 70.0881 870.448C70.6295 871.092 70.9001 871.974 70.9001 873.094C70.9001 873.309 70.8908 873.519 70.8721 873.724H65.9161ZM67.9041 870.434C67.3348 870.434 66.8728 870.639 66.5181 871.05C66.1635 871.451 65.9628 872.044 65.9161 872.828H69.7521C69.7428 872.053 69.5748 871.461 69.2481 871.05C68.9215 870.639 68.4735 870.434 67.9041 870.434ZM77.7267 866.514C78.4267 866.514 79.094 866.645 79.7287 866.906L79.3507 867.788C78.884 867.583 78.3567 867.48 77.7687 867.48C76.742 867.48 76.2287 867.886 76.2287 868.698V870.196H78.7207L78.5947 871.134H76.2287V877H75.0387V871.134H73.2887V870.196H75.0387V868.726C75.0387 868.063 75.2907 867.531 75.7947 867.13C76.308 866.719 76.952 866.514 77.7267 866.514ZM87.6332 876.622C87.3812 876.79 87.0732 876.921 86.7092 877.014C86.3545 877.107 85.9999 877.154 85.6452 877.154C84.8705 877.154 84.2639 876.953 83.8252 876.552C83.3865 876.141 83.1672 875.605 83.1672 874.942V870.546H81.4732V869.622H83.1672V867.956L84.3432 867.816V869.622H86.9052L86.7512 870.546H84.3432V874.928C84.3432 875.348 84.4552 875.661 84.6792 875.866C84.9032 876.071 85.2625 876.174 85.7572 876.174C86.2612 876.174 86.7325 876.057 87.1712 875.824L87.6332 876.622ZM100.222 870.966C100.222 870.658 100.33 870.397 100.544 870.182C100.759 869.958 101.025 869.846 101.342 869.846C101.669 869.846 101.94 869.958 102.154 870.182C102.369 870.397 102.476 870.658 102.476 870.966C102.476 871.283 102.369 871.554 102.154 871.778C101.94 872.002 101.669 872.114 101.342 872.114C101.025 872.114 100.759 872.002 100.544 871.778C100.33 871.554 100.222 871.283 100.222 870.966ZM100.222 876.02C100.222 875.712 100.33 875.446 100.544 875.222C100.759 874.998 101.025 874.886 101.342 874.886C101.669 874.886 101.94 874.998 102.154 875.222C102.369 875.437 102.476 875.703 102.476 876.02C102.476 876.347 102.369 876.617 102.154 876.832C101.94 877.047 101.669 877.154 101.342 877.154C101.025 877.154 100.759 877.047 100.544 876.832C100.33 876.617 100.222 876.347 100.222 876.02ZM108.617 870.966C108.617 870.658 108.724 870.397 108.939 870.182C109.153 869.958 109.419 869.846 109.737 869.846C110.063 869.846 110.334 869.958 110.549 870.182C110.763 870.397 110.871 870.658 110.871 870.966C110.871 871.283 110.763 871.554 110.549 871.778C110.334 872.002 110.063 872.114 109.737 872.114C109.419 872.114 109.153 872.002 108.939 871.778C108.724 871.554 108.617 871.283 108.617 870.966ZM108.617 876.02C108.617 875.712 108.724 875.446 108.939 875.222C109.153 874.998 109.419 874.886 109.737 874.886C110.063 874.886 110.334 874.998 110.549 875.222C110.763 875.437 110.871 875.703 110.871 876.02C110.871 876.347 110.763 876.617 110.549 876.832C110.334 877.047 110.063 877.154 109.737 877.154C109.419 877.154 109.153 877.047 108.939 876.832C108.724 876.617 108.617 876.347 108.617 876.02Z" fill="black"/>
<rect x="265" y="855" width="239" height="263" fill="#EEEEEE"/>
<path d="M282.066 870.966C282.066 870.658 282.173 870.397 282.388 870.182C282.603 869.958 282.869 869.846 283.186 869.846C283.513 869.846 283.783 869.958 283.998 870.182C284.213 870.397 284.32 870.658 284.32 870.966C284.32 871.283 284.213 871.554 283.998 871.778C283.783 872.002 283.513 872.114 283.186 872.114C282.869 872.114 282.603 872.002 282.388 871.778C282.173 871.554 282.066 871.283 282.066 870.966ZM282.066 876.02C282.066 875.712 282.173 875.446 282.388 875.222C282.603 874.998 282.869 874.886 283.186 874.886C283.513 874.886 283.783 874.998 283.998 875.222C284.213 875.437 284.32 875.703 284.32 876.02C284.32 876.347 284.213 876.617 283.998 876.832C283.783 877.047 283.513 877.154 283.186 877.154C282.869 877.154 282.603 877.047 282.388 876.832C282.173 876.617 282.066 876.347 282.066 876.02ZM290.461 870.966C290.461 870.658 290.568 870.397 290.783 870.182C290.997 869.958 291.263 869.846 291.581 869.846C291.907 869.846 292.178 869.958 292.393 870.182C292.607 870.397 292.715 870.658 292.715 870.966C292.715 871.283 292.607 871.554 292.393 871.778C292.178 872.002 291.907 872.114 291.581 872.114C291.263 872.114 290.997 872.002 290.783 871.778C290.568 871.554 290.461 871.283 290.461 870.966ZM290.461 876.02C290.461 875.712 290.568 875.446 290.783 875.222C290.997 874.998 291.263 874.886 291.581 874.886C291.907 874.886 292.178 874.998 292.393 875.222C292.607 875.437 292.715 875.703 292.715 876.02C292.715 876.347 292.607 876.617 292.393 876.832C292.178 877.047 291.907 877.154 291.581 877.154C291.263 877.154 290.997 877.047 290.783 876.832C290.568 876.617 290.461 876.347 290.461 876.02ZM310.568 869.468C310.866 869.468 311.212 869.519 311.604 869.622L311.436 872.128H310.484V870.546H310.414C309.275 870.546 308.468 871.358 307.992 872.982V876.09H309.49V877H305.654V876.09H306.816V870.532H305.654V869.622H307.698L307.922 871.372C308.22 870.737 308.575 870.261 308.986 869.944C309.406 869.627 309.933 869.468 310.568 869.468ZM316.778 866.178C317.039 866.178 317.249 866.257 317.408 866.416C317.567 866.565 317.646 866.761 317.646 867.004C317.646 867.247 317.567 867.447 317.408 867.606C317.249 867.755 317.039 867.83 316.778 867.83C316.526 867.83 316.321 867.755 316.162 867.606C316.013 867.447 315.938 867.247 315.938 867.004C315.938 866.761 316.013 866.565 316.162 866.416C316.321 866.257 316.526 866.178 316.778 866.178ZM317.716 876.062H319.788V877H314.272V876.062H316.54V870.56H314.342V869.622H317.716V876.062ZM328.729 869.958C328.449 870.051 328.145 870.112 327.819 870.14C327.492 870.159 327.077 870.168 326.573 870.168C327.431 870.56 327.861 871.181 327.861 872.03C327.861 872.777 327.613 873.383 327.119 873.85C326.624 874.307 325.947 874.536 325.089 874.536C324.65 874.536 324.281 874.485 323.983 874.382C323.871 874.466 323.777 874.573 323.703 874.704C323.637 874.835 323.605 874.965 323.605 875.096C323.605 875.516 323.931 875.726 324.585 875.726H325.915C326.4 875.726 326.839 875.815 327.231 875.992C327.632 876.16 327.945 876.398 328.169 876.706C328.402 877.014 328.519 877.355 328.519 877.728C328.519 878.447 328.211 878.997 327.595 879.38C326.988 879.772 326.125 879.968 325.005 879.968C323.866 879.968 323.063 879.791 322.597 879.436C322.13 879.081 321.897 878.517 321.897 877.742H322.961C322.961 878.05 323.017 878.293 323.129 878.47C323.25 878.657 323.455 878.792 323.745 878.876C324.043 878.969 324.463 879.016 325.005 879.016C325.798 879.016 326.381 878.913 326.755 878.708C327.137 878.503 327.329 878.199 327.329 877.798C327.329 877.462 327.175 877.201 326.867 877.014C326.559 876.837 326.162 876.748 325.677 876.748H324.361C323.754 876.748 323.292 876.617 322.975 876.356C322.657 876.085 322.499 875.749 322.499 875.348C322.499 875.115 322.569 874.886 322.709 874.662C322.849 874.429 323.049 874.228 323.311 874.06C322.891 873.845 322.578 873.575 322.373 873.248C322.177 872.912 322.079 872.506 322.079 872.03C322.079 871.535 322.2 871.097 322.443 870.714C322.695 870.322 323.04 870.019 323.479 869.804C323.927 869.58 324.44 869.468 325.019 869.468C325.859 869.468 326.498 869.421 326.937 869.328C327.375 869.235 327.856 869.076 328.379 868.852L328.729 869.958ZM325.005 870.336C324.435 870.336 324.006 870.49 323.717 870.798C323.427 871.097 323.283 871.507 323.283 872.03C323.283 872.553 323.427 872.973 323.717 873.29C324.015 873.598 324.454 873.752 325.033 873.752C325.555 873.752 325.952 873.603 326.223 873.304C326.503 872.996 326.643 872.567 326.643 872.016C326.643 870.896 326.097 870.336 325.005 870.336ZM331.943 870.644C332.233 870.271 332.587 869.981 333.007 869.776C333.427 869.571 333.861 869.468 334.309 869.468C335.691 869.468 336.381 870.196 336.381 871.652V877H335.205V871.666C335.205 871.227 335.103 870.91 334.897 870.714C334.692 870.509 334.365 870.406 333.917 870.406C333.535 870.406 333.166 870.527 332.811 870.77C332.457 871.013 332.167 871.297 331.943 871.624V877H330.767V866.668L331.943 866.542V870.644ZM345.028 876.622C344.776 876.79 344.468 876.921 344.104 877.014C343.749 877.107 343.394 877.154 343.04 877.154C342.265 877.154 341.658 876.953 341.22 876.552C340.781 876.141 340.562 875.605 340.562 874.942V870.546H338.868V869.622H340.562V867.956L341.738 867.816V869.622H344.3L344.146 870.546H341.738V874.928C341.738 875.348 341.85 875.661 342.074 875.866C342.298 876.071 342.657 876.174 343.152 876.174C343.656 876.174 344.127 876.057 344.566 875.824L345.028 876.622ZM357.617 870.966C357.617 870.658 357.724 870.397 357.939 870.182C358.153 869.958 358.419 869.846 358.737 869.846C359.063 869.846 359.334 869.958 359.549 870.182C359.763 870.397 359.871 870.658 359.871 870.966C359.871 871.283 359.763 871.554 359.549 871.778C359.334 872.002 359.063 872.114 358.737 872.114C358.419 872.114 358.153 872.002 357.939 871.778C357.724 871.554 357.617 871.283 357.617 870.966ZM357.617 876.02C357.617 875.712 357.724 875.446 357.939 875.222C358.153 874.998 358.419 874.886 358.737 874.886C359.063 874.886 359.334 874.998 359.549 875.222C359.763 875.437 359.871 875.703 359.871 876.02C359.871 876.347 359.763 876.617 359.549 876.832C359.334 877.047 359.063 877.154 358.737 877.154C358.419 877.154 358.153 877.047 357.939 876.832C357.724 876.617 357.617 876.347 357.617 876.02ZM366.011 870.966C366.011 870.658 366.119 870.397 366.333 870.182C366.548 869.958 366.814 869.846 367.131 869.846C367.458 869.846 367.729 869.958 367.943 870.182C368.158 870.397 368.265 870.658 368.265 870.966C368.265 871.283 368.158 871.554 367.943 871.778C367.729 872.002 367.458 872.114 367.131 872.114C366.814 872.114 366.548 872.002 366.333 871.778C366.119 871.554 366.011 871.283 366.011 870.966ZM366.011 876.02C366.011 875.712 366.119 875.446 366.333 875.222C366.548 874.998 366.814 874.886 367.131 874.886C367.458 874.886 367.729 874.998 367.943 875.222C368.158 875.437 368.265 875.703 368.265 876.02C368.265 876.347 368.158 876.617 367.943 876.832C367.729 877.047 367.458 877.154 367.131 877.154C366.814 877.154 366.548 877.047 366.333 876.832C366.119 876.617 366.011 876.347 366.011 876.02Z" fill="black"/>
<path d="M205.96 380.38C205.12 380.92 203.94 381.34 202.48 381.34C199.7 381.34 198.38 379.82 198.38 377.38V372.56H196.16V370.38H198.38V368.08L201.54 367.7V370.38H204.96L204.64 372.56H201.54V377.38C201.54 378.44 202 378.84 203.06 378.84C203.8 378.84 204.42 378.64 204.92 378.36L205.96 380.38ZM212.972 364.82C214.072 364.82 214.832 365.6 214.832 366.6C214.832 367.62 214.072 368.38 212.972 368.38C211.872 368.38 211.092 367.62 211.092 366.6C211.092 365.6 211.872 364.82 212.972 364.82ZM214.872 370.38V378.84H217.592V381H208.712V378.84H211.712V372.54H208.812V370.38H214.872ZM229.944 380.38C229.104 380.92 227.924 381.34 226.464 381.34C223.684 381.34 222.364 379.82 222.364 377.38V372.56H220.144V370.38H222.364V368.08L225.524 367.7V370.38H228.944L228.624 372.56H225.524V377.38C225.524 378.44 225.984 378.84 227.044 378.84C227.784 378.84 228.404 378.64 228.904 378.36L229.944 380.38ZM237.917 366.16V377.66C237.917 378.52 238.437 378.84 239.277 378.84C239.837 378.84 240.357 378.7 240.797 378.52L241.537 380.64C240.837 381.02 239.837 381.34 238.477 381.34C235.917 381.34 234.757 379.76 234.757 377.26V368.32H231.637V366.16H237.917ZM247.109 376.62C247.329 378.36 248.309 379.04 249.669 379.04C250.629 379.04 251.549 378.7 252.389 378.16L253.649 379.88C252.649 380.74 251.209 381.34 249.409 381.34C245.769 381.34 243.889 379 243.889 375.7C243.889 372.56 245.729 370.02 249.069 370.02C252.109 370.02 254.049 372.06 254.049 375.48C254.049 375.84 254.029 376.3 253.989 376.62H247.109ZM249.069 372.14C247.949 372.14 247.209 372.94 247.069 374.7H250.969C250.949 373.16 250.409 372.14 249.069 372.14ZM262.241 370.02C265.001 370.02 266.121 372.2 266.121 375.66C266.121 378.94 264.621 381.34 262.041 381.34C261.001 381.34 260.161 380.96 259.521 380.24V385.1L256.361 385.44V370.38H259.161L259.301 371.56C260.161 370.48 261.241 370.02 262.241 370.02ZM261.261 372.36C260.521 372.36 259.981 372.82 259.521 373.6V378.08C259.961 378.72 260.421 379.02 261.081 379.02C262.201 379.02 262.861 378.1 262.861 375.7C262.861 373.06 262.261 372.36 261.261 372.36ZM272.953 370.02C276.233 370.02 278.113 372.26 278.113 375.66C278.113 379.22 276.213 381.34 272.953 381.34C269.693 381.34 267.793 379.26 267.793 375.68C267.793 372.3 269.693 370.02 272.953 370.02ZM272.953 372.36C271.653 372.36 271.053 373.36 271.053 375.68C271.053 378.04 271.653 379.02 272.953 379.02C274.253 379.02 274.853 378.04 274.853 375.66C274.853 373.36 274.253 372.36 272.953 372.36ZM284.605 379.08C285.665 379.08 286.365 378.76 286.365 378.08C286.365 377.4 285.965 377.14 283.845 376.56C281.905 376.04 280.565 375.2 280.565 373.32C280.565 371.42 282.185 370.02 285.165 370.02C287.065 370.02 288.425 370.56 289.465 371.32L288.205 373.18C287.325 372.64 286.285 372.28 285.265 372.28C284.225 372.28 283.745 372.54 283.745 373.1C283.745 373.64 284.165 373.88 286.245 374.46C288.305 375.04 289.645 375.74 289.645 377.82C289.645 380.16 287.325 381.34 284.625 381.34C282.565 381.34 280.985 380.7 279.905 379.74L281.485 377.96C282.305 378.6 283.365 379.08 284.605 379.08ZM294.838 372.32C294.838 371.18 295.758 370.22 296.938 370.22C298.118 370.22 299.018 371.18 299.018 372.32C299.018 373.46 298.118 374.4 296.938 374.4C295.758 374.4 294.838 373.46 294.838 372.32ZM294.838 379.22C294.838 378.1 295.758 377.16 296.938 377.16C298.118 377.16 299.018 378.1 299.018 379.22C299.018 380.38 298.118 381.34 296.938 381.34C295.758 381.34 294.838 380.38 294.838 379.22ZM325.882 380.38C325.042 380.92 323.862 381.34 322.402 381.34C319.622 381.34 318.302 379.82 318.302 377.38V372.56H316.082V370.38H318.302V368.08L321.462 367.7V370.38H324.882L324.562 372.56H321.462V377.38C321.462 378.44 321.922 378.84 322.982 378.84C323.722 378.84 324.342 378.64 324.842 378.36L325.882 380.38Z" fill="black"/>
<path d="M205.96 785.38C205.12 785.92 203.94 786.34 202.48 786.34C199.7 786.34 198.38 784.82 198.38 782.38V777.56H196.16V775.38H198.38V773.08L201.54 772.7V775.38H204.96L204.64 777.56H201.54V782.38C201.54 783.44 202 783.84 203.06 783.84C203.8 783.84 204.42 783.64 204.92 783.36L205.96 785.38ZM212.972 769.82C214.072 769.82 214.832 770.6 214.832 771.6C214.832 772.62 214.072 773.38 212.972 773.38C211.872 773.38 211.092 772.62 211.092 771.6C211.092 770.6 211.872 769.82 212.972 769.82ZM214.872 775.38V783.84H217.592V786H208.712V783.84H211.712V777.54H208.812V775.38H214.872ZM229.944 785.38C229.104 785.92 227.924 786.34 226.464 786.34C223.684 786.34 222.364 784.82 222.364 782.38V777.56H220.144V775.38H222.364V773.08L225.524 772.7V775.38H228.944L228.624 777.56H225.524V782.38C225.524 783.44 225.984 783.84 227.044 783.84C227.784 783.84 228.404 783.64 228.904 783.36L229.944 785.38ZM237.917 771.16V782.66C237.917 783.52 238.437 783.84 239.277 783.84C239.837 783.84 240.357 783.7 240.797 783.52L241.537 785.64C240.837 786.02 239.837 786.34 238.477 786.34C235.917 786.34 234.757 784.76 234.757 782.26V773.32H231.637V771.16H237.917ZM247.109 781.62C247.329 783.36 248.309 784.04 249.669 784.04C250.629 784.04 251.549 783.7 252.389 783.16L253.649 784.88C252.649 785.74 251.209 786.34 249.409 786.34C245.769 786.34 243.889 784 243.889 780.7C243.889 777.56 245.729 775.02 249.069 775.02C252.109 775.02 254.049 777.06 254.049 780.48C254.049 780.84 254.029 781.3 253.989 781.62H247.109ZM249.069 777.14C247.949 777.14 247.209 777.94 247.069 779.7H250.969C250.949 778.16 250.409 777.14 249.069 777.14ZM262.241 775.02C265.001 775.02 266.121 777.2 266.121 780.66C266.121 783.94 264.621 786.34 262.041 786.34C261.001 786.34 260.161 785.96 259.521 785.24V790.1L256.361 790.44V775.38H259.161L259.301 776.56C260.161 775.48 261.241 775.02 262.241 775.02ZM261.261 777.36C260.521 777.36 259.981 777.82 259.521 778.6V783.08C259.961 783.72 260.421 784.02 261.081 784.02C262.201 784.02 262.861 783.1 262.861 780.7C262.861 778.06 262.261 777.36 261.261 777.36ZM272.953 775.02C276.233 775.02 278.113 777.26 278.113 780.66C278.113 784.22 276.213 786.34 272.953 786.34C269.693 786.34 267.793 784.26 267.793 780.68C267.793 777.3 269.693 775.02 272.953 775.02ZM272.953 777.36C271.653 777.36 271.053 778.36 271.053 780.68C271.053 783.04 271.653 784.02 272.953 784.02C274.253 784.02 274.853 783.04 274.853 780.66C274.853 778.36 274.253 777.36 272.953 777.36ZM284.605 784.08C285.665 784.08 286.365 783.76 286.365 783.08C286.365 782.4 285.965 782.14 283.845 781.56C281.905 781.04 280.565 780.2 280.565 778.32C280.565 776.42 282.185 775.02 285.165 775.02C287.065 775.02 288.425 775.56 289.465 776.32L288.205 778.18C287.325 777.64 286.285 777.28 285.265 777.28C284.225 777.28 283.745 777.54 283.745 778.1C283.745 778.64 284.165 778.88 286.245 779.46C288.305 780.04 289.645 780.74 289.645 782.82C289.645 785.16 287.325 786.34 284.625 786.34C282.565 786.34 280.985 785.7 279.905 784.74L281.485 782.96C282.305 783.6 283.365 784.08 284.605 784.08ZM294.838 777.32C294.838 776.18 295.758 775.22 296.938 775.22C298.118 775.22 299.018 776.18 299.018 777.32C299.018 778.46 298.118 779.4 296.938 779.4C295.758 779.4 294.838 778.46 294.838 777.32ZM294.838 784.22C294.838 783.1 295.758 782.16 296.938 782.16C298.118 782.16 299.018 783.1 299.018 784.22C299.018 785.38 298.118 786.34 296.938 786.34C295.758 786.34 294.838 785.38 294.838 784.22ZM319.482 776.46C320.142 775.58 321.122 775.02 322.202 775.02C324.922 775.02 326.122 777.2 326.122 780.66C326.122 783.94 324.622 786.34 321.862 786.34C320.802 786.34 319.862 785.88 319.242 785.04L319.122 786H316.322V771.16L319.482 770.82V776.46ZM321.042 784.04C322.162 784.04 322.862 783.1 322.862 780.7C322.862 778.06 322.202 777.36 321.202 777.36C320.482 777.36 319.942 777.82 319.482 778.6V783.08C319.882 783.7 320.362 784.04 321.042 784.04Z" fill="black"/>
<path d="M205.96 1207.38C205.12 1207.92 203.94 1208.34 202.48 1208.34C199.7 1208.34 198.38 1206.82 198.38 1204.38V1199.56H196.16V1197.38H198.38V1195.08L201.54 1194.7V1197.38H204.96L204.64 1199.56H201.54V1204.38C201.54 1205.44 202 1205.84 203.06 1205.84C203.8 1205.84 204.42 1205.64 204.92 1205.36L205.96 1207.38ZM212.972 1191.82C214.072 1191.82 214.832 1192.6 214.832 1193.6C214.832 1194.62 214.072 1195.38 212.972 1195.38C211.872 1195.38 211.092 1194.62 211.092 1193.6C211.092 1192.6 211.872 1191.82 212.972 1191.82ZM214.872 1197.38V1205.84H217.592V1208H208.712V1205.84H211.712V1199.54H208.812V1197.38H214.872ZM229.944 1207.38C229.104 1207.92 227.924 1208.34 226.464 1208.34C223.684 1208.34 222.364 1206.82 222.364 1204.38V1199.56H220.144V1197.38H222.364V1195.08L225.524 1194.7V1197.38H228.944L228.624 1199.56H225.524V1204.38C225.524 1205.44 225.984 1205.84 227.044 1205.84C227.784 1205.84 228.404 1205.64 228.904 1205.36L229.944 1207.38ZM237.917 1193.16V1204.66C237.917 1205.52 238.437 1205.84 239.277 1205.84C239.837 1205.84 240.357 1205.7 240.797 1205.52L241.537 1207.64C240.837 1208.02 239.837 1208.34 238.477 1208.34C235.917 1208.34 234.757 1206.76 234.757 1204.26V1195.32H231.637V1193.16H237.917ZM247.109 1203.62C247.329 1205.36 248.309 1206.04 249.669 1206.04C250.629 1206.04 251.549 1205.7 252.389 1205.16L253.649 1206.88C252.649 1207.74 251.209 1208.34 249.409 1208.34C245.769 1208.34 243.889 1206 243.889 1202.7C243.889 1199.56 245.729 1197.02 249.069 1197.02C252.109 1197.02 254.049 1199.06 254.049 1202.48C254.049 1202.84 254.029 1203.3 253.989 1203.62H247.109ZM249.069 1199.14C247.949 1199.14 247.209 1199.94 247.069 1201.7H250.969C250.949 1200.16 250.409 1199.14 249.069 1199.14ZM262.241 1197.02C265.001 1197.02 266.121 1199.2 266.121 1202.66C266.121 1205.94 264.621 1208.34 262.041 1208.34C261.001 1208.34 260.161 1207.96 259.521 1207.24V1212.1L256.361 1212.44V1197.38H259.161L259.301 1198.56C260.161 1197.48 261.241 1197.02 262.241 1197.02ZM261.261 1199.36C260.521 1199.36 259.981 1199.82 259.521 1200.6V1205.08C259.961 1205.72 260.421 1206.02 261.081 1206.02C262.201 1206.02 262.861 1205.1 262.861 1202.7C262.861 1200.06 262.261 1199.36 261.261 1199.36ZM272.953 1197.02C276.233 1197.02 278.113 1199.26 278.113 1202.66C278.113 1206.22 276.213 1208.34 272.953 1208.34C269.693 1208.34 267.793 1206.26 267.793 1202.68C267.793 1199.3 269.693 1197.02 272.953 1197.02ZM272.953 1199.36C271.653 1199.36 271.053 1200.36 271.053 1202.68C271.053 1205.04 271.653 1206.02 272.953 1206.02C274.253 1206.02 274.853 1205.04 274.853 1202.66C274.853 1200.36 274.253 1199.36 272.953 1199.36ZM284.605 1206.08C285.665 1206.08 286.365 1205.76 286.365 1205.08C286.365 1204.4 285.965 1204.14 283.845 1203.56C281.905 1203.04 280.565 1202.2 280.565 1200.32C280.565 1198.42 282.185 1197.02 285.165 1197.02C287.065 1197.02 288.425 1197.56 289.465 1198.32L288.205 1200.18C287.325 1199.64 286.285 1199.28 285.265 1199.28C284.225 1199.28 283.745 1199.54 283.745 1200.1C283.745 1200.64 284.165 1200.88 286.245 1201.46C288.305 1202.04 289.645 1202.74 289.645 1204.82C289.645 1207.16 287.325 1208.34 284.625 1208.34C282.565 1208.34 280.985 1207.7 279.905 1206.74L281.485 1204.96C282.305 1205.6 283.365 1206.08 284.605 1206.08ZM294.838 1199.32C294.838 1198.18 295.758 1197.22 296.938 1197.22C298.118 1197.22 299.018 1198.18 299.018 1199.32C299.018 1200.46 298.118 1201.4 296.938 1201.4C295.758 1201.4 294.838 1200.46 294.838 1199.32ZM294.838 1206.22C294.838 1205.1 295.758 1204.16 296.938 1204.16C298.118 1204.16 299.018 1205.1 299.018 1206.22C299.018 1207.38 298.118 1208.34 296.938 1208.34C295.758 1208.34 294.838 1207.38 294.838 1206.22ZM316.322 1208V1197.38H319.082L319.302 1198.6C320.242 1197.54 321.242 1197.02 322.602 1197.02C324.422 1197.02 325.522 1198.18 325.522 1200.2V1208H322.362V1201.12C322.362 1199.8 322.122 1199.36 321.342 1199.36C320.662 1199.36 320.082 1199.82 319.482 1200.58V1208H316.322Z" fill="black"/>
</svg>
